%TF.GenerationSoftware,KiCad,Pcbnew,9.0.1*%
%TF.CreationDate,2025-05-27T17:05:58+05:30*%
%TF.ProjectId,macronardo,6d616372-6f6e-4617-9264-6f2e6b696361,rev?*%
%TF.SameCoordinates,Original*%
%TF.FileFunction,Legend,Top*%
%TF.FilePolarity,Positive*%
%FSLAX46Y46*%
G04 Gerber Fmt 4.6, Leading zero omitted, Abs format (unit mm)*
G04 Created by KiCad (PCBNEW 9.0.1) date 2025-05-27 17:05:58*
%MOMM*%
%LPD*%
G01*
G04 APERTURE LIST*
%ADD10C,0.200000*%
%ADD11C,0.150000*%
%ADD12C,0.120000*%
G04 APERTURE END LIST*
D10*
X96325000Y-75725000D02*
X116575000Y-75725000D01*
X116575000Y-96275000D01*
X96325000Y-96275000D01*
X96325000Y-75725000D01*
G36*
X118190212Y-56265000D02*
G01*
X118173848Y-55761065D01*
X118167681Y-55559931D01*
X118124633Y-55694204D01*
X118025593Y-55999263D01*
X117920385Y-55999263D01*
X117830870Y-55694204D01*
X117793318Y-55559931D01*
X117788555Y-55756974D01*
X117773534Y-56265000D01*
X117630713Y-56265000D01*
X117674433Y-55374002D01*
X117864392Y-55374002D01*
X117942916Y-55628564D01*
X117980469Y-55771995D01*
X118018021Y-55636807D01*
X118100697Y-55374002D01*
X118294077Y-55374002D01*
X118338468Y-56265000D01*
X118190212Y-56265000D01*
G37*
G36*
X118822326Y-55561631D02*
G01*
X118880504Y-55572327D01*
X118932227Y-55591240D01*
X118971728Y-55616290D01*
X119002859Y-55649186D01*
X119024668Y-55689563D01*
X119037250Y-55735722D01*
X119041765Y-55792084D01*
X119041765Y-56265000D01*
X118898944Y-56265000D01*
X118894853Y-56174691D01*
X118849057Y-56217128D01*
X118796484Y-56250772D01*
X118766811Y-56263288D01*
X118733958Y-56272815D01*
X118699261Y-56278601D01*
X118659830Y-56280631D01*
X118608583Y-56276529D01*
X118566285Y-56265061D01*
X118528795Y-56246163D01*
X118498630Y-56221707D01*
X118474821Y-56191335D01*
X118457292Y-56154663D01*
X118446916Y-56113997D01*
X118443309Y-56067896D01*
X118443923Y-56062400D01*
X118618187Y-56062400D01*
X118621458Y-56088861D01*
X118630600Y-56109570D01*
X118645481Y-56125903D01*
X118676351Y-56141868D01*
X118719975Y-56147763D01*
X118754326Y-56141951D01*
X118792393Y-56122911D01*
X118829906Y-56094310D01*
X118875069Y-56051592D01*
X118875069Y-55960184D01*
X118773281Y-55960184D01*
X118732594Y-55962379D01*
X118701535Y-55968244D01*
X118674068Y-55978220D01*
X118653724Y-55990471D01*
X118637539Y-56005939D01*
X118626735Y-56023077D01*
X118620338Y-56042063D01*
X118618187Y-56062400D01*
X118443923Y-56062400D01*
X118448582Y-56020680D01*
X118464131Y-55977770D01*
X118489956Y-55939835D01*
X118527634Y-55906634D01*
X118574038Y-55880773D01*
X118634246Y-55859923D01*
X118701074Y-55847492D01*
X118784211Y-55842948D01*
X118875069Y-55842948D01*
X118875069Y-55800633D01*
X118873117Y-55774400D01*
X118867559Y-55751723D01*
X118857710Y-55731477D01*
X118843318Y-55714659D01*
X118824674Y-55701449D01*
X118799904Y-55691090D01*
X118771636Y-55685004D01*
X118734324Y-55682725D01*
X118673264Y-55686327D01*
X118613058Y-55697135D01*
X118554252Y-55714375D01*
X118497287Y-55737435D01*
X118497287Y-55604567D01*
X118549400Y-55586505D01*
X118612386Y-55570983D01*
X118678481Y-55561044D01*
X118748002Y-55557672D01*
X118822326Y-55561631D01*
G37*
G36*
X119794216Y-56237644D02*
G01*
X119744246Y-56254955D01*
X119692428Y-56267137D01*
X119639130Y-56274284D01*
X119582458Y-56276723D01*
X119502412Y-56270853D01*
X119434202Y-56254253D01*
X119372991Y-56225986D01*
X119322827Y-56187513D01*
X119282860Y-56138578D01*
X119252852Y-56077848D01*
X119234994Y-56009339D01*
X119228611Y-55926662D01*
X119235402Y-55846189D01*
X119254867Y-55776147D01*
X119286877Y-55713141D01*
X119328995Y-55661048D01*
X119381256Y-55619097D01*
X119444094Y-55587470D01*
X119513959Y-55568274D01*
X119594059Y-55561580D01*
X119659049Y-55563710D01*
X119707815Y-55569335D01*
X119790797Y-55588935D01*
X119790797Y-55749159D01*
X119747058Y-55731109D01*
X119698900Y-55717407D01*
X119649866Y-55708886D01*
X119604989Y-55706172D01*
X119560150Y-55710225D01*
X119521641Y-55721803D01*
X119487424Y-55740608D01*
X119459481Y-55765218D01*
X119437452Y-55795528D01*
X119420891Y-55832690D01*
X119411011Y-55873644D01*
X119407580Y-55919823D01*
X119411319Y-55967737D01*
X119421929Y-56008728D01*
X119439496Y-56045485D01*
X119462534Y-56075528D01*
X119491328Y-56099629D01*
X119525732Y-56117538D01*
X119564066Y-56128368D01*
X119607737Y-56132131D01*
X119653838Y-56128956D01*
X119702320Y-56119797D01*
X119750130Y-56106058D01*
X119794216Y-56089145D01*
X119794216Y-56237644D01*
G37*
G36*
X120448360Y-55839040D02*
G01*
X120447997Y-55802760D01*
X120444574Y-55774987D01*
X120437662Y-55750111D01*
X120428210Y-55731390D01*
X120415426Y-55716352D01*
X120400488Y-55706294D01*
X120383282Y-55700415D01*
X120362997Y-55698356D01*
X120326912Y-55705310D01*
X120286793Y-55728398D01*
X120248541Y-55764773D01*
X120200392Y-55827316D01*
X120200392Y-56265000D01*
X120029605Y-56265000D01*
X120029605Y-55569396D01*
X120180547Y-55569396D01*
X120186714Y-55674909D01*
X120225305Y-55626671D01*
X120273115Y-55589729D01*
X120300591Y-55576155D01*
X120331550Y-55565976D01*
X120364569Y-55559823D01*
X120401892Y-55557672D01*
X120452514Y-55562338D01*
X120495132Y-55575563D01*
X120532522Y-55597739D01*
X120563459Y-55628564D01*
X120587008Y-55666981D01*
X120604431Y-55716613D01*
X120613729Y-55771767D01*
X120615727Y-55839040D01*
X120448360Y-55839040D01*
G37*
G36*
X121142136Y-55563644D02*
G01*
X121205635Y-55580509D01*
X121262143Y-55609096D01*
X121308766Y-55648347D01*
X121345587Y-55697798D01*
X121373307Y-55759722D01*
X121389661Y-55829196D01*
X121395533Y-55913351D01*
X121389527Y-55992844D01*
X121372269Y-56062950D01*
X121343552Y-56126554D01*
X121305347Y-56179148D01*
X121257027Y-56221806D01*
X121198063Y-56254070D01*
X121131618Y-56273712D01*
X121053288Y-56280631D01*
X120978690Y-56274765D01*
X120915291Y-56258161D01*
X120858801Y-56229904D01*
X120812159Y-56191055D01*
X120775309Y-56141770D01*
X120747252Y-56079314D01*
X120730693Y-56008942D01*
X120724720Y-55922876D01*
X120725032Y-55918785D01*
X120898194Y-55918785D01*
X120903869Y-55989654D01*
X120919045Y-56042471D01*
X120941913Y-56081390D01*
X120974393Y-56111593D01*
X121013538Y-56129700D01*
X121061470Y-56136039D01*
X121101179Y-56131702D01*
X121133827Y-56119431D01*
X121161674Y-56099567D01*
X121183714Y-56073269D01*
X121200194Y-56041767D01*
X121212412Y-56003660D01*
X121219534Y-55962689D01*
X121221999Y-55917442D01*
X121216674Y-55846814D01*
X121202501Y-55794483D01*
X121181332Y-55756242D01*
X121150685Y-55726741D01*
X121111628Y-55708709D01*
X121061470Y-55702264D01*
X121019959Y-55706746D01*
X120986976Y-55719239D01*
X120959024Y-55739318D01*
X120936418Y-55765767D01*
X120919509Y-55797179D01*
X120907414Y-55834644D01*
X120900557Y-55874845D01*
X120898194Y-55918785D01*
X120725032Y-55918785D01*
X120730825Y-55842863D01*
X120748290Y-55773033D01*
X120777373Y-55709827D01*
X120815884Y-55657873D01*
X120864460Y-55615762D01*
X120923473Y-55583928D01*
X120989788Y-55564484D01*
X121066966Y-55557672D01*
X121142136Y-55563644D01*
G37*
G36*
X121953323Y-56265000D02*
G01*
X121953323Y-55815654D01*
X121948991Y-55770164D01*
X121937755Y-55739267D01*
X121921092Y-55718905D01*
X121898710Y-55706663D01*
X121868632Y-55702264D01*
X121841574Y-55705827D01*
X121814822Y-55716785D01*
X121787665Y-55736214D01*
X121749817Y-55774180D01*
X121706027Y-55828538D01*
X121706027Y-56265000D01*
X121539331Y-56265000D01*
X121539331Y-55569396D01*
X121683496Y-55569396D01*
X121687587Y-55672100D01*
X121731612Y-55624900D01*
X121781132Y-55588630D01*
X121808701Y-55575429D01*
X121838529Y-55565671D01*
X121870352Y-55559767D01*
X121907527Y-55557672D01*
X121958628Y-55562257D01*
X122000401Y-55575075D01*
X122036956Y-55596135D01*
X122066652Y-55624106D01*
X122089703Y-55658482D01*
X122106646Y-55700432D01*
X122116485Y-55746638D01*
X122119958Y-55800266D01*
X122119958Y-56265000D01*
X121953323Y-56265000D01*
G37*
G36*
X122666709Y-55561631D02*
G01*
X122724886Y-55572327D01*
X122776609Y-55591240D01*
X122816111Y-55616290D01*
X122847242Y-55649186D01*
X122869050Y-55689563D01*
X122881632Y-55735722D01*
X122886147Y-55792084D01*
X122886147Y-56265000D01*
X122743326Y-56265000D01*
X122739235Y-56174691D01*
X122693440Y-56217128D01*
X122640867Y-56250772D01*
X122611194Y-56263288D01*
X122578340Y-56272815D01*
X122543643Y-56278601D01*
X122504213Y-56280631D01*
X122452966Y-56276529D01*
X122410668Y-56265061D01*
X122373177Y-56246163D01*
X122343012Y-56221707D01*
X122319204Y-56191335D01*
X122301674Y-56154663D01*
X122291299Y-56113997D01*
X122287691Y-56067896D01*
X122288305Y-56062400D01*
X122462569Y-56062400D01*
X122465840Y-56088861D01*
X122474983Y-56109570D01*
X122489863Y-56125903D01*
X122520733Y-56141868D01*
X122564357Y-56147763D01*
X122598709Y-56141951D01*
X122636775Y-56122911D01*
X122674289Y-56094310D01*
X122719452Y-56051592D01*
X122719452Y-55960184D01*
X122617663Y-55960184D01*
X122576977Y-55962379D01*
X122545917Y-55968244D01*
X122518451Y-55978220D01*
X122498107Y-55990471D01*
X122481922Y-56005939D01*
X122471118Y-56023077D01*
X122464721Y-56042063D01*
X122462569Y-56062400D01*
X122288305Y-56062400D01*
X122292964Y-56020680D01*
X122308513Y-55977770D01*
X122334339Y-55939835D01*
X122372016Y-55906634D01*
X122418420Y-55880773D01*
X122478628Y-55859923D01*
X122545456Y-55847492D01*
X122628593Y-55842948D01*
X122719452Y-55842948D01*
X122719452Y-55800633D01*
X122717499Y-55774400D01*
X122711941Y-55751723D01*
X122702093Y-55731477D01*
X122687700Y-55714659D01*
X122669056Y-55701449D01*
X122644286Y-55691090D01*
X122616018Y-55685004D01*
X122578707Y-55682725D01*
X122517646Y-55686327D01*
X122457440Y-55697135D01*
X122398635Y-55714375D01*
X122341669Y-55737435D01*
X122341669Y-55604567D01*
X122393783Y-55586505D01*
X122456769Y-55570983D01*
X122522863Y-55561044D01*
X122592384Y-55557672D01*
X122666709Y-55561631D01*
G37*
G36*
X123523866Y-55839040D02*
G01*
X123523503Y-55802760D01*
X123520080Y-55774987D01*
X123513168Y-55750111D01*
X123503715Y-55731390D01*
X123490932Y-55716352D01*
X123475994Y-55706294D01*
X123458788Y-55700415D01*
X123438503Y-55698356D01*
X123402418Y-55705310D01*
X123362299Y-55728398D01*
X123324047Y-55764773D01*
X123275898Y-55827316D01*
X123275898Y-56265000D01*
X123105111Y-56265000D01*
X123105111Y-55569396D01*
X123256053Y-55569396D01*
X123262220Y-55674909D01*
X123300811Y-55626671D01*
X123348621Y-55589729D01*
X123376097Y-55576155D01*
X123407056Y-55565976D01*
X123440075Y-55559823D01*
X123477398Y-55557672D01*
X123528020Y-55562338D01*
X123570638Y-55575563D01*
X123608028Y-55597739D01*
X123638965Y-55628564D01*
X123662513Y-55666981D01*
X123679937Y-55716613D01*
X123689235Y-55771767D01*
X123691233Y-55839040D01*
X123523866Y-55839040D01*
G37*
G36*
X124426587Y-56265000D02*
G01*
X124282484Y-56265000D01*
X124278393Y-56162540D01*
X124233269Y-56211022D01*
X124183382Y-56248208D01*
X124155903Y-56261832D01*
X124126352Y-56272083D01*
X124095035Y-56278409D01*
X124059124Y-56280631D01*
X124000137Y-56274274D01*
X123949764Y-56256024D01*
X123905969Y-56226325D01*
X123869469Y-56185926D01*
X123841455Y-56136847D01*
X123819949Y-56075467D01*
X123807363Y-56008304D01*
X123802913Y-55930448D01*
X123803305Y-55922815D01*
X123977791Y-55922815D01*
X123979916Y-55977782D01*
X123985607Y-56020268D01*
X123995841Y-56058348D01*
X124008871Y-56086458D01*
X124026439Y-56109196D01*
X124046789Y-56124193D01*
X124070482Y-56132989D01*
X124098019Y-56136039D01*
X124125065Y-56132469D01*
X124151695Y-56121505D01*
X124178620Y-56102090D01*
X124216180Y-56064031D01*
X124259952Y-56009033D01*
X124259952Y-55707515D01*
X124211104Y-55695303D01*
X124152669Y-55690540D01*
X124113912Y-55694730D01*
X124080251Y-55706844D01*
X124050589Y-55726424D01*
X124025235Y-55753066D01*
X124005414Y-55785432D01*
X123990064Y-55826034D01*
X123981002Y-55870675D01*
X123977791Y-55922815D01*
X123803305Y-55922815D01*
X123806174Y-55866985D01*
X123815394Y-55812089D01*
X123829902Y-55764607D01*
X123862667Y-55699563D01*
X123904701Y-55648286D01*
X123956670Y-55608280D01*
X124018091Y-55579898D01*
X124085627Y-55563379D01*
X124160912Y-55557672D01*
X124213119Y-55561092D01*
X124259952Y-55569945D01*
X124259952Y-55299752D01*
X124426587Y-55299752D01*
X124426587Y-56265000D01*
G37*
G36*
X124986519Y-55563644D02*
G01*
X125050017Y-55580509D01*
X125106526Y-55609096D01*
X125153148Y-55648347D01*
X125189970Y-55697798D01*
X125217690Y-55759722D01*
X125234043Y-55829196D01*
X125239916Y-55913351D01*
X125233909Y-55992844D01*
X125216652Y-56062950D01*
X125187935Y-56126554D01*
X125149729Y-56179148D01*
X125101410Y-56221806D01*
X125042445Y-56254070D01*
X124976001Y-56273712D01*
X124897670Y-56280631D01*
X124823072Y-56274765D01*
X124759673Y-56258161D01*
X124703184Y-56229904D01*
X124656542Y-56191055D01*
X124619692Y-56141770D01*
X124591634Y-56079314D01*
X124575076Y-56008942D01*
X124569103Y-55922876D01*
X124569415Y-55918785D01*
X124742576Y-55918785D01*
X124748251Y-55989654D01*
X124763428Y-56042471D01*
X124786296Y-56081390D01*
X124818775Y-56111593D01*
X124857921Y-56129700D01*
X124905853Y-56136039D01*
X124945562Y-56131702D01*
X124978210Y-56119431D01*
X125006056Y-56099567D01*
X125028096Y-56073269D01*
X125044577Y-56041767D01*
X125056795Y-56003660D01*
X125063916Y-55962689D01*
X125066381Y-55917442D01*
X125061056Y-55846814D01*
X125046883Y-55794483D01*
X125025715Y-55756242D01*
X124995068Y-55726741D01*
X124956011Y-55708709D01*
X124905853Y-55702264D01*
X124864342Y-55706746D01*
X124831359Y-55719239D01*
X124803406Y-55739318D01*
X124780800Y-55765767D01*
X124763892Y-55797179D01*
X124751796Y-55834644D01*
X124744939Y-55874845D01*
X124742576Y-55918785D01*
X124569415Y-55918785D01*
X124575207Y-55842863D01*
X124592672Y-55773033D01*
X124621756Y-55709827D01*
X124660266Y-55657873D01*
X124708843Y-55615762D01*
X124767855Y-55583928D01*
X124834171Y-55564484D01*
X124911348Y-55557672D01*
X124986519Y-55563644D01*
G37*
G36*
X129984621Y-55565488D02*
G01*
X130009888Y-55567919D01*
X130033103Y-55575075D01*
X130054200Y-55586519D01*
X130071999Y-55601392D01*
X130086629Y-55619481D01*
X130097950Y-55640715D01*
X130105122Y-55663893D01*
X130107536Y-55688586D01*
X130105105Y-55713915D01*
X130097950Y-55737191D01*
X130086618Y-55758318D01*
X130071999Y-55776147D01*
X130054226Y-55790728D01*
X130033103Y-55802098D01*
X130009888Y-55809254D01*
X129984621Y-55811685D01*
X129959344Y-55809246D01*
X129936383Y-55802098D01*
X129915503Y-55790768D01*
X129897487Y-55776147D01*
X129882612Y-55758298D01*
X129871170Y-55737191D01*
X129864060Y-55713918D01*
X129861645Y-55688586D01*
X129864044Y-55663890D01*
X129871170Y-55640715D01*
X129882601Y-55619501D01*
X129897487Y-55601392D01*
X129915528Y-55586480D01*
X129936383Y-55575075D01*
X129959344Y-55567927D01*
X129984621Y-55565488D01*
G37*
G36*
X129984621Y-56034434D02*
G01*
X130009888Y-56036865D01*
X130033103Y-56044021D01*
X130054222Y-56055403D01*
X130071999Y-56070033D01*
X130086611Y-56087822D01*
X130097950Y-56108989D01*
X130105120Y-56132123D01*
X130107536Y-56156861D01*
X130105107Y-56182137D01*
X130097950Y-56205404D01*
X130086629Y-56226638D01*
X130071999Y-56244727D01*
X130054200Y-56259600D01*
X130033103Y-56271045D01*
X130009888Y-56278200D01*
X129984621Y-56280631D01*
X129959344Y-56278192D01*
X129936383Y-56271045D01*
X129915528Y-56259639D01*
X129897487Y-56244727D01*
X129882601Y-56226618D01*
X129871170Y-56205404D01*
X129864059Y-56182140D01*
X129861645Y-56156861D01*
X129864046Y-56132121D01*
X129871170Y-56108989D01*
X129882619Y-56087842D01*
X129897487Y-56070033D01*
X129915507Y-56055364D01*
X129936383Y-56044021D01*
X129959344Y-56036873D01*
X129984621Y-56034434D01*
G37*
G36*
X130541006Y-55968000D02*
G01*
X130541006Y-55819501D01*
X130965928Y-55819501D01*
X130965928Y-55968000D01*
X130541006Y-55968000D01*
G37*
G36*
X131655547Y-56550275D02*
G01*
X131575058Y-56475965D01*
X131507440Y-56400998D01*
X131451576Y-56325222D01*
X131406542Y-56248391D01*
X131370269Y-56166341D01*
X131344429Y-56081568D01*
X131328828Y-55993488D01*
X131323560Y-55901444D01*
X131329820Y-55799439D01*
X131348107Y-55705073D01*
X131377884Y-55614997D01*
X131417472Y-55531233D01*
X131466377Y-55452593D01*
X131524023Y-55378581D01*
X131588683Y-55309674D01*
X131659638Y-55245041D01*
X131754588Y-55339991D01*
X131671218Y-55423992D01*
X131605054Y-55509908D01*
X131554431Y-55598155D01*
X131517166Y-55692465D01*
X131494955Y-55789325D01*
X131487508Y-55889781D01*
X131494926Y-55991716D01*
X131517113Y-56090770D01*
X131554431Y-56187941D01*
X131605365Y-56278924D01*
X131671592Y-56365860D01*
X131754588Y-56449220D01*
X131655547Y-56550275D01*
G37*
G36*
X134883651Y-55583247D02*
G01*
X134918466Y-55589118D01*
X134918466Y-55706172D01*
X134886326Y-55697405D01*
X134852215Y-55694448D01*
X134826421Y-55696901D01*
X134807763Y-55703424D01*
X134792147Y-55714102D01*
X134779125Y-55728520D01*
X134769442Y-55746097D01*
X134762700Y-55768759D01*
X134757937Y-55823042D01*
X134763826Y-55877041D01*
X134778759Y-55911092D01*
X134794765Y-55927065D01*
X134816345Y-55937015D01*
X134845376Y-55940645D01*
X134881219Y-55936065D01*
X134918466Y-55925013D01*
X134918466Y-56044815D01*
X134870655Y-56054829D01*
X134823517Y-56057882D01*
X134774293Y-56053658D01*
X134733696Y-56041823D01*
X134698037Y-56022136D01*
X134669155Y-55995966D01*
X134646759Y-55963480D01*
X134630198Y-55923121D01*
X134620618Y-55878571D01*
X134617254Y-55827377D01*
X134620458Y-55778902D01*
X134629893Y-55733344D01*
X134646231Y-55690947D01*
X134669155Y-55655003D01*
X134699435Y-55625171D01*
X134738825Y-55601331D01*
X134784521Y-55586462D01*
X134841285Y-55581120D01*
X134883651Y-55583247D01*
G37*
G36*
X134841076Y-55362531D02*
G01*
X134892579Y-55374656D01*
X134939959Y-55394518D01*
X134983858Y-55421557D01*
X135023020Y-55454406D01*
X135057807Y-55493436D01*
X135100238Y-55560578D01*
X135132301Y-55640104D01*
X135151630Y-55725985D01*
X135158251Y-55819501D01*
X135151630Y-55913016D01*
X135132301Y-55998897D01*
X135100223Y-56078373D01*
X135057807Y-56145259D01*
X135023057Y-56184090D01*
X134983895Y-56216949D01*
X134939959Y-56244178D01*
X134892563Y-56264213D01*
X134841062Y-56276437D01*
X134784621Y-56280631D01*
X134725281Y-56276634D01*
X134672422Y-56265127D01*
X134625069Y-56246559D01*
X134581203Y-56220780D01*
X134542281Y-56189168D01*
X134507894Y-56151366D01*
X134479123Y-56108946D01*
X134454941Y-56060642D01*
X134435476Y-56005736D01*
X134417267Y-55918727D01*
X134410929Y-55820844D01*
X134411024Y-55819501D01*
X134527067Y-55819501D01*
X134531241Y-55890722D01*
X134543431Y-55956643D01*
X134564258Y-56018159D01*
X134592280Y-56069788D01*
X134628837Y-56113525D01*
X134672575Y-56146725D01*
X134705506Y-56162253D01*
X134742338Y-56171805D01*
X134783888Y-56175118D01*
X134825953Y-56171838D01*
X134863126Y-56162396D01*
X134896240Y-56147091D01*
X134940250Y-56114152D01*
X134976840Y-56070521D01*
X135004914Y-56018884D01*
X135025689Y-55957681D01*
X135037918Y-55892069D01*
X135042114Y-55820844D01*
X135037929Y-55749585D01*
X135025689Y-55683396D01*
X135004877Y-55621569D01*
X134976840Y-55569884D01*
X134940281Y-55526113D01*
X134896240Y-55492643D01*
X134863083Y-55476922D01*
X134825914Y-55467242D01*
X134783888Y-55463883D01*
X134742338Y-55467196D01*
X134705506Y-55476748D01*
X134672575Y-55492276D01*
X134628815Y-55525421D01*
X134592280Y-55568907D01*
X134564278Y-55620235D01*
X134543431Y-55681748D01*
X134531252Y-55747699D01*
X134527067Y-55819501D01*
X134411024Y-55819501D01*
X134417545Y-55727288D01*
X134436880Y-55641142D01*
X134468948Y-55561297D01*
X134511313Y-55494108D01*
X134546122Y-55455049D01*
X134585286Y-55422095D01*
X134629160Y-55394884D01*
X134676600Y-55374815D01*
X134728142Y-55362571D01*
X134784621Y-55358370D01*
X134841076Y-55362531D01*
G37*
G36*
X136634516Y-55995478D02*
G01*
X136627440Y-56065255D01*
X136607527Y-56122423D01*
X136575136Y-56171626D01*
X136532056Y-56211388D01*
X136479980Y-56241527D01*
X136416591Y-56263595D01*
X136347848Y-56276223D01*
X136270411Y-56280631D01*
X136200733Y-56278569D01*
X136134490Y-56272510D01*
X136069350Y-56261708D01*
X136004675Y-56245460D01*
X136004675Y-56081329D01*
X136070254Y-56101113D01*
X136138948Y-56117294D01*
X136207580Y-56128162D01*
X136273831Y-56132131D01*
X136319866Y-56129904D01*
X136355163Y-56123949D01*
X136386612Y-56113739D01*
X136409813Y-56101357D01*
X136428378Y-56085322D01*
X136440526Y-56067224D01*
X136447667Y-56046578D01*
X136450113Y-56023443D01*
X136445268Y-55992941D01*
X136431306Y-55968550D01*
X136410152Y-55948143D01*
X136381786Y-55929349D01*
X136311749Y-55898635D01*
X136231821Y-55869265D01*
X136151892Y-55833789D01*
X136114609Y-55811523D01*
X136081856Y-55784696D01*
X136054277Y-55752786D01*
X136032336Y-55714781D01*
X136018577Y-55671551D01*
X136013590Y-55616901D01*
X136018406Y-55565549D01*
X136032702Y-55517311D01*
X136057058Y-55473529D01*
X136092786Y-55435123D01*
X136138127Y-55404346D01*
X136197993Y-55379192D01*
X136265878Y-55363988D01*
X136353087Y-55358370D01*
X136408714Y-55361057D01*
X136466111Y-55367896D01*
X136520760Y-55377848D01*
X136568937Y-55389633D01*
X136568937Y-55542041D01*
X136521127Y-55526409D01*
X136467515Y-55514014D01*
X136411828Y-55505832D01*
X136358583Y-55502962D01*
X136315864Y-55504914D01*
X136283417Y-55510106D01*
X136254455Y-55518942D01*
X136232859Y-55529767D01*
X136215544Y-55544004D01*
X136204160Y-55560603D01*
X136197573Y-55579642D01*
X136195307Y-55601209D01*
X136200012Y-55627270D01*
X136214052Y-55649324D01*
X136235160Y-55667847D01*
X136263939Y-55685472D01*
X136334281Y-55715453D01*
X136414881Y-55745495D01*
X136495481Y-55782009D01*
X136532899Y-55804789D01*
X136565884Y-55831774D01*
X136593783Y-55863604D01*
X136615710Y-55901017D01*
X136629557Y-55943294D01*
X136634516Y-55995478D01*
G37*
G36*
X137160079Y-55561631D02*
G01*
X137218257Y-55572327D01*
X137269980Y-55591240D01*
X137309481Y-55616290D01*
X137340612Y-55649186D01*
X137362421Y-55689563D01*
X137375003Y-55735722D01*
X137379518Y-55792084D01*
X137379518Y-56265000D01*
X137236697Y-56265000D01*
X137232606Y-56174691D01*
X137186810Y-56217128D01*
X137134237Y-56250772D01*
X137104564Y-56263288D01*
X137071711Y-56272815D01*
X137037014Y-56278601D01*
X136997583Y-56280631D01*
X136946336Y-56276529D01*
X136904038Y-56265061D01*
X136866548Y-56246163D01*
X136836383Y-56221707D01*
X136812574Y-56191335D01*
X136795045Y-56154663D01*
X136784669Y-56113997D01*
X136781062Y-56067896D01*
X136781676Y-56062400D01*
X136955940Y-56062400D01*
X136959211Y-56088861D01*
X136968353Y-56109570D01*
X136983234Y-56125903D01*
X137014104Y-56141868D01*
X137057728Y-56147763D01*
X137092079Y-56141951D01*
X137130146Y-56122911D01*
X137167659Y-56094310D01*
X137212822Y-56051592D01*
X137212822Y-55960184D01*
X137111034Y-55960184D01*
X137070347Y-55962379D01*
X137039288Y-55968244D01*
X137011821Y-55978220D01*
X136991477Y-55990471D01*
X136975292Y-56005939D01*
X136964488Y-56023077D01*
X136958091Y-56042063D01*
X136955940Y-56062400D01*
X136781676Y-56062400D01*
X136786335Y-56020680D01*
X136801884Y-55977770D01*
X136827709Y-55939835D01*
X136865387Y-55906634D01*
X136911791Y-55880773D01*
X136971999Y-55859923D01*
X137038827Y-55847492D01*
X137121964Y-55842948D01*
X137212822Y-55842948D01*
X137212822Y-55800633D01*
X137210870Y-55774400D01*
X137205312Y-55751723D01*
X137195463Y-55731477D01*
X137181071Y-55714659D01*
X137162427Y-55701449D01*
X137137657Y-55691090D01*
X137109389Y-55685004D01*
X137072077Y-55682725D01*
X137011017Y-55686327D01*
X136950811Y-55697135D01*
X136892005Y-55714375D01*
X136835040Y-55737435D01*
X136835040Y-55604567D01*
X136887153Y-55586505D01*
X136950139Y-55570983D01*
X137016234Y-55561044D01*
X137085755Y-55557672D01*
X137160079Y-55561631D01*
G37*
G36*
X138142899Y-56061240D02*
G01*
X138136016Y-56117332D01*
X138116582Y-56162418D01*
X138086147Y-56200289D01*
X138046912Y-56230561D01*
X138001279Y-56252937D01*
X137948543Y-56268663D01*
X137893114Y-56277625D01*
X137836191Y-56280631D01*
X137761523Y-56278519D01*
X137698194Y-56272632D01*
X137637766Y-56262686D01*
X137582056Y-56249368D01*
X137582056Y-56100868D01*
X137646733Y-56124095D01*
X137710162Y-56139642D01*
X137773287Y-56148768D01*
X137830696Y-56151671D01*
X137891460Y-56145832D01*
X137928698Y-56131338D01*
X137947302Y-56115739D01*
X137957710Y-56098325D01*
X137961182Y-56078276D01*
X137954344Y-56049638D01*
X137945211Y-56037640D01*
X137928698Y-56024787D01*
X137875758Y-56000301D01*
X137786304Y-55971969D01*
X137736920Y-55956259D01*
X137696484Y-55939607D01*
X137660449Y-55919413D01*
X137632615Y-55897048D01*
X137610463Y-55870499D01*
X137594696Y-55840139D01*
X137585403Y-55806059D01*
X137582056Y-55764118D01*
X137586841Y-55723044D01*
X137601168Y-55684434D01*
X137624608Y-55649716D01*
X137658199Y-55618672D01*
X137699485Y-55594011D01*
X137752843Y-55574036D01*
X137812181Y-55562034D01*
X137885345Y-55557672D01*
X138001482Y-55563778D01*
X138090997Y-55577212D01*
X138090997Y-55713988D01*
X138032152Y-55697236D01*
X137979317Y-55686755D01*
X137927113Y-55680786D01*
X137875819Y-55678817D01*
X137827796Y-55683948D01*
X137793510Y-55697623D01*
X137775893Y-55712186D01*
X137765849Y-55729280D01*
X137762430Y-55749830D01*
X137768536Y-55777796D01*
X137776967Y-55789145D01*
X137792777Y-55801610D01*
X137843335Y-55825851D01*
X137929125Y-55853389D01*
X137986547Y-55871788D01*
X138030181Y-55889842D01*
X138068241Y-55911282D01*
X138096065Y-55933806D01*
X138117647Y-55960232D01*
X138131969Y-55989677D01*
X138140031Y-56022356D01*
X138142899Y-56061240D01*
G37*
G36*
X138753323Y-56265000D02*
G01*
X138753323Y-55815654D01*
X138748991Y-55770164D01*
X138737755Y-55739267D01*
X138721092Y-55718905D01*
X138698710Y-55706663D01*
X138668632Y-55702264D01*
X138641574Y-55705827D01*
X138614822Y-55716785D01*
X138587665Y-55736214D01*
X138549817Y-55774180D01*
X138506027Y-55828538D01*
X138506027Y-56265000D01*
X138339331Y-56265000D01*
X138339331Y-55299752D01*
X138506027Y-55299752D01*
X138506027Y-55538438D01*
X138497845Y-55664651D01*
X138540832Y-55619344D01*
X138587971Y-55585638D01*
X138642620Y-55564816D01*
X138672863Y-55559533D01*
X138707527Y-55557672D01*
X138758628Y-55562257D01*
X138800401Y-55575075D01*
X138836956Y-55596135D01*
X138866652Y-55624106D01*
X138889703Y-55658482D01*
X138906646Y-55700432D01*
X138916485Y-55746638D01*
X138919958Y-55800266D01*
X138919958Y-56265000D01*
X138753323Y-56265000D01*
G37*
G36*
X139466709Y-55561631D02*
G01*
X139524886Y-55572327D01*
X139576609Y-55591240D01*
X139616111Y-55616290D01*
X139647242Y-55649186D01*
X139669050Y-55689563D01*
X139681632Y-55735722D01*
X139686147Y-55792084D01*
X139686147Y-56265000D01*
X139543326Y-56265000D01*
X139539235Y-56174691D01*
X139493440Y-56217128D01*
X139440867Y-56250772D01*
X139411194Y-56263288D01*
X139378340Y-56272815D01*
X139343643Y-56278601D01*
X139304213Y-56280631D01*
X139252966Y-56276529D01*
X139210668Y-56265061D01*
X139173177Y-56246163D01*
X139143012Y-56221707D01*
X139119204Y-56191335D01*
X139101674Y-56154663D01*
X139091299Y-56113997D01*
X139087691Y-56067896D01*
X139088305Y-56062400D01*
X139262569Y-56062400D01*
X139265840Y-56088861D01*
X139274983Y-56109570D01*
X139289863Y-56125903D01*
X139320733Y-56141868D01*
X139364357Y-56147763D01*
X139398709Y-56141951D01*
X139436775Y-56122911D01*
X139474289Y-56094310D01*
X139519452Y-56051592D01*
X139519452Y-55960184D01*
X139417663Y-55960184D01*
X139376977Y-55962379D01*
X139345917Y-55968244D01*
X139318451Y-55978220D01*
X139298107Y-55990471D01*
X139281922Y-56005939D01*
X139271118Y-56023077D01*
X139264721Y-56042063D01*
X139262569Y-56062400D01*
X139088305Y-56062400D01*
X139092964Y-56020680D01*
X139108513Y-55977770D01*
X139134339Y-55939835D01*
X139172016Y-55906634D01*
X139218420Y-55880773D01*
X139278628Y-55859923D01*
X139345456Y-55847492D01*
X139428593Y-55842948D01*
X139519452Y-55842948D01*
X139519452Y-55800633D01*
X139517499Y-55774400D01*
X139511941Y-55751723D01*
X139502093Y-55731477D01*
X139487700Y-55714659D01*
X139469056Y-55701449D01*
X139444286Y-55691090D01*
X139416018Y-55685004D01*
X139378707Y-55682725D01*
X139317646Y-55686327D01*
X139257440Y-55697135D01*
X139198635Y-55714375D01*
X139141669Y-55737435D01*
X139141669Y-55604567D01*
X139193783Y-55586505D01*
X139256769Y-55570983D01*
X139322863Y-55561044D01*
X139392384Y-55557672D01*
X139466709Y-55561631D01*
G37*
G36*
X140291076Y-56265000D02*
G01*
X140291076Y-55815654D01*
X140286744Y-55770164D01*
X140275508Y-55739267D01*
X140258845Y-55718905D01*
X140236463Y-55706663D01*
X140206385Y-55702264D01*
X140179327Y-55705827D01*
X140152575Y-55716785D01*
X140125418Y-55736214D01*
X140087570Y-55774180D01*
X140043780Y-55828538D01*
X140043780Y-56265000D01*
X139877084Y-56265000D01*
X139877084Y-55569396D01*
X140021249Y-55569396D01*
X140025340Y-55672100D01*
X140069364Y-55624900D01*
X140118885Y-55588630D01*
X140146454Y-55575429D01*
X140176282Y-55565671D01*
X140208105Y-55559767D01*
X140245280Y-55557672D01*
X140296381Y-55562257D01*
X140338154Y-55575075D01*
X140374709Y-55596135D01*
X140404405Y-55624106D01*
X140427456Y-55658482D01*
X140444399Y-55700432D01*
X140454238Y-55746638D01*
X140457711Y-55800266D01*
X140457711Y-56265000D01*
X140291076Y-56265000D01*
G37*
G36*
X141218405Y-56257184D02*
G01*
X141127547Y-56274220D01*
X141040779Y-56280631D01*
X140974985Y-56276757D01*
X140922932Y-56266221D01*
X140876845Y-56247595D01*
X140840928Y-56222318D01*
X140813041Y-56189231D01*
X140793117Y-56147213D01*
X140781897Y-56099143D01*
X140777791Y-56038525D01*
X140777791Y-55698356D01*
X140591311Y-55698356D01*
X140591311Y-55569396D01*
X140777791Y-55569396D01*
X140777791Y-55391221D01*
X140948578Y-55346646D01*
X140948578Y-55569396D01*
X141218405Y-55569396D01*
X141218405Y-55698356D01*
X140948578Y-55698356D01*
X140948578Y-56026802D01*
X140952059Y-56065776D01*
X140961460Y-56095162D01*
X140975872Y-56117172D01*
X140996291Y-56133152D01*
X141025749Y-56143745D01*
X141067463Y-56147763D01*
X141147330Y-56140680D01*
X141218405Y-56124316D01*
X141218405Y-56257184D01*
G37*
G36*
X142785528Y-55995478D02*
G01*
X142778452Y-56065255D01*
X142758539Y-56122423D01*
X142726148Y-56171626D01*
X142683068Y-56211388D01*
X142630992Y-56241527D01*
X142567602Y-56263595D01*
X142498860Y-56276223D01*
X142421423Y-56280631D01*
X142351744Y-56278569D01*
X142285502Y-56272510D01*
X142220362Y-56261708D01*
X142155687Y-56245460D01*
X142155687Y-56081329D01*
X142221266Y-56101113D01*
X142289959Y-56117294D01*
X142358592Y-56128162D01*
X142424842Y-56132131D01*
X142470878Y-56129904D01*
X142506175Y-56123949D01*
X142537624Y-56113739D01*
X142560825Y-56101357D01*
X142579390Y-56085322D01*
X142591538Y-56067224D01*
X142598679Y-56046578D01*
X142601125Y-56023443D01*
X142596280Y-55992941D01*
X142582318Y-55968550D01*
X142561164Y-55948143D01*
X142532798Y-55929349D01*
X142462761Y-55898635D01*
X142382833Y-55869265D01*
X142302904Y-55833789D01*
X142265621Y-55811523D01*
X142232868Y-55784696D01*
X142205289Y-55752786D01*
X142183347Y-55714781D01*
X142169589Y-55671551D01*
X142164602Y-55616901D01*
X142169418Y-55565549D01*
X142183714Y-55517311D01*
X142208069Y-55473529D01*
X142243797Y-55435123D01*
X142289139Y-55404346D01*
X142349005Y-55379192D01*
X142416890Y-55363988D01*
X142504099Y-55358370D01*
X142559726Y-55361057D01*
X142617123Y-55367896D01*
X142671772Y-55377848D01*
X142719949Y-55389633D01*
X142719949Y-55542041D01*
X142672138Y-55526409D01*
X142618527Y-55514014D01*
X142562840Y-55505832D01*
X142509595Y-55502962D01*
X142466876Y-55504914D01*
X142434429Y-55510106D01*
X142405467Y-55518942D01*
X142383871Y-55529767D01*
X142366555Y-55544004D01*
X142355172Y-55560603D01*
X142348585Y-55579642D01*
X142346318Y-55601209D01*
X142351024Y-55627270D01*
X142365064Y-55649324D01*
X142386172Y-55667847D01*
X142414951Y-55685472D01*
X142485293Y-55715453D01*
X142565893Y-55745495D01*
X142646493Y-55782009D01*
X142683911Y-55804789D01*
X142716896Y-55831774D01*
X142744795Y-55863604D01*
X142766721Y-55901017D01*
X142780569Y-55943294D01*
X142785528Y-55995478D01*
G37*
G36*
X143311091Y-55561631D02*
G01*
X143369269Y-55572327D01*
X143420991Y-55591240D01*
X143460493Y-55616290D01*
X143491624Y-55649186D01*
X143513433Y-55689563D01*
X143526015Y-55735722D01*
X143530530Y-55792084D01*
X143530530Y-56265000D01*
X143387709Y-56265000D01*
X143383618Y-56174691D01*
X143337822Y-56217128D01*
X143285249Y-56250772D01*
X143255576Y-56263288D01*
X143222723Y-56272815D01*
X143188025Y-56278601D01*
X143148595Y-56280631D01*
X143097348Y-56276529D01*
X143055050Y-56265061D01*
X143017560Y-56246163D01*
X142987395Y-56221707D01*
X142963586Y-56191335D01*
X142946057Y-56154663D01*
X142935681Y-56113997D01*
X142932074Y-56067896D01*
X142932688Y-56062400D01*
X143106952Y-56062400D01*
X143110222Y-56088861D01*
X143119365Y-56109570D01*
X143134246Y-56125903D01*
X143165116Y-56141868D01*
X143208740Y-56147763D01*
X143243091Y-56141951D01*
X143281158Y-56122911D01*
X143318671Y-56094310D01*
X143363834Y-56051592D01*
X143363834Y-55960184D01*
X143262046Y-55960184D01*
X143221359Y-55962379D01*
X143190300Y-55968244D01*
X143162833Y-55978220D01*
X143142489Y-55990471D01*
X143126304Y-56005939D01*
X143115500Y-56023077D01*
X143109103Y-56042063D01*
X143106952Y-56062400D01*
X142932688Y-56062400D01*
X142937347Y-56020680D01*
X142952896Y-55977770D01*
X142978721Y-55939835D01*
X143016399Y-55906634D01*
X143062803Y-55880773D01*
X143123011Y-55859923D01*
X143189839Y-55847492D01*
X143272976Y-55842948D01*
X143363834Y-55842948D01*
X143363834Y-55800633D01*
X143361882Y-55774400D01*
X143356324Y-55751723D01*
X143346475Y-55731477D01*
X143332083Y-55714659D01*
X143313439Y-55701449D01*
X143288668Y-55691090D01*
X143260400Y-55685004D01*
X143223089Y-55682725D01*
X143162029Y-55686327D01*
X143101823Y-55697135D01*
X143043017Y-55714375D01*
X142986051Y-55737435D01*
X142986051Y-55604567D01*
X143038165Y-55586505D01*
X143101151Y-55570983D01*
X143167245Y-55561044D01*
X143236767Y-55557672D01*
X143311091Y-55561631D01*
G37*
G36*
X144135458Y-56265000D02*
G01*
X144135458Y-55815654D01*
X144131126Y-55770164D01*
X144119890Y-55739267D01*
X144103227Y-55718905D01*
X144080845Y-55706663D01*
X144050767Y-55702264D01*
X144023710Y-55705827D01*
X143996958Y-55716785D01*
X143969801Y-55736214D01*
X143931952Y-55774180D01*
X143888162Y-55828538D01*
X143888162Y-56265000D01*
X143721467Y-56265000D01*
X143721467Y-55569396D01*
X143865631Y-55569396D01*
X143869722Y-55672100D01*
X143913747Y-55624900D01*
X143963267Y-55588630D01*
X143990836Y-55575429D01*
X144020664Y-55565671D01*
X144052488Y-55559767D01*
X144089663Y-55557672D01*
X144140763Y-55562257D01*
X144182536Y-55575075D01*
X144219092Y-55596135D01*
X144248787Y-55624106D01*
X144271838Y-55658482D01*
X144288782Y-55700432D01*
X144298621Y-55746638D01*
X144302093Y-55800266D01*
X144302093Y-56265000D01*
X144135458Y-56265000D01*
G37*
G36*
X144920027Y-56265000D02*
G01*
X144663878Y-55917991D01*
X144663878Y-56265000D01*
X144497182Y-56265000D01*
X144497182Y-55299752D01*
X144663878Y-55299752D01*
X144663878Y-55864685D01*
X144906350Y-55569396D01*
X145114689Y-55569396D01*
X144833260Y-55886362D01*
X145137953Y-56265000D01*
X144920027Y-56265000D01*
G37*
G36*
X145617721Y-55561631D02*
G01*
X145675898Y-55572327D01*
X145727621Y-55591240D01*
X145767123Y-55616290D01*
X145798254Y-55649186D01*
X145820062Y-55689563D01*
X145832644Y-55735722D01*
X145837159Y-55792084D01*
X145837159Y-56265000D01*
X145694338Y-56265000D01*
X145690247Y-56174691D01*
X145644452Y-56217128D01*
X145591878Y-56250772D01*
X145562205Y-56263288D01*
X145529352Y-56272815D01*
X145494655Y-56278601D01*
X145455225Y-56280631D01*
X145403978Y-56276529D01*
X145361680Y-56265061D01*
X145324189Y-56246163D01*
X145294024Y-56221707D01*
X145270215Y-56191335D01*
X145252686Y-56154663D01*
X145242311Y-56113997D01*
X145238703Y-56067896D01*
X145239317Y-56062400D01*
X145413581Y-56062400D01*
X145416852Y-56088861D01*
X145425995Y-56109570D01*
X145440875Y-56125903D01*
X145471745Y-56141868D01*
X145515369Y-56147763D01*
X145549721Y-56141951D01*
X145587787Y-56122911D01*
X145625301Y-56094310D01*
X145670464Y-56051592D01*
X145670464Y-55960184D01*
X145568675Y-55960184D01*
X145527989Y-55962379D01*
X145496929Y-55968244D01*
X145469463Y-55978220D01*
X145449118Y-55990471D01*
X145432934Y-56005939D01*
X145422130Y-56023077D01*
X145415732Y-56042063D01*
X145413581Y-56062400D01*
X145239317Y-56062400D01*
X145243976Y-56020680D01*
X145259525Y-55977770D01*
X145285351Y-55939835D01*
X145323028Y-55906634D01*
X145369432Y-55880773D01*
X145429640Y-55859923D01*
X145496468Y-55847492D01*
X145579605Y-55842948D01*
X145670464Y-55842948D01*
X145670464Y-55800633D01*
X145668511Y-55774400D01*
X145662953Y-55751723D01*
X145653105Y-55731477D01*
X145638712Y-55714659D01*
X145620068Y-55701449D01*
X145595298Y-55691090D01*
X145567030Y-55685004D01*
X145529719Y-55682725D01*
X145468658Y-55686327D01*
X145408452Y-55697135D01*
X145349647Y-55714375D01*
X145292681Y-55737435D01*
X145292681Y-55604567D01*
X145344795Y-55586505D01*
X145407780Y-55570983D01*
X145473875Y-55561044D01*
X145543396Y-55557672D01*
X145617721Y-55561631D01*
G37*
G36*
X146474877Y-55839040D02*
G01*
X146474515Y-55802760D01*
X146471092Y-55774987D01*
X146464179Y-55750111D01*
X146454727Y-55731390D01*
X146441944Y-55716352D01*
X146427006Y-55706294D01*
X146409800Y-55700415D01*
X146389515Y-55698356D01*
X146353430Y-55705310D01*
X146313311Y-55728398D01*
X146275059Y-55764773D01*
X146226910Y-55827316D01*
X146226910Y-56265000D01*
X146056123Y-56265000D01*
X146056123Y-55569396D01*
X146207065Y-55569396D01*
X146213232Y-55674909D01*
X146251823Y-55626671D01*
X146299633Y-55589729D01*
X146327108Y-55576155D01*
X146358068Y-55565976D01*
X146391086Y-55559823D01*
X146428410Y-55557672D01*
X146479032Y-55562338D01*
X146521650Y-55575563D01*
X146559040Y-55597739D01*
X146589977Y-55628564D01*
X146613525Y-55666981D01*
X146630949Y-55716613D01*
X146640247Y-55771767D01*
X146642245Y-55839040D01*
X146474877Y-55839040D01*
G37*
G36*
X149283651Y-55583247D02*
G01*
X149318466Y-55589118D01*
X149318466Y-55706172D01*
X149286326Y-55697405D01*
X149252215Y-55694448D01*
X149226421Y-55696901D01*
X149207763Y-55703424D01*
X149192147Y-55714102D01*
X149179125Y-55728520D01*
X149169442Y-55746097D01*
X149162700Y-55768759D01*
X149157937Y-55823042D01*
X149163826Y-55877041D01*
X149178759Y-55911092D01*
X149194765Y-55927065D01*
X149216345Y-55937015D01*
X149245376Y-55940645D01*
X149281219Y-55936065D01*
X149318466Y-55925013D01*
X149318466Y-56044815D01*
X149270655Y-56054829D01*
X149223517Y-56057882D01*
X149174293Y-56053658D01*
X149133696Y-56041823D01*
X149098037Y-56022136D01*
X149069155Y-55995966D01*
X149046759Y-55963480D01*
X149030198Y-55923121D01*
X149020618Y-55878571D01*
X149017254Y-55827377D01*
X149020458Y-55778902D01*
X149029893Y-55733344D01*
X149046231Y-55690947D01*
X149069155Y-55655003D01*
X149099435Y-55625171D01*
X149138825Y-55601331D01*
X149184521Y-55586462D01*
X149241285Y-55581120D01*
X149283651Y-55583247D01*
G37*
G36*
X149241076Y-55362531D02*
G01*
X149292579Y-55374656D01*
X149339959Y-55394518D01*
X149383858Y-55421557D01*
X149423020Y-55454406D01*
X149457807Y-55493436D01*
X149500238Y-55560578D01*
X149532301Y-55640104D01*
X149551630Y-55725985D01*
X149558251Y-55819501D01*
X149551630Y-55913016D01*
X149532301Y-55998897D01*
X149500223Y-56078373D01*
X149457807Y-56145259D01*
X149423057Y-56184090D01*
X149383895Y-56216949D01*
X149339959Y-56244178D01*
X149292563Y-56264213D01*
X149241062Y-56276437D01*
X149184621Y-56280631D01*
X149125281Y-56276634D01*
X149072422Y-56265127D01*
X149025069Y-56246559D01*
X148981203Y-56220780D01*
X148942281Y-56189168D01*
X148907894Y-56151366D01*
X148879123Y-56108946D01*
X148854941Y-56060642D01*
X148835476Y-56005736D01*
X148817267Y-55918727D01*
X148810929Y-55820844D01*
X148811024Y-55819501D01*
X148927067Y-55819501D01*
X148931241Y-55890722D01*
X148943431Y-55956643D01*
X148964258Y-56018159D01*
X148992280Y-56069788D01*
X149028837Y-56113525D01*
X149072575Y-56146725D01*
X149105506Y-56162253D01*
X149142338Y-56171805D01*
X149183888Y-56175118D01*
X149225953Y-56171838D01*
X149263126Y-56162396D01*
X149296240Y-56147091D01*
X149340250Y-56114152D01*
X149376840Y-56070521D01*
X149404914Y-56018884D01*
X149425689Y-55957681D01*
X149437918Y-55892069D01*
X149442114Y-55820844D01*
X149437929Y-55749585D01*
X149425689Y-55683396D01*
X149404877Y-55621569D01*
X149376840Y-55569884D01*
X149340281Y-55526113D01*
X149296240Y-55492643D01*
X149263083Y-55476922D01*
X149225914Y-55467242D01*
X149183888Y-55463883D01*
X149142338Y-55467196D01*
X149105506Y-55476748D01*
X149072575Y-55492276D01*
X149028815Y-55525421D01*
X148992280Y-55568907D01*
X148964278Y-55620235D01*
X148943431Y-55681748D01*
X148931252Y-55747699D01*
X148927067Y-55819501D01*
X148811024Y-55819501D01*
X148817545Y-55727288D01*
X148836880Y-55641142D01*
X148868948Y-55561297D01*
X148911313Y-55494108D01*
X148946122Y-55455049D01*
X148985286Y-55422095D01*
X149029160Y-55394884D01*
X149076600Y-55374815D01*
X149128142Y-55362571D01*
X149184621Y-55358370D01*
X149241076Y-55362531D01*
G37*
G36*
X150664305Y-55588935D02*
G01*
X150822086Y-55588935D01*
X150843946Y-55374002D01*
X150977852Y-55374002D01*
X150955992Y-55588935D01*
X151077564Y-55588935D01*
X151077564Y-55713988D01*
X150943658Y-55713988D01*
X150923874Y-55909382D01*
X151041355Y-55909382D01*
X151041355Y-56034434D01*
X150910868Y-56034434D01*
X150887665Y-56265000D01*
X150753759Y-56265000D01*
X150777695Y-56034434D01*
X150619181Y-56034434D01*
X150595978Y-56265000D01*
X150462072Y-56265000D01*
X150486008Y-56034434D01*
X150365779Y-56034434D01*
X150365779Y-55909382D01*
X150498281Y-55909382D01*
X150632187Y-55909382D01*
X150789968Y-55909382D01*
X150809813Y-55713988D01*
X150651971Y-55713988D01*
X150632187Y-55909382D01*
X150498281Y-55909382D01*
X150518126Y-55713988D01*
X150401988Y-55713988D01*
X150401988Y-55588935D01*
X150530399Y-55588935D01*
X150552259Y-55374002D01*
X150686165Y-55374002D01*
X150664305Y-55588935D01*
G37*
G36*
X151792463Y-56225921D02*
G01*
X151733059Y-56248682D01*
X151677363Y-56264206D01*
X151620936Y-56273555D01*
X151561592Y-56276723D01*
X151497818Y-56273351D01*
X151441299Y-56263706D01*
X151391111Y-56248330D01*
X151343844Y-56226086D01*
X151302363Y-56198001D01*
X151266058Y-56163883D01*
X151235490Y-56124447D01*
X151209725Y-56078379D01*
X151188878Y-56024787D01*
X151174754Y-55968791D01*
X151165784Y-55904755D01*
X151162622Y-55831591D01*
X151166036Y-55756714D01*
X151175799Y-55690131D01*
X151191320Y-55630884D01*
X151213775Y-55574080D01*
X151241129Y-55524910D01*
X151273264Y-55482506D01*
X151311267Y-55445387D01*
X151354239Y-55414703D01*
X151402712Y-55390183D01*
X151454411Y-55372816D01*
X151511200Y-55362080D01*
X151573866Y-55358370D01*
X151631568Y-55359713D01*
X151684508Y-55364720D01*
X151737081Y-55374307D01*
X151792463Y-55389633D01*
X151792463Y-55557672D01*
X151734503Y-55533709D01*
X151681760Y-55518532D01*
X151630165Y-55509617D01*
X151586139Y-55506870D01*
X151525669Y-55512929D01*
X151477512Y-55529767D01*
X151436445Y-55557217D01*
X151403384Y-55593881D01*
X151378610Y-55638169D01*
X151360703Y-55692128D01*
X151350623Y-55750697D01*
X151347086Y-55817302D01*
X151350774Y-55887519D01*
X151361069Y-55946568D01*
X151379421Y-56000241D01*
X151404483Y-56043105D01*
X151437854Y-56077913D01*
X151479588Y-56103494D01*
X151528113Y-56118812D01*
X151588215Y-56124316D01*
X151637063Y-56119797D01*
X151690308Y-56107829D01*
X151743614Y-56090305D01*
X151792463Y-56069605D01*
X151792463Y-56225921D01*
G37*
G36*
X152417236Y-55839040D02*
G01*
X152416873Y-55802760D01*
X152413450Y-55774987D01*
X152406538Y-55750111D01*
X152397086Y-55731390D01*
X152384302Y-55716352D01*
X152369364Y-55706294D01*
X152352159Y-55700415D01*
X152331873Y-55698356D01*
X152295789Y-55705310D01*
X152255669Y-55728398D01*
X152217417Y-55764773D01*
X152169269Y-55827316D01*
X152169269Y-56265000D01*
X151998482Y-56265000D01*
X151998482Y-55569396D01*
X152149424Y-55569396D01*
X152155591Y-55674909D01*
X152194181Y-55626671D01*
X152241992Y-55589729D01*
X152269467Y-55576155D01*
X152300427Y-55565976D01*
X152333445Y-55559823D01*
X152370769Y-55557672D01*
X152421390Y-55562338D01*
X152464009Y-55575563D01*
X152501398Y-55597739D01*
X152532336Y-55628564D01*
X152555884Y-55666981D01*
X152573307Y-55716613D01*
X152582605Y-55771767D01*
X152584603Y-55839040D01*
X152417236Y-55839040D01*
G37*
G36*
X152904623Y-55569396D02*
G01*
X152904623Y-56021367D01*
X152910579Y-56073678D01*
X152925811Y-56107035D01*
X152941913Y-56122843D01*
X152962788Y-56132550D01*
X152989986Y-56136039D01*
X153016575Y-56132454D01*
X153043096Y-56121370D01*
X153070280Y-56101601D01*
X153108146Y-56063132D01*
X153151919Y-56008361D01*
X153151919Y-55569396D01*
X153318614Y-55569396D01*
X153318614Y-56265000D01*
X153174450Y-56265000D01*
X153170359Y-56162295D01*
X153125968Y-56210900D01*
X153077119Y-56248147D01*
X153049805Y-56261744D01*
X153019722Y-56272083D01*
X152987684Y-56278411D01*
X152951090Y-56280631D01*
X152899990Y-56276043D01*
X152857850Y-56263168D01*
X152821059Y-56241899D01*
X152791233Y-56213525D01*
X152768216Y-56178721D01*
X152751299Y-56136528D01*
X152741461Y-56090133D01*
X152737988Y-56036266D01*
X152737988Y-55569396D01*
X152904623Y-55569396D01*
G37*
G36*
X154080652Y-56257184D02*
G01*
X153989794Y-56274220D01*
X153903026Y-56280631D01*
X153837232Y-56276757D01*
X153785179Y-56266221D01*
X153739092Y-56247595D01*
X153703175Y-56222318D01*
X153675288Y-56189231D01*
X153655364Y-56147213D01*
X153644144Y-56099143D01*
X153640038Y-56038525D01*
X153640038Y-55698356D01*
X153453558Y-55698356D01*
X153453558Y-55569396D01*
X153640038Y-55569396D01*
X153640038Y-55391221D01*
X153810825Y-55346646D01*
X153810825Y-55569396D01*
X154080652Y-55569396D01*
X154080652Y-55698356D01*
X153810825Y-55698356D01*
X153810825Y-56026802D01*
X153814306Y-56065776D01*
X153823707Y-56095162D01*
X153838119Y-56117172D01*
X153858538Y-56133152D01*
X153887996Y-56143745D01*
X153929710Y-56147763D01*
X154009577Y-56140680D01*
X154080652Y-56124316D01*
X154080652Y-56257184D01*
G37*
G36*
X154838599Y-56237644D02*
G01*
X154788628Y-56254955D01*
X154736810Y-56267137D01*
X154683513Y-56274284D01*
X154626840Y-56276723D01*
X154546795Y-56270853D01*
X154478585Y-56254253D01*
X154417374Y-56225986D01*
X154367210Y-56187513D01*
X154327243Y-56138578D01*
X154297234Y-56077848D01*
X154279377Y-56009339D01*
X154272993Y-55926662D01*
X154279785Y-55846189D01*
X154299249Y-55776147D01*
X154331260Y-55713141D01*
X154373377Y-55661048D01*
X154425638Y-55619097D01*
X154488476Y-55587470D01*
X154558341Y-55568274D01*
X154638442Y-55561580D01*
X154703431Y-55563710D01*
X154752198Y-55569335D01*
X154835179Y-55588935D01*
X154835179Y-55749159D01*
X154791441Y-55731109D01*
X154743283Y-55717407D01*
X154694248Y-55708886D01*
X154649371Y-55706172D01*
X154604533Y-55710225D01*
X154566024Y-55721803D01*
X154531806Y-55740608D01*
X154503864Y-55765218D01*
X154481834Y-55795528D01*
X154465273Y-55832690D01*
X154455394Y-55873644D01*
X154451962Y-55919823D01*
X154455701Y-55967737D01*
X154466311Y-56008728D01*
X154483878Y-56045485D01*
X154506917Y-56075528D01*
X154535710Y-56099629D01*
X154570115Y-56117538D01*
X154608448Y-56128368D01*
X154652119Y-56132131D01*
X154698220Y-56128956D01*
X154746702Y-56119797D01*
X154794513Y-56106058D01*
X154838599Y-56089145D01*
X154838599Y-56237644D01*
G37*
G36*
X155459952Y-56265000D02*
G01*
X155459952Y-55815654D01*
X155455620Y-55770164D01*
X155444384Y-55739267D01*
X155427721Y-55718905D01*
X155405339Y-55706663D01*
X155375261Y-55702264D01*
X155348204Y-55705827D01*
X155321452Y-55716785D01*
X155294295Y-55736214D01*
X155256446Y-55774180D01*
X155212657Y-55828538D01*
X155212657Y-56265000D01*
X155045961Y-56265000D01*
X155045961Y-55299752D01*
X155212657Y-55299752D01*
X155212657Y-55538438D01*
X155204474Y-55664651D01*
X155247461Y-55619344D01*
X155294600Y-55585638D01*
X155349249Y-55564816D01*
X155379492Y-55559533D01*
X155414157Y-55557672D01*
X155465257Y-55562257D01*
X155507030Y-55575075D01*
X155543586Y-55596135D01*
X155573281Y-55624106D01*
X155596332Y-55658482D01*
X155613276Y-55700432D01*
X155623115Y-55746638D01*
X155626587Y-55800266D01*
X155626587Y-56265000D01*
X155459952Y-56265000D01*
G37*
G36*
X156187146Y-55563640D02*
G01*
X156246536Y-55580448D01*
X156299157Y-55608076D01*
X156341486Y-55644012D01*
X156374906Y-55688323D01*
X156399555Y-55741282D01*
X156414293Y-55799521D01*
X156419399Y-55864991D01*
X156418361Y-55909199D01*
X156415308Y-55960184D01*
X155959002Y-55960184D01*
X155962674Y-56004317D01*
X155972984Y-56040968D01*
X155990103Y-56073349D01*
X156012613Y-56099525D01*
X156040490Y-56120099D01*
X156074101Y-56135429D01*
X156111207Y-56144569D01*
X156153663Y-56147763D01*
X156205001Y-56145778D01*
X156261924Y-56139520D01*
X156319972Y-56128849D01*
X156381847Y-56112592D01*
X156381847Y-56245460D01*
X156323778Y-56259565D01*
X156259542Y-56270739D01*
X156193292Y-56278128D01*
X156128384Y-56280631D01*
X156051700Y-56274768D01*
X155986296Y-56258161D01*
X155927757Y-56229983D01*
X155879745Y-56191727D01*
X155841568Y-56143266D01*
X155812761Y-56083039D01*
X155795680Y-56015243D01*
X155789558Y-55933135D01*
X155795574Y-55851061D01*
X155798461Y-55839040D01*
X155961688Y-55839040D01*
X156250017Y-55839040D01*
X156247630Y-55800649D01*
X156239759Y-55769553D01*
X156226565Y-55742037D01*
X156210022Y-55720643D01*
X156189694Y-55703835D01*
X156166303Y-55692067D01*
X156140690Y-55685103D01*
X156112691Y-55682725D01*
X156072480Y-55687468D01*
X156038565Y-55701085D01*
X156009499Y-55723635D01*
X155987089Y-55753214D01*
X155970963Y-55791007D01*
X155961688Y-55839040D01*
X155798461Y-55839040D01*
X155812761Y-55779506D01*
X155841254Y-55714430D01*
X155878340Y-55660926D01*
X155925131Y-55617223D01*
X155981167Y-55584600D01*
X156044143Y-55564602D01*
X156116111Y-55557672D01*
X156187146Y-55563640D01*
G37*
G36*
X157164340Y-56265000D02*
G01*
X157020237Y-56265000D01*
X157016146Y-56162540D01*
X156971022Y-56211022D01*
X156921135Y-56248208D01*
X156893656Y-56261832D01*
X156864105Y-56272083D01*
X156832788Y-56278409D01*
X156796877Y-56280631D01*
X156737890Y-56274274D01*
X156687517Y-56256024D01*
X156643722Y-56226325D01*
X156607222Y-56185926D01*
X156579208Y-56136847D01*
X156557702Y-56075467D01*
X156545116Y-56008304D01*
X156540666Y-55930448D01*
X156541058Y-55922815D01*
X156715544Y-55922815D01*
X156717669Y-55977782D01*
X156723360Y-56020268D01*
X156733594Y-56058348D01*
X156746624Y-56086458D01*
X156764191Y-56109196D01*
X156784542Y-56124193D01*
X156808235Y-56132989D01*
X156835772Y-56136039D01*
X156862818Y-56132469D01*
X156889447Y-56121505D01*
X156916372Y-56102090D01*
X156953933Y-56064031D01*
X156997705Y-56009033D01*
X156997705Y-55707515D01*
X156948857Y-55695303D01*
X156890422Y-55690540D01*
X156851665Y-55694730D01*
X156818004Y-55706844D01*
X156788342Y-55726424D01*
X156762988Y-55753066D01*
X156743167Y-55785432D01*
X156727817Y-55826034D01*
X156718755Y-55870675D01*
X156715544Y-55922815D01*
X156541058Y-55922815D01*
X156543927Y-55866985D01*
X156553147Y-55812089D01*
X156567655Y-55764607D01*
X156600420Y-55699563D01*
X156642454Y-55648286D01*
X156694423Y-55608280D01*
X156755844Y-55579898D01*
X156823380Y-55563379D01*
X156898665Y-55557672D01*
X156950872Y-55561092D01*
X156997705Y-55569945D01*
X156997705Y-55299752D01*
X157164340Y-55299752D01*
X157164340Y-56265000D01*
G37*
G36*
X157257641Y-56546367D02*
G01*
X157257641Y-56413499D01*
X158026823Y-56413499D01*
X158026823Y-56546367D01*
X157257641Y-56546367D01*
G37*
G36*
X158548644Y-55564016D02*
G01*
X158598961Y-55582219D01*
X158642746Y-55611753D01*
X158679195Y-55652011D01*
X158707261Y-55700809D01*
X158728715Y-55761615D01*
X158741330Y-55828231D01*
X158745812Y-55906329D01*
X158742548Y-55969506D01*
X158733325Y-56024050D01*
X158718824Y-56071132D01*
X158686018Y-56135492D01*
X158643658Y-56186536D01*
X158591453Y-56226350D01*
X158529963Y-56254619D01*
X158462440Y-56271048D01*
X158387203Y-56276723D01*
X158335301Y-56273304D01*
X158288162Y-56264450D01*
X158288162Y-56534644D01*
X158121467Y-56534644D01*
X158121467Y-55827683D01*
X158288162Y-55827683D01*
X158288162Y-56127002D01*
X158336950Y-56139153D01*
X158396057Y-56143855D01*
X158434280Y-56139720D01*
X158468108Y-56127674D01*
X158498075Y-56108207D01*
X158523429Y-56081817D01*
X158543290Y-56049641D01*
X158558600Y-56009338D01*
X158567710Y-55965012D01*
X158570935Y-55913290D01*
X158568705Y-55858736D01*
X158562752Y-55816875D01*
X158552295Y-55779350D01*
X158539183Y-55751479D01*
X158521676Y-55728893D01*
X158501570Y-55714049D01*
X158478194Y-55705309D01*
X158450706Y-55702264D01*
X158423674Y-55705803D01*
X158396941Y-55716686D01*
X158369801Y-55735969D01*
X158331947Y-55773680D01*
X158288162Y-55827683D01*
X158121467Y-55827683D01*
X158121467Y-55569396D01*
X158265631Y-55569396D01*
X158269722Y-55672100D01*
X158313747Y-55624900D01*
X158363267Y-55588630D01*
X158390836Y-55575429D01*
X158420664Y-55565671D01*
X158452488Y-55559767D01*
X158489663Y-55557672D01*
X158548644Y-55564016D01*
G37*
G36*
X159337124Y-55839040D02*
G01*
X159336762Y-55802760D01*
X159333339Y-55774987D01*
X159326426Y-55750111D01*
X159316974Y-55731390D01*
X159304191Y-55716352D01*
X159289253Y-55706294D01*
X159272047Y-55700415D01*
X159251762Y-55698356D01*
X159215677Y-55705310D01*
X159175558Y-55728398D01*
X159137306Y-55764773D01*
X159089157Y-55827316D01*
X159089157Y-56265000D01*
X158918370Y-56265000D01*
X158918370Y-55569396D01*
X159069312Y-55569396D01*
X159075479Y-55674909D01*
X159114070Y-55626671D01*
X159161880Y-55589729D01*
X159189355Y-55576155D01*
X159220315Y-55565976D01*
X159253333Y-55559823D01*
X159290657Y-55557672D01*
X159341279Y-55562338D01*
X159383897Y-55575563D01*
X159421287Y-55597739D01*
X159452224Y-55628564D01*
X159475772Y-55666981D01*
X159493196Y-55716613D01*
X159502494Y-55771767D01*
X159504492Y-55839040D01*
X159337124Y-55839040D01*
G37*
G36*
X160030901Y-55563644D02*
G01*
X160094399Y-55580509D01*
X160150908Y-55609096D01*
X160197531Y-55648347D01*
X160234352Y-55697798D01*
X160262072Y-55759722D01*
X160278426Y-55829196D01*
X160284298Y-55913351D01*
X160278292Y-55992844D01*
X160261034Y-56062950D01*
X160232317Y-56126554D01*
X160194112Y-56179148D01*
X160145792Y-56221806D01*
X160086828Y-56254070D01*
X160020383Y-56273712D01*
X159942053Y-56280631D01*
X159867454Y-56274765D01*
X159804056Y-56258161D01*
X159747566Y-56229904D01*
X159700924Y-56191055D01*
X159664074Y-56141770D01*
X159636017Y-56079314D01*
X159619458Y-56008942D01*
X159613485Y-55922876D01*
X159613797Y-55918785D01*
X159786959Y-55918785D01*
X159792633Y-55989654D01*
X159807810Y-56042471D01*
X159830678Y-56081390D01*
X159863158Y-56111593D01*
X159902303Y-56129700D01*
X159950235Y-56136039D01*
X159989944Y-56131702D01*
X160022592Y-56119431D01*
X160050438Y-56099567D01*
X160072479Y-56073269D01*
X160088959Y-56041767D01*
X160101177Y-56003660D01*
X160108298Y-55962689D01*
X160110764Y-55917442D01*
X160105439Y-55846814D01*
X160091266Y-55794483D01*
X160070097Y-55756242D01*
X160039450Y-55726741D01*
X160000393Y-55708709D01*
X159950235Y-55702264D01*
X159908724Y-55706746D01*
X159875741Y-55719239D01*
X159847789Y-55739318D01*
X159825183Y-55765767D01*
X159808274Y-55797179D01*
X159796179Y-55834644D01*
X159789322Y-55874845D01*
X159786959Y-55918785D01*
X159613797Y-55918785D01*
X159619590Y-55842863D01*
X159637055Y-55773033D01*
X159666138Y-55709827D01*
X159704649Y-55657873D01*
X159753225Y-55615762D01*
X159812238Y-55583928D01*
X159878553Y-55564484D01*
X159955730Y-55557672D01*
X160030901Y-55563644D01*
G37*
G36*
X160765884Y-55560298D02*
G01*
X160817480Y-55569396D01*
X161057937Y-55569396D01*
X161057937Y-55690540D01*
X160948639Y-55690540D01*
X160965107Y-55715906D01*
X160975628Y-55741892D01*
X160981536Y-55769038D01*
X160983504Y-55796725D01*
X160978244Y-55852495D01*
X160963354Y-55899185D01*
X160938998Y-55940134D01*
X160906629Y-55973679D01*
X160867146Y-55999726D01*
X160819190Y-56019108D01*
X160766644Y-56030462D01*
X160706777Y-56034434D01*
X160671351Y-56032586D01*
X160639794Y-56027290D01*
X160611202Y-56018889D01*
X160593387Y-56010498D01*
X160573604Y-56035961D01*
X160567514Y-56050588D01*
X160565422Y-56067468D01*
X160570856Y-56089145D01*
X160586915Y-56108501D01*
X160612194Y-56122362D01*
X160645350Y-56128468D01*
X160809970Y-56134635D01*
X160863761Y-56139005D01*
X160910048Y-56148679D01*
X160952403Y-56164275D01*
X160986863Y-56184460D01*
X161015479Y-56210277D01*
X161036383Y-56240636D01*
X161049346Y-56275402D01*
X161053846Y-56315924D01*
X161048376Y-56362947D01*
X161031987Y-56407210D01*
X161005055Y-56446762D01*
X160966041Y-56481765D01*
X160918219Y-56509396D01*
X160856437Y-56531835D01*
X160787956Y-56545370D01*
X160704091Y-56550275D01*
X160623040Y-56546690D01*
X160559560Y-56537025D01*
X160502566Y-56520374D01*
X160460519Y-56499961D01*
X160426317Y-56473254D01*
X160403489Y-56443236D01*
X160389707Y-56408897D01*
X160385048Y-56370940D01*
X160387140Y-56355797D01*
X160555835Y-56355797D01*
X160560258Y-56379687D01*
X160573245Y-56398766D01*
X160596441Y-56414232D01*
X160641633Y-56427692D01*
X160710929Y-56433039D01*
X160756169Y-56430655D01*
X160790491Y-56424307D01*
X160821012Y-56413778D01*
X160843431Y-56401470D01*
X160861364Y-56385816D01*
X160872801Y-56368558D01*
X160879505Y-56349339D01*
X160881716Y-56329602D01*
X160879479Y-56312533D01*
X160873168Y-56299010D01*
X160849232Y-56278189D01*
X160813023Y-56265427D01*
X160766922Y-56259748D01*
X160620071Y-56257001D01*
X160587587Y-56282524D01*
X160567742Y-56306338D01*
X160558217Y-56330212D01*
X160555835Y-56355797D01*
X160387140Y-56355797D01*
X160391154Y-56326732D01*
X160409595Y-56287714D01*
X160440369Y-56251383D01*
X160484089Y-56216029D01*
X160454314Y-56193866D01*
X160433225Y-56166875D01*
X160420155Y-56135743D01*
X160415823Y-56102700D01*
X160421929Y-56059286D01*
X160437988Y-56020757D01*
X160460886Y-55985219D01*
X160488241Y-55951758D01*
X160465347Y-55924219D01*
X160446170Y-55890636D01*
X160433966Y-55852063D01*
X160429493Y-55801427D01*
X160583862Y-55801427D01*
X160587743Y-55836810D01*
X160598652Y-55865434D01*
X160616285Y-55888804D01*
X160639820Y-55906237D01*
X160669421Y-55917171D01*
X160706838Y-55921106D01*
X160736284Y-55918424D01*
X160760450Y-55910908D01*
X160781612Y-55898849D01*
X160798368Y-55883736D01*
X160811457Y-55865452D01*
X160820900Y-55844291D01*
X160828410Y-55797336D01*
X160824458Y-55760102D01*
X160813469Y-55730642D01*
X160795926Y-55707210D01*
X160772428Y-55689780D01*
X160742850Y-55678845D01*
X160705434Y-55674909D01*
X160675988Y-55677591D01*
X160651823Y-55685106D01*
X160630688Y-55697239D01*
X160613904Y-55712644D01*
X160600841Y-55731291D01*
X160591372Y-55753128D01*
X160583862Y-55801427D01*
X160429493Y-55801427D01*
X160429439Y-55800816D01*
X160434843Y-55744950D01*
X160450261Y-55697379D01*
X160475223Y-55655372D01*
X160507964Y-55620870D01*
X160547849Y-55593834D01*
X160595769Y-55573731D01*
X160648175Y-55561805D01*
X160706777Y-55557672D01*
X160765884Y-55560298D01*
G37*
G36*
X161643754Y-55839040D02*
G01*
X161643391Y-55802760D01*
X161639968Y-55774987D01*
X161633056Y-55750111D01*
X161623604Y-55731390D01*
X161610820Y-55716352D01*
X161595882Y-55706294D01*
X161578676Y-55700415D01*
X161558391Y-55698356D01*
X161522306Y-55705310D01*
X161482187Y-55728398D01*
X161443935Y-55764773D01*
X161395786Y-55827316D01*
X161395786Y-56265000D01*
X161225000Y-56265000D01*
X161225000Y-55569396D01*
X161375942Y-55569396D01*
X161382109Y-55674909D01*
X161420699Y-55626671D01*
X161468510Y-55589729D01*
X161495985Y-55576155D01*
X161526945Y-55565976D01*
X161559963Y-55559823D01*
X161597287Y-55557672D01*
X161647908Y-55562338D01*
X161690526Y-55575563D01*
X161727916Y-55597739D01*
X161758853Y-55628564D01*
X161782402Y-55666981D01*
X161799825Y-55716613D01*
X161809123Y-55771767D01*
X161811121Y-55839040D01*
X161643754Y-55839040D01*
G37*
G36*
X162324350Y-55561631D02*
G01*
X162382527Y-55572327D01*
X162434250Y-55591240D01*
X162473752Y-55616290D01*
X162504883Y-55649186D01*
X162526692Y-55689563D01*
X162539274Y-55735722D01*
X162543789Y-55792084D01*
X162543789Y-56265000D01*
X162400968Y-56265000D01*
X162396877Y-56174691D01*
X162351081Y-56217128D01*
X162298508Y-56250772D01*
X162268835Y-56263288D01*
X162235982Y-56272815D01*
X162201284Y-56278601D01*
X162161854Y-56280631D01*
X162110607Y-56276529D01*
X162068309Y-56265061D01*
X162030819Y-56246163D01*
X162000654Y-56221707D01*
X161976845Y-56191335D01*
X161959316Y-56154663D01*
X161948940Y-56113997D01*
X161945333Y-56067896D01*
X161945947Y-56062400D01*
X162120211Y-56062400D01*
X162123481Y-56088861D01*
X162132624Y-56109570D01*
X162147505Y-56125903D01*
X162178375Y-56141868D01*
X162221999Y-56147763D01*
X162256350Y-56141951D01*
X162294417Y-56122911D01*
X162331930Y-56094310D01*
X162377093Y-56051592D01*
X162377093Y-55960184D01*
X162275305Y-55960184D01*
X162234618Y-55962379D01*
X162203558Y-55968244D01*
X162176092Y-55978220D01*
X162155748Y-55990471D01*
X162139563Y-56005939D01*
X162128759Y-56023077D01*
X162122362Y-56042063D01*
X162120211Y-56062400D01*
X161945947Y-56062400D01*
X161950605Y-56020680D01*
X161966154Y-55977770D01*
X161991980Y-55939835D01*
X162029658Y-55906634D01*
X162076062Y-55880773D01*
X162136270Y-55859923D01*
X162203098Y-55847492D01*
X162286235Y-55842948D01*
X162377093Y-55842948D01*
X162377093Y-55800633D01*
X162375141Y-55774400D01*
X162369583Y-55751723D01*
X162359734Y-55731477D01*
X162345341Y-55714659D01*
X162326698Y-55701449D01*
X162301927Y-55691090D01*
X162273659Y-55685004D01*
X162236348Y-55682725D01*
X162175288Y-55686327D01*
X162115081Y-55697135D01*
X162056276Y-55714375D01*
X161999310Y-55737435D01*
X161999310Y-55604567D01*
X162051424Y-55586505D01*
X162114410Y-55570983D01*
X162180504Y-55561044D01*
X162250026Y-55557672D01*
X162324350Y-55561631D01*
G37*
G36*
X163224555Y-56265000D02*
G01*
X163224555Y-55793977D01*
X163223150Y-55748731D01*
X163217716Y-55716430D01*
X163205748Y-55697013D01*
X163196882Y-55692287D01*
X163184255Y-55690540D01*
X163164691Y-55696722D01*
X163142550Y-55719117D01*
X163122838Y-55753269D01*
X163096083Y-55816448D01*
X163096083Y-56265000D01*
X162953323Y-56265000D01*
X162953323Y-55793977D01*
X162951919Y-55748731D01*
X162946484Y-55716430D01*
X162934211Y-55697013D01*
X162925036Y-55692274D01*
X162912351Y-55690540D01*
X162895481Y-55696360D01*
X162872723Y-55719117D01*
X162851892Y-55753346D01*
X162824241Y-55816448D01*
X162824241Y-56265000D01*
X162680076Y-56265000D01*
X162680076Y-55569396D01*
X162803724Y-55569396D01*
X162806472Y-55670696D01*
X162836514Y-55618916D01*
X162868632Y-55583562D01*
X162886481Y-55571608D01*
X162905146Y-55563717D01*
X162949232Y-55557672D01*
X162986803Y-55561413D01*
X163015623Y-55571644D01*
X163037709Y-55587653D01*
X163054573Y-55609344D01*
X163066182Y-55636560D01*
X163072208Y-55670696D01*
X163104631Y-55618916D01*
X163138093Y-55583562D01*
X163156357Y-55571633D01*
X163175706Y-55563717D01*
X163220403Y-55557672D01*
X163268187Y-55564024D01*
X163304596Y-55581697D01*
X163332449Y-55610612D01*
X163351226Y-55647762D01*
X163363888Y-55698654D01*
X163368658Y-55767294D01*
X163368658Y-56265000D01*
X163224555Y-56265000D01*
G37*
G36*
X163993431Y-56265000D02*
G01*
X163993431Y-55793977D01*
X163992027Y-55748731D01*
X163986592Y-55716430D01*
X163974624Y-55697013D01*
X163965758Y-55692287D01*
X163953131Y-55690540D01*
X163933567Y-55696722D01*
X163911427Y-55719117D01*
X163891715Y-55753269D01*
X163864959Y-55816448D01*
X163864959Y-56265000D01*
X163722199Y-56265000D01*
X163722199Y-55793977D01*
X163720795Y-55748731D01*
X163715361Y-55716430D01*
X163703087Y-55697013D01*
X163693913Y-55692274D01*
X163681228Y-55690540D01*
X163664358Y-55696360D01*
X163641599Y-55719117D01*
X163620769Y-55753346D01*
X163593117Y-55816448D01*
X163593117Y-56265000D01*
X163448953Y-56265000D01*
X163448953Y-55569396D01*
X163572601Y-55569396D01*
X163575348Y-55670696D01*
X163605390Y-55618916D01*
X163637508Y-55583562D01*
X163655357Y-55571608D01*
X163674023Y-55563717D01*
X163718108Y-55557672D01*
X163755679Y-55561413D01*
X163784500Y-55571644D01*
X163806585Y-55587653D01*
X163823449Y-55609344D01*
X163835058Y-55636560D01*
X163841085Y-55670696D01*
X163873508Y-55618916D01*
X163906969Y-55583562D01*
X163925233Y-55571633D01*
X163944583Y-55563717D01*
X163989279Y-55557672D01*
X164037064Y-55564024D01*
X164073472Y-55581697D01*
X164101325Y-55610612D01*
X164120102Y-55647762D01*
X164132765Y-55698654D01*
X164137534Y-55767294D01*
X164137534Y-56265000D01*
X163993431Y-56265000D01*
G37*
G36*
X164644788Y-55563640D02*
G01*
X164704178Y-55580448D01*
X164756798Y-55608076D01*
X164799127Y-55644012D01*
X164832547Y-55688323D01*
X164857196Y-55741282D01*
X164871934Y-55799521D01*
X164877041Y-55864991D01*
X164876003Y-55909199D01*
X164872950Y-55960184D01*
X164416643Y-55960184D01*
X164420316Y-56004317D01*
X164430626Y-56040968D01*
X164447744Y-56073349D01*
X164470254Y-56099525D01*
X164498131Y-56120099D01*
X164531742Y-56135429D01*
X164568849Y-56144569D01*
X164611304Y-56147763D01*
X164662642Y-56145778D01*
X164719565Y-56139520D01*
X164777614Y-56128849D01*
X164839488Y-56112592D01*
X164839488Y-56245460D01*
X164781420Y-56259565D01*
X164717184Y-56270739D01*
X164650933Y-56278128D01*
X164586025Y-56280631D01*
X164509341Y-56274768D01*
X164443937Y-56258161D01*
X164385398Y-56229983D01*
X164337386Y-56191727D01*
X164299209Y-56143266D01*
X164270403Y-56083039D01*
X164253321Y-56015243D01*
X164247199Y-55933135D01*
X164253216Y-55851061D01*
X164256103Y-55839040D01*
X164419330Y-55839040D01*
X164707658Y-55839040D01*
X164705271Y-55800649D01*
X164697400Y-55769553D01*
X164684207Y-55742037D01*
X164667663Y-55720643D01*
X164647335Y-55703835D01*
X164623944Y-55692067D01*
X164598332Y-55685103D01*
X164570333Y-55682725D01*
X164530121Y-55687468D01*
X164496206Y-55701085D01*
X164467140Y-55723635D01*
X164444731Y-55753214D01*
X164428604Y-55791007D01*
X164419330Y-55839040D01*
X164256103Y-55839040D01*
X164270403Y-55779506D01*
X164298896Y-55714430D01*
X164335982Y-55660926D01*
X164382772Y-55617223D01*
X164438808Y-55584600D01*
X164501784Y-55564602D01*
X164573752Y-55557672D01*
X164644788Y-55563640D01*
G37*
G36*
X165488136Y-55839040D02*
G01*
X165487773Y-55802760D01*
X165484351Y-55774987D01*
X165477438Y-55750111D01*
X165467986Y-55731390D01*
X165455203Y-55716352D01*
X165440265Y-55706294D01*
X165423059Y-55700415D01*
X165402773Y-55698356D01*
X165366689Y-55705310D01*
X165326570Y-55728398D01*
X165288317Y-55764773D01*
X165240169Y-55827316D01*
X165240169Y-56265000D01*
X165069382Y-56265000D01*
X165069382Y-55569396D01*
X165220324Y-55569396D01*
X165226491Y-55674909D01*
X165265081Y-55626671D01*
X165312892Y-55589729D01*
X165340367Y-55576155D01*
X165371327Y-55565976D01*
X165404345Y-55559823D01*
X165441669Y-55557672D01*
X165492291Y-55562338D01*
X165534909Y-55575563D01*
X165572298Y-55597739D01*
X165603236Y-55628564D01*
X165626784Y-55666981D01*
X165644207Y-55716613D01*
X165653506Y-55771767D01*
X165655504Y-55839040D01*
X165488136Y-55839040D01*
G37*
D11*
X200076666Y-46954819D02*
X200076666Y-47669104D01*
X200076666Y-47669104D02*
X200029047Y-47811961D01*
X200029047Y-47811961D02*
X199933809Y-47907200D01*
X199933809Y-47907200D02*
X199790952Y-47954819D01*
X199790952Y-47954819D02*
X199695714Y-47954819D01*
X200457619Y-46954819D02*
X201124285Y-46954819D01*
X201124285Y-46954819D02*
X200695714Y-47954819D01*
X99935714Y-72274819D02*
X99935714Y-71274819D01*
X99935714Y-71274819D02*
X100173809Y-71274819D01*
X100173809Y-71274819D02*
X100316666Y-71322438D01*
X100316666Y-71322438D02*
X100411904Y-71417676D01*
X100411904Y-71417676D02*
X100459523Y-71512914D01*
X100459523Y-71512914D02*
X100507142Y-71703390D01*
X100507142Y-71703390D02*
X100507142Y-71846247D01*
X100507142Y-71846247D02*
X100459523Y-72036723D01*
X100459523Y-72036723D02*
X100411904Y-72131961D01*
X100411904Y-72131961D02*
X100316666Y-72227200D01*
X100316666Y-72227200D02*
X100173809Y-72274819D01*
X100173809Y-72274819D02*
X99935714Y-72274819D01*
X101459523Y-72274819D02*
X100888095Y-72274819D01*
X101173809Y-72274819D02*
X101173809Y-71274819D01*
X101173809Y-71274819D02*
X101078571Y-71417676D01*
X101078571Y-71417676D02*
X100983333Y-71512914D01*
X100983333Y-71512914D02*
X100888095Y-71560533D01*
X102316666Y-71274819D02*
X102126190Y-71274819D01*
X102126190Y-71274819D02*
X102030952Y-71322438D01*
X102030952Y-71322438D02*
X101983333Y-71370057D01*
X101983333Y-71370057D02*
X101888095Y-71512914D01*
X101888095Y-71512914D02*
X101840476Y-71703390D01*
X101840476Y-71703390D02*
X101840476Y-72084342D01*
X101840476Y-72084342D02*
X101888095Y-72179580D01*
X101888095Y-72179580D02*
X101935714Y-72227200D01*
X101935714Y-72227200D02*
X102030952Y-72274819D01*
X102030952Y-72274819D02*
X102221428Y-72274819D01*
X102221428Y-72274819D02*
X102316666Y-72227200D01*
X102316666Y-72227200D02*
X102364285Y-72179580D01*
X102364285Y-72179580D02*
X102411904Y-72084342D01*
X102411904Y-72084342D02*
X102411904Y-71846247D01*
X102411904Y-71846247D02*
X102364285Y-71751009D01*
X102364285Y-71751009D02*
X102316666Y-71703390D01*
X102316666Y-71703390D02*
X102221428Y-71655771D01*
X102221428Y-71655771D02*
X102030952Y-71655771D01*
X102030952Y-71655771D02*
X101935714Y-71703390D01*
X101935714Y-71703390D02*
X101888095Y-71751009D01*
X101888095Y-71751009D02*
X101840476Y-71846247D01*
X184201009Y-87560952D02*
X184248628Y-87418095D01*
X184248628Y-87418095D02*
X184296247Y-87370476D01*
X184296247Y-87370476D02*
X184391485Y-87322857D01*
X184391485Y-87322857D02*
X184534342Y-87322857D01*
X184534342Y-87322857D02*
X184629580Y-87370476D01*
X184629580Y-87370476D02*
X184677200Y-87418095D01*
X184677200Y-87418095D02*
X184724819Y-87513333D01*
X184724819Y-87513333D02*
X184724819Y-87894285D01*
X184724819Y-87894285D02*
X183724819Y-87894285D01*
X183724819Y-87894285D02*
X183724819Y-87560952D01*
X183724819Y-87560952D02*
X183772438Y-87465714D01*
X183772438Y-87465714D02*
X183820057Y-87418095D01*
X183820057Y-87418095D02*
X183915295Y-87370476D01*
X183915295Y-87370476D02*
X184010533Y-87370476D01*
X184010533Y-87370476D02*
X184105771Y-87418095D01*
X184105771Y-87418095D02*
X184153390Y-87465714D01*
X184153390Y-87465714D02*
X184201009Y-87560952D01*
X184201009Y-87560952D02*
X184201009Y-87894285D01*
X183724819Y-86989523D02*
X183724819Y-86322857D01*
X183724819Y-86322857D02*
X184724819Y-86989523D01*
X184724819Y-86989523D02*
X184724819Y-86322857D01*
X183724819Y-85751428D02*
X183724819Y-85656190D01*
X183724819Y-85656190D02*
X183772438Y-85560952D01*
X183772438Y-85560952D02*
X183820057Y-85513333D01*
X183820057Y-85513333D02*
X183915295Y-85465714D01*
X183915295Y-85465714D02*
X184105771Y-85418095D01*
X184105771Y-85418095D02*
X184343866Y-85418095D01*
X184343866Y-85418095D02*
X184534342Y-85465714D01*
X184534342Y-85465714D02*
X184629580Y-85513333D01*
X184629580Y-85513333D02*
X184677200Y-85560952D01*
X184677200Y-85560952D02*
X184724819Y-85656190D01*
X184724819Y-85656190D02*
X184724819Y-85751428D01*
X184724819Y-85751428D02*
X184677200Y-85846666D01*
X184677200Y-85846666D02*
X184629580Y-85894285D01*
X184629580Y-85894285D02*
X184534342Y-85941904D01*
X184534342Y-85941904D02*
X184343866Y-85989523D01*
X184343866Y-85989523D02*
X184105771Y-85989523D01*
X184105771Y-85989523D02*
X183915295Y-85941904D01*
X183915295Y-85941904D02*
X183820057Y-85894285D01*
X183820057Y-85894285D02*
X183772438Y-85846666D01*
X183772438Y-85846666D02*
X183724819Y-85751428D01*
X190693866Y-90880951D02*
X190693866Y-90119047D01*
X191074819Y-90499999D02*
X190312914Y-90499999D01*
X98235714Y-59231009D02*
X98569047Y-59231009D01*
X98711904Y-59754819D02*
X98235714Y-59754819D01*
X98235714Y-59754819D02*
X98235714Y-58754819D01*
X98235714Y-58754819D02*
X98711904Y-58754819D01*
X99140476Y-59754819D02*
X99140476Y-58754819D01*
X99140476Y-58754819D02*
X99711904Y-59754819D01*
X99711904Y-59754819D02*
X99711904Y-58754819D01*
X100759523Y-59659580D02*
X100711904Y-59707200D01*
X100711904Y-59707200D02*
X100569047Y-59754819D01*
X100569047Y-59754819D02*
X100473809Y-59754819D01*
X100473809Y-59754819D02*
X100330952Y-59707200D01*
X100330952Y-59707200D02*
X100235714Y-59611961D01*
X100235714Y-59611961D02*
X100188095Y-59516723D01*
X100188095Y-59516723D02*
X100140476Y-59326247D01*
X100140476Y-59326247D02*
X100140476Y-59183390D01*
X100140476Y-59183390D02*
X100188095Y-58992914D01*
X100188095Y-58992914D02*
X100235714Y-58897676D01*
X100235714Y-58897676D02*
X100330952Y-58802438D01*
X100330952Y-58802438D02*
X100473809Y-58754819D01*
X100473809Y-58754819D02*
X100569047Y-58754819D01*
X100569047Y-58754819D02*
X100711904Y-58802438D01*
X100711904Y-58802438D02*
X100759523Y-58850057D01*
X101378571Y-58754819D02*
X101473809Y-58754819D01*
X101473809Y-58754819D02*
X101569047Y-58802438D01*
X101569047Y-58802438D02*
X101616666Y-58850057D01*
X101616666Y-58850057D02*
X101664285Y-58945295D01*
X101664285Y-58945295D02*
X101711904Y-59135771D01*
X101711904Y-59135771D02*
X101711904Y-59373866D01*
X101711904Y-59373866D02*
X101664285Y-59564342D01*
X101664285Y-59564342D02*
X101616666Y-59659580D01*
X101616666Y-59659580D02*
X101569047Y-59707200D01*
X101569047Y-59707200D02*
X101473809Y-59754819D01*
X101473809Y-59754819D02*
X101378571Y-59754819D01*
X101378571Y-59754819D02*
X101283333Y-59707200D01*
X101283333Y-59707200D02*
X101235714Y-59659580D01*
X101235714Y-59659580D02*
X101188095Y-59564342D01*
X101188095Y-59564342D02*
X101140476Y-59373866D01*
X101140476Y-59373866D02*
X101140476Y-59135771D01*
X101140476Y-59135771D02*
X101188095Y-58945295D01*
X101188095Y-58945295D02*
X101235714Y-58850057D01*
X101235714Y-58850057D02*
X101283333Y-58802438D01*
X101283333Y-58802438D02*
X101378571Y-58754819D01*
X98066666Y-79264819D02*
X98066666Y-79979104D01*
X98066666Y-79979104D02*
X98019047Y-80121961D01*
X98019047Y-80121961D02*
X97923809Y-80217200D01*
X97923809Y-80217200D02*
X97780952Y-80264819D01*
X97780952Y-80264819D02*
X97685714Y-80264819D01*
X98733333Y-79264819D02*
X98828571Y-79264819D01*
X98828571Y-79264819D02*
X98923809Y-79312438D01*
X98923809Y-79312438D02*
X98971428Y-79360057D01*
X98971428Y-79360057D02*
X99019047Y-79455295D01*
X99019047Y-79455295D02*
X99066666Y-79645771D01*
X99066666Y-79645771D02*
X99066666Y-79883866D01*
X99066666Y-79883866D02*
X99019047Y-80074342D01*
X99019047Y-80074342D02*
X98971428Y-80169580D01*
X98971428Y-80169580D02*
X98923809Y-80217200D01*
X98923809Y-80217200D02*
X98828571Y-80264819D01*
X98828571Y-80264819D02*
X98733333Y-80264819D01*
X98733333Y-80264819D02*
X98638095Y-80217200D01*
X98638095Y-80217200D02*
X98590476Y-80169580D01*
X98590476Y-80169580D02*
X98542857Y-80074342D01*
X98542857Y-80074342D02*
X98495238Y-79883866D01*
X98495238Y-79883866D02*
X98495238Y-79645771D01*
X98495238Y-79645771D02*
X98542857Y-79455295D01*
X98542857Y-79455295D02*
X98590476Y-79360057D01*
X98590476Y-79360057D02*
X98638095Y-79312438D01*
X98638095Y-79312438D02*
X98733333Y-79264819D01*
X126324819Y-101723333D02*
X127039104Y-101723333D01*
X127039104Y-101723333D02*
X127181961Y-101770952D01*
X127181961Y-101770952D02*
X127277200Y-101866190D01*
X127277200Y-101866190D02*
X127324819Y-102009047D01*
X127324819Y-102009047D02*
X127324819Y-102104285D01*
X127324819Y-101199523D02*
X127324819Y-101009047D01*
X127324819Y-101009047D02*
X127277200Y-100913809D01*
X127277200Y-100913809D02*
X127229580Y-100866190D01*
X127229580Y-100866190D02*
X127086723Y-100770952D01*
X127086723Y-100770952D02*
X126896247Y-100723333D01*
X126896247Y-100723333D02*
X126515295Y-100723333D01*
X126515295Y-100723333D02*
X126420057Y-100770952D01*
X126420057Y-100770952D02*
X126372438Y-100818571D01*
X126372438Y-100818571D02*
X126324819Y-100913809D01*
X126324819Y-100913809D02*
X126324819Y-101104285D01*
X126324819Y-101104285D02*
X126372438Y-101199523D01*
X126372438Y-101199523D02*
X126420057Y-101247142D01*
X126420057Y-101247142D02*
X126515295Y-101294761D01*
X126515295Y-101294761D02*
X126753390Y-101294761D01*
X126753390Y-101294761D02*
X126848628Y-101247142D01*
X126848628Y-101247142D02*
X126896247Y-101199523D01*
X126896247Y-101199523D02*
X126943866Y-101104285D01*
X126943866Y-101104285D02*
X126943866Y-100913809D01*
X126943866Y-100913809D02*
X126896247Y-100818571D01*
X126896247Y-100818571D02*
X126848628Y-100770952D01*
X126848628Y-100770952D02*
X126753390Y-100723333D01*
X106235714Y-72274819D02*
X106235714Y-71274819D01*
X106235714Y-71274819D02*
X106473809Y-71274819D01*
X106473809Y-71274819D02*
X106616666Y-71322438D01*
X106616666Y-71322438D02*
X106711904Y-71417676D01*
X106711904Y-71417676D02*
X106759523Y-71512914D01*
X106759523Y-71512914D02*
X106807142Y-71703390D01*
X106807142Y-71703390D02*
X106807142Y-71846247D01*
X106807142Y-71846247D02*
X106759523Y-72036723D01*
X106759523Y-72036723D02*
X106711904Y-72131961D01*
X106711904Y-72131961D02*
X106616666Y-72227200D01*
X106616666Y-72227200D02*
X106473809Y-72274819D01*
X106473809Y-72274819D02*
X106235714Y-72274819D01*
X107759523Y-72274819D02*
X107188095Y-72274819D01*
X107473809Y-72274819D02*
X107473809Y-71274819D01*
X107473809Y-71274819D02*
X107378571Y-71417676D01*
X107378571Y-71417676D02*
X107283333Y-71512914D01*
X107283333Y-71512914D02*
X107188095Y-71560533D01*
X108092857Y-71274819D02*
X108759523Y-71274819D01*
X108759523Y-71274819D02*
X108330952Y-72274819D01*
X188636666Y-48424819D02*
X188636666Y-49139104D01*
X188636666Y-49139104D02*
X188589047Y-49281961D01*
X188589047Y-49281961D02*
X188493809Y-49377200D01*
X188493809Y-49377200D02*
X188350952Y-49424819D01*
X188350952Y-49424819D02*
X188255714Y-49424819D01*
X189065238Y-48520057D02*
X189112857Y-48472438D01*
X189112857Y-48472438D02*
X189208095Y-48424819D01*
X189208095Y-48424819D02*
X189446190Y-48424819D01*
X189446190Y-48424819D02*
X189541428Y-48472438D01*
X189541428Y-48472438D02*
X189589047Y-48520057D01*
X189589047Y-48520057D02*
X189636666Y-48615295D01*
X189636666Y-48615295D02*
X189636666Y-48710533D01*
X189636666Y-48710533D02*
X189589047Y-48853390D01*
X189589047Y-48853390D02*
X189017619Y-49424819D01*
X189017619Y-49424819D02*
X189636666Y-49424819D01*
X115135714Y-57431009D02*
X115469047Y-57431009D01*
X115611904Y-57954819D02*
X115135714Y-57954819D01*
X115135714Y-57954819D02*
X115135714Y-56954819D01*
X115135714Y-56954819D02*
X115611904Y-56954819D01*
X116040476Y-57954819D02*
X116040476Y-56954819D01*
X116040476Y-56954819D02*
X116611904Y-57954819D01*
X116611904Y-57954819D02*
X116611904Y-56954819D01*
X117659523Y-57859580D02*
X117611904Y-57907200D01*
X117611904Y-57907200D02*
X117469047Y-57954819D01*
X117469047Y-57954819D02*
X117373809Y-57954819D01*
X117373809Y-57954819D02*
X117230952Y-57907200D01*
X117230952Y-57907200D02*
X117135714Y-57811961D01*
X117135714Y-57811961D02*
X117088095Y-57716723D01*
X117088095Y-57716723D02*
X117040476Y-57526247D01*
X117040476Y-57526247D02*
X117040476Y-57383390D01*
X117040476Y-57383390D02*
X117088095Y-57192914D01*
X117088095Y-57192914D02*
X117135714Y-57097676D01*
X117135714Y-57097676D02*
X117230952Y-57002438D01*
X117230952Y-57002438D02*
X117373809Y-56954819D01*
X117373809Y-56954819D02*
X117469047Y-56954819D01*
X117469047Y-56954819D02*
X117611904Y-57002438D01*
X117611904Y-57002438D02*
X117659523Y-57050057D01*
X118611904Y-57954819D02*
X118040476Y-57954819D01*
X118326190Y-57954819D02*
X118326190Y-56954819D01*
X118326190Y-56954819D02*
X118230952Y-57097676D01*
X118230952Y-57097676D02*
X118135714Y-57192914D01*
X118135714Y-57192914D02*
X118040476Y-57240533D01*
X112585714Y-72274820D02*
X112585714Y-71274820D01*
X112585714Y-71274820D02*
X112823809Y-71274820D01*
X112823809Y-71274820D02*
X112966666Y-71322439D01*
X112966666Y-71322439D02*
X113061904Y-71417677D01*
X113061904Y-71417677D02*
X113109523Y-71512915D01*
X113109523Y-71512915D02*
X113157142Y-71703391D01*
X113157142Y-71703391D02*
X113157142Y-71846248D01*
X113157142Y-71846248D02*
X113109523Y-72036724D01*
X113109523Y-72036724D02*
X113061904Y-72131962D01*
X113061904Y-72131962D02*
X112966666Y-72227201D01*
X112966666Y-72227201D02*
X112823809Y-72274820D01*
X112823809Y-72274820D02*
X112585714Y-72274820D01*
X114109523Y-72274820D02*
X113538095Y-72274820D01*
X113823809Y-72274820D02*
X113823809Y-71274820D01*
X113823809Y-71274820D02*
X113728571Y-71417677D01*
X113728571Y-71417677D02*
X113633333Y-71512915D01*
X113633333Y-71512915D02*
X113538095Y-71560534D01*
X114680952Y-71703391D02*
X114585714Y-71655772D01*
X114585714Y-71655772D02*
X114538095Y-71608153D01*
X114538095Y-71608153D02*
X114490476Y-71512915D01*
X114490476Y-71512915D02*
X114490476Y-71465296D01*
X114490476Y-71465296D02*
X114538095Y-71370058D01*
X114538095Y-71370058D02*
X114585714Y-71322439D01*
X114585714Y-71322439D02*
X114680952Y-71274820D01*
X114680952Y-71274820D02*
X114871428Y-71274820D01*
X114871428Y-71274820D02*
X114966666Y-71322439D01*
X114966666Y-71322439D02*
X115014285Y-71370058D01*
X115014285Y-71370058D02*
X115061904Y-71465296D01*
X115061904Y-71465296D02*
X115061904Y-71512915D01*
X115061904Y-71512915D02*
X115014285Y-71608153D01*
X115014285Y-71608153D02*
X114966666Y-71655772D01*
X114966666Y-71655772D02*
X114871428Y-71703391D01*
X114871428Y-71703391D02*
X114680952Y-71703391D01*
X114680952Y-71703391D02*
X114585714Y-71751010D01*
X114585714Y-71751010D02*
X114538095Y-71798629D01*
X114538095Y-71798629D02*
X114490476Y-71893867D01*
X114490476Y-71893867D02*
X114490476Y-72084343D01*
X114490476Y-72084343D02*
X114538095Y-72179581D01*
X114538095Y-72179581D02*
X114585714Y-72227201D01*
X114585714Y-72227201D02*
X114680952Y-72274820D01*
X114680952Y-72274820D02*
X114871428Y-72274820D01*
X114871428Y-72274820D02*
X114966666Y-72227201D01*
X114966666Y-72227201D02*
X115014285Y-72179581D01*
X115014285Y-72179581D02*
X115061904Y-72084343D01*
X115061904Y-72084343D02*
X115061904Y-71893867D01*
X115061904Y-71893867D02*
X115014285Y-71798629D01*
X115014285Y-71798629D02*
X114966666Y-71751010D01*
X114966666Y-71751010D02*
X114871428Y-71703391D01*
X106374820Y-100328333D02*
X107089105Y-100328333D01*
X107089105Y-100328333D02*
X107231962Y-100375952D01*
X107231962Y-100375952D02*
X107327201Y-100471190D01*
X107327201Y-100471190D02*
X107374820Y-100614047D01*
X107374820Y-100614047D02*
X107374820Y-100709285D01*
X106803391Y-99709285D02*
X106755772Y-99804523D01*
X106755772Y-99804523D02*
X106708153Y-99852142D01*
X106708153Y-99852142D02*
X106612915Y-99899761D01*
X106612915Y-99899761D02*
X106565296Y-99899761D01*
X106565296Y-99899761D02*
X106470058Y-99852142D01*
X106470058Y-99852142D02*
X106422439Y-99804523D01*
X106422439Y-99804523D02*
X106374820Y-99709285D01*
X106374820Y-99709285D02*
X106374820Y-99518809D01*
X106374820Y-99518809D02*
X106422439Y-99423571D01*
X106422439Y-99423571D02*
X106470058Y-99375952D01*
X106470058Y-99375952D02*
X106565296Y-99328333D01*
X106565296Y-99328333D02*
X106612915Y-99328333D01*
X106612915Y-99328333D02*
X106708153Y-99375952D01*
X106708153Y-99375952D02*
X106755772Y-99423571D01*
X106755772Y-99423571D02*
X106803391Y-99518809D01*
X106803391Y-99518809D02*
X106803391Y-99709285D01*
X106803391Y-99709285D02*
X106851010Y-99804523D01*
X106851010Y-99804523D02*
X106898629Y-99852142D01*
X106898629Y-99852142D02*
X106993867Y-99899761D01*
X106993867Y-99899761D02*
X107184343Y-99899761D01*
X107184343Y-99899761D02*
X107279581Y-99852142D01*
X107279581Y-99852142D02*
X107327201Y-99804523D01*
X107327201Y-99804523D02*
X107374820Y-99709285D01*
X107374820Y-99709285D02*
X107374820Y-99518809D01*
X107374820Y-99518809D02*
X107327201Y-99423571D01*
X107327201Y-99423571D02*
X107279581Y-99375952D01*
X107279581Y-99375952D02*
X107184343Y-99328333D01*
X107184343Y-99328333D02*
X106993867Y-99328333D01*
X106993867Y-99328333D02*
X106898629Y-99375952D01*
X106898629Y-99375952D02*
X106851010Y-99423571D01*
X106851010Y-99423571D02*
X106803391Y-99518809D01*
D12*
%TO.C,J7*%
X200270000Y-48560000D02*
X201650000Y-48560000D01*
X200270000Y-49940000D02*
X200270000Y-48560000D01*
X200270000Y-51210000D02*
X200270000Y-79260000D01*
X200270000Y-51210000D02*
X203030000Y-51210000D01*
X200270000Y-79260000D02*
X203030000Y-79260000D01*
X203030000Y-51210000D02*
X203030000Y-79260000D01*
%TO.C,D15*%
X161377500Y-67415000D02*
X161377500Y-69685000D01*
X161377500Y-69685000D02*
X165437500Y-69685000D01*
X165437500Y-67415000D02*
X161377500Y-67415000D01*
%TO.C,SW16*%
X192950000Y-97850000D02*
X192950000Y-99350000D01*
X194200000Y-101850000D02*
X198700000Y-101850000D01*
X198700000Y-95350000D02*
X194200000Y-95350000D01*
X199950000Y-99350000D02*
X199950000Y-97850000D01*
%TO.C,SW0*%
X118700000Y-89350000D02*
X118700000Y-93850000D01*
X121200000Y-95100000D02*
X122700000Y-95100000D01*
X122700000Y-88100000D02*
X121200000Y-88100000D01*
X125200000Y-93850000D02*
X125200000Y-89350000D01*
%TO.C,SW1*%
X127250000Y-89350000D02*
X127250000Y-93850000D01*
X129750000Y-95100000D02*
X131250000Y-95100000D01*
X131250000Y-88100000D02*
X129750000Y-88100000D01*
X133750000Y-93850000D02*
X133750000Y-89350000D01*
%TO.C,D16*%
X98690000Y-72515000D02*
X98690000Y-74785000D01*
X98690000Y-74785000D02*
X102750000Y-74785000D01*
X102750000Y-72515000D02*
X98690000Y-72515000D01*
%TO.C,D7*%
X127177500Y-81815000D02*
X127177500Y-84085000D01*
X127177500Y-84085000D02*
X131237500Y-84085000D01*
X131237500Y-81815000D02*
X127177500Y-81815000D01*
%TO.C,D14*%
X152827500Y-67415000D02*
X152827500Y-69685000D01*
X152827500Y-69685000D02*
X156887500Y-69685000D01*
X156887500Y-67415000D02*
X152827500Y-67415000D01*
%TO.C,D13*%
X144277500Y-67415000D02*
X144277500Y-69685000D01*
X144277500Y-69685000D02*
X148337500Y-69685000D01*
X148337500Y-67415000D02*
X144277500Y-67415000D01*
%TO.C,D1*%
X127277500Y-97015000D02*
X127277500Y-99285000D01*
X127277500Y-99285000D02*
X131337500Y-99285000D01*
X131337500Y-97015000D02*
X127277500Y-97015000D01*
%TO.C,BZ0*%
X200760000Y-86690000D02*
G75*
G02*
X185560000Y-86690000I-7600000J0D01*
G01*
X185560000Y-86690000D02*
G75*
G02*
X200760000Y-86690000I7600000J0D01*
G01*
%TO.C,D23*%
X192027500Y-102365000D02*
X192027500Y-104635000D01*
X192027500Y-104635000D02*
X196087500Y-104635000D01*
X196087500Y-102365000D02*
X192027500Y-102365000D01*
%TO.C,D8*%
X135727500Y-81815000D02*
X135727500Y-84085000D01*
X135727500Y-84085000D02*
X139787500Y-84085000D01*
X139787500Y-81815000D02*
X135727500Y-81815000D01*
%TO.C,U0*%
X173540000Y-56160000D02*
X173540000Y-91840000D01*
X173540000Y-91840000D02*
X178840000Y-91840000D01*
X175190000Y-56160000D02*
X173540000Y-56160000D01*
X178840000Y-56160000D02*
X177190000Y-56160000D01*
X178840000Y-91840000D02*
X178840000Y-56160000D01*
X171050000Y-56100000D02*
X181330000Y-56100000D01*
X181330000Y-91900000D01*
X171050000Y-91900000D01*
X171050000Y-56100000D01*
X177190000Y-56160000D02*
G75*
G02*
X175190000Y-56160000I-1000000J0D01*
G01*
%TO.C,SW15*%
X161350000Y-59700000D02*
X161350000Y-64200000D01*
X163850000Y-65450000D02*
X165350000Y-65450000D01*
X165350000Y-58450000D02*
X163850000Y-58450000D01*
X167850000Y-64200000D02*
X167850000Y-59700000D01*
%TO.C,SW2*%
X135800000Y-89350000D02*
X135800000Y-93850000D01*
X138300000Y-95100000D02*
X139800000Y-95100000D01*
X139800000Y-88100000D02*
X138300000Y-88100000D01*
X142300000Y-93850000D02*
X142300000Y-89350000D01*
%TO.C,SW5*%
X161450001Y-89350000D02*
X161450001Y-93850000D01*
X163950001Y-95100000D02*
X165450001Y-95100000D01*
X165450001Y-88100000D02*
X163950001Y-88100000D01*
X167950001Y-93850000D02*
X167950001Y-89350000D01*
%TO.C,ENC0*%
X99950000Y-59300000D02*
X100550000Y-59300000D01*
X100250000Y-59600000D02*
X99950000Y-59300000D01*
X100550000Y-59300000D02*
X100250000Y-59600000D01*
X101650000Y-57500000D02*
X101650000Y-69300000D01*
X105750000Y-57500000D02*
X101650000Y-57500000D01*
X105750000Y-69300000D02*
X101650000Y-69300000D01*
X107250000Y-63400000D02*
X108250000Y-63400000D01*
X107750000Y-62900000D02*
X107750000Y-63900000D01*
X109750000Y-57500000D02*
X113850000Y-57500000D01*
X113850000Y-57500000D02*
X113850000Y-59900000D01*
X113850000Y-62100000D02*
X113850000Y-64700000D01*
X113850000Y-66900000D02*
X113850000Y-69300000D01*
X113850000Y-69300000D02*
X109750000Y-69300000D01*
X110750000Y-63400000D02*
G75*
G02*
X104750000Y-63400000I-3000000J0D01*
G01*
X104750000Y-63400000D02*
G75*
G02*
X110750000Y-63400000I3000000J0D01*
G01*
%TO.C,R2*%
X173230000Y-52850000D02*
X174180000Y-52850000D01*
X174180000Y-51930000D02*
X174180000Y-53770000D01*
X174180000Y-53770000D02*
X178020000Y-53770000D01*
X178020000Y-51930000D02*
X174180000Y-51930000D01*
X178020000Y-53770000D02*
X178020000Y-51930000D01*
X178970001Y-52850000D02*
X178020000Y-52850000D01*
%TO.C,SW7*%
X127150000Y-74100000D02*
X127150000Y-78600000D01*
X129650000Y-79850000D02*
X131150000Y-79850000D01*
X131150000Y-72850000D02*
X129650000Y-72850000D01*
X133650000Y-78600000D02*
X133650000Y-74100000D01*
%TO.C,D12*%
X135727500Y-67415000D02*
X135727500Y-69685000D01*
X135727500Y-69685000D02*
X139787500Y-69685000D01*
X139787500Y-67415000D02*
X135727500Y-67415000D01*
%TO.C,SW13*%
X144250000Y-59700000D02*
X144250000Y-64200000D01*
X146750000Y-65450000D02*
X148250000Y-65450000D01*
X148250000Y-58450000D02*
X146750000Y-58450000D01*
X150750000Y-64200000D02*
X150750000Y-59700000D01*
%TO.C,D11*%
X161377500Y-81815000D02*
X161377500Y-84085000D01*
X161377500Y-84085000D02*
X165437500Y-84085000D01*
X165437500Y-81815000D02*
X161377500Y-81815000D01*
%TO.C,SW11*%
X161350000Y-74100000D02*
X161350000Y-78600000D01*
X163850000Y-79850000D02*
X165350000Y-79850000D01*
X165350000Y-72850000D02*
X163850000Y-72850000D01*
X167850000Y-78600000D02*
X167850000Y-74100000D01*
%TO.C,SW17*%
X182500000Y-97850000D02*
X182500000Y-99350000D01*
X183750000Y-101850000D02*
X188250000Y-101850000D01*
X188250000Y-95350000D02*
X183750000Y-95350000D01*
X189500000Y-99350000D02*
X189500000Y-97850000D01*
%TO.C,J0*%
X97020000Y-80810000D02*
X98400000Y-80810001D01*
X97020000Y-83460000D02*
X97020001Y-91190000D01*
X97020000Y-83460000D02*
X99780000Y-83460000D01*
X97020001Y-82190000D02*
X97020000Y-80810000D01*
X97020001Y-91190000D02*
X99779999Y-91190000D01*
X99780000Y-83460000D02*
X99779999Y-91190000D01*
%TO.C,SW6*%
X118600000Y-74100000D02*
X118600000Y-78600000D01*
X121100000Y-79850000D02*
X122600000Y-79850000D01*
X122600000Y-72850000D02*
X121100000Y-72850000D01*
X125100000Y-78600000D02*
X125100000Y-74100000D01*
%TO.C,R0*%
X173129999Y-97550000D02*
X174080000Y-97550000D01*
X174080000Y-96630000D02*
X174080000Y-98470000D01*
X174080000Y-98470000D02*
X177920000Y-98470000D01*
X177920000Y-96630000D02*
X174080000Y-96630000D01*
X177920000Y-98470000D02*
X177920000Y-96630000D01*
X178870000Y-97550000D02*
X177920000Y-97550000D01*
%TO.C,D2*%
X135827500Y-97015000D02*
X135827500Y-99285000D01*
X135827500Y-99285000D02*
X139887500Y-99285000D01*
X139887500Y-97015000D02*
X135827500Y-97015000D01*
%TO.C,U1*%
X201840001Y-96550000D02*
X201840000Y-94600000D01*
X201840001Y-96550000D02*
X201840000Y-98500000D01*
X206959999Y-96550000D02*
X206960000Y-94600000D01*
X206959999Y-96550000D02*
X206960000Y-98500000D01*
X201935000Y-99250000D02*
X201605000Y-99489999D01*
X201605000Y-99010000D01*
X201935000Y-99250000D01*
G36*
X201935000Y-99250000D02*
G01*
X201605000Y-99489999D01*
X201605000Y-99010000D01*
X201935000Y-99250000D01*
G37*
%TO.C,D9*%
X144277500Y-81815000D02*
X144277500Y-84085000D01*
X144277500Y-84085000D02*
X148337500Y-84085000D01*
X148337500Y-81815000D02*
X144277500Y-81815000D01*
%TO.C,D10*%
X152827500Y-81815000D02*
X152827500Y-84085000D01*
X152827500Y-84085000D02*
X156887500Y-84085000D01*
X156887500Y-81815000D02*
X152827500Y-81815000D01*
%TO.C,D0*%
X118727500Y-97065000D02*
X118727500Y-99335000D01*
X118727500Y-99335000D02*
X122787500Y-99335000D01*
X122787500Y-97065000D02*
X118727500Y-97065000D01*
%TO.C,SW14*%
X152800000Y-59700000D02*
X152800000Y-64200000D01*
X155300000Y-65450000D02*
X156800000Y-65450000D01*
X156800000Y-58450000D02*
X155300000Y-58450000D01*
X159300000Y-64200000D02*
X159300000Y-59700000D01*
%TO.C,J9*%
X110410000Y-100010000D02*
X110410000Y-102770000D01*
X123220000Y-100010000D02*
X110410000Y-100010000D01*
X123220000Y-100010000D02*
X123220000Y-102770000D01*
X123220000Y-102770000D02*
X110410000Y-102770000D01*
X124490000Y-100010001D02*
X125870000Y-100010000D01*
X125870000Y-100010000D02*
X125869999Y-101390000D01*
%TO.C,SW3*%
X144350000Y-89350000D02*
X144350000Y-93850000D01*
X146850000Y-95100000D02*
X148350000Y-95100000D01*
X148350000Y-88100000D02*
X146850000Y-88100000D01*
X150850000Y-93850000D02*
X150850000Y-89350000D01*
%TO.C,SW4*%
X152900000Y-89350000D02*
X152900000Y-93850000D01*
X155400000Y-95100000D02*
X156900000Y-95100000D01*
X156900000Y-88100000D02*
X155400000Y-88100000D01*
X159400000Y-93850000D02*
X159400000Y-89350000D01*
%TO.C,D17*%
X104990000Y-72515000D02*
X104990000Y-74785000D01*
X104990000Y-74785000D02*
X109050000Y-74785000D01*
X109050000Y-72515000D02*
X104990000Y-72515000D01*
%TO.C,SW12*%
X135700000Y-59700000D02*
X135700000Y-64200000D01*
X138200000Y-65450000D02*
X139700000Y-65450000D01*
X139700000Y-58450000D02*
X138200000Y-58450000D01*
X142200000Y-64200000D02*
X142200000Y-59700000D01*
%TO.C,C0*%
X175538748Y-92790000D02*
X176961252Y-92790000D01*
X175538748Y-95510000D02*
X176961252Y-95510000D01*
%TO.C,SW9*%
X144250000Y-74100000D02*
X144250000Y-78600000D01*
X146750000Y-79850000D02*
X148250000Y-79850000D01*
X148250000Y-72850000D02*
X146750000Y-72850000D01*
X150750000Y-78600000D02*
X150750000Y-74100000D01*
%TO.C,D5*%
X161477500Y-97015000D02*
X161477500Y-99285000D01*
X161477500Y-99285000D02*
X165537500Y-99285000D01*
X165537500Y-97015000D02*
X161477500Y-97015000D01*
%TO.C,SW10*%
X152800000Y-74100000D02*
X152800000Y-78600000D01*
X155300000Y-79850000D02*
X156800000Y-79850000D01*
X156800000Y-72850000D02*
X155300000Y-72850000D01*
X159300000Y-78600000D02*
X159300000Y-74100000D01*
%TO.C,J2*%
X185020000Y-48560000D02*
X186400000Y-48560000D01*
X185020000Y-49940000D02*
X185020000Y-48560000D01*
X185020000Y-51210000D02*
X185020000Y-79260000D01*
X185020000Y-51210000D02*
X187780000Y-51210000D01*
X185020000Y-79260000D02*
X187780000Y-79260000D01*
X187780000Y-51210000D02*
X187780000Y-79260000D01*
%TO.C,D6*%
X118627500Y-81815000D02*
X118627500Y-84085000D01*
X118627500Y-84085000D02*
X122687500Y-84085000D01*
X122687500Y-81815000D02*
X118627500Y-81815000D01*
%TO.C,ENC1*%
X118000000Y-59300000D02*
X118600000Y-59300000D01*
X118300000Y-59600000D02*
X118000000Y-59300000D01*
X118600000Y-59300000D02*
X118300000Y-59600000D01*
X119700000Y-57500000D02*
X119700000Y-69300000D01*
X123800000Y-57500000D02*
X119700000Y-57500000D01*
X123800000Y-69300000D02*
X119700000Y-69300000D01*
X125300000Y-63400000D02*
X126300000Y-63400000D01*
X125800000Y-62900000D02*
X125800000Y-63900000D01*
X127800000Y-57500000D02*
X131900000Y-57500000D01*
X131900000Y-57500000D02*
X131900000Y-59900000D01*
X131900000Y-62100000D02*
X131900000Y-64700000D01*
X131900000Y-66900000D02*
X131900000Y-69300000D01*
X131900000Y-69300000D02*
X127800000Y-69300000D01*
X128800000Y-63400000D02*
G75*
G02*
X122800000Y-63400000I-3000000J0D01*
G01*
X122800000Y-63400000D02*
G75*
G02*
X128800000Y-63400000I3000000J0D01*
G01*
%TO.C,SW18*%
X202300001Y-92457500D02*
X202300001Y-91457500D01*
X202600001Y-83457500D02*
X206300001Y-83457500D01*
X202600001Y-84337500D02*
X202600001Y-83457500D01*
X202600001Y-86837500D02*
X202600001Y-86277500D01*
X202600001Y-89307500D02*
X202600001Y-88777500D01*
X202600001Y-92157500D02*
X202600001Y-91307500D01*
X203300001Y-92457501D02*
X202300001Y-92457500D01*
X206300001Y-83457500D02*
X206300001Y-84327500D01*
X206300001Y-86287500D02*
X206300001Y-86837500D01*
X206300001Y-88777500D02*
X206300001Y-89337500D01*
X206300001Y-91277500D02*
X206300001Y-92157500D01*
X206300001Y-92157500D02*
X202600001Y-92157500D01*
%TO.C,R1*%
X173139999Y-101300000D02*
X174090000Y-101300000D01*
X174090000Y-100380000D02*
X174090000Y-102220000D01*
X174090000Y-102220000D02*
X177930000Y-102220000D01*
X177930000Y-100380000D02*
X174090000Y-100380000D01*
X177930000Y-102220000D02*
X177930000Y-100380000D01*
X178880000Y-101300000D02*
X177930000Y-101300000D01*
%TO.C,D3*%
X144377500Y-97015000D02*
X144377500Y-99285000D01*
X144377500Y-99285000D02*
X148437500Y-99285000D01*
X148437500Y-97015000D02*
X144377500Y-97015000D01*
%TO.C,D18*%
X111340000Y-72515000D02*
X111340000Y-74785000D01*
X111340000Y-74785000D02*
X115400000Y-74785000D01*
X115400000Y-72515000D02*
X111340000Y-72515000D01*
%TO.C,D4*%
X152927500Y-97015000D02*
X152927500Y-99285000D01*
X152927500Y-99285000D02*
X156987500Y-99285000D01*
X156987500Y-97015000D02*
X152927500Y-97015000D01*
%TO.C,SW8*%
X135700000Y-74100000D02*
X135700000Y-78600000D01*
X138200000Y-79850000D02*
X139700000Y-79850000D01*
X139700000Y-72850000D02*
X138200000Y-72850000D01*
X142200000Y-78600000D02*
X142200000Y-74100000D01*
%TO.C,D24*%
X183400000Y-104635000D02*
X187460000Y-104635000D01*
X187460000Y-102365000D02*
X183400000Y-102365000D01*
X187460000Y-104635000D02*
X187460000Y-102365000D01*
%TO.C,J8*%
X98080000Y-97345000D02*
X98080000Y-102645000D01*
X103270000Y-97345000D02*
X98080000Y-97345000D01*
X103270000Y-97345000D02*
X103270000Y-99995000D01*
X103270000Y-99995000D02*
X105920000Y-99995000D01*
X104540000Y-97345001D02*
X105920000Y-97345000D01*
X105920000Y-97345000D02*
X105919999Y-98725000D01*
X105920000Y-99995000D02*
X105920000Y-102645000D01*
X105920000Y-102645000D02*
X98080000Y-102645000D01*
%TD*%
M02*
