%TF.GenerationSoftware,KiCad,Pcbnew,9.0.1*%
%TF.CreationDate,2025-05-27T17:05:58+05:30*%
%TF.ProjectId,macronardo,6d616372-6f6e-4617-9264-6f2e6b696361,rev?*%
%TF.SameCoordinates,Original*%
%TF.FileFunction,Copper,L4,Bot*%
%TF.FilePolarity,Positive*%
%FSLAX46Y46*%
G04 Gerber Fmt 4.6, Leading zero omitted, Abs format (unit mm)*
G04 Created by KiCad (PCBNEW 9.0.1) date 2025-05-27 17:05:58*
%MOMM*%
%LPD*%
G01*
G04 APERTURE LIST*
G04 Aperture macros list*
%AMRoundRect*
0 Rectangle with rounded corners*
0 $1 Rounding radius*
0 $2 $3 $4 $5 $6 $7 $8 $9 X,Y pos of 4 corners*
0 Add a 4 corners polygon primitive as box body*
4,1,4,$2,$3,$4,$5,$6,$7,$8,$9,$2,$3,0*
0 Add four circle primitives for the rounded corners*
1,1,$1+$1,$2,$3*
1,1,$1+$1,$4,$5*
1,1,$1+$1,$6,$7*
1,1,$1+$1,$8,$9*
0 Add four rect primitives between the rounded corners*
20,1,$1+$1,$2,$3,$4,$5,0*
20,1,$1+$1,$4,$5,$6,$7,0*
20,1,$1+$1,$6,$7,$8,$9,0*
20,1,$1+$1,$8,$9,$2,$3,0*%
G04 Aperture macros list end*
%TA.AperFunction,ComponentPad*%
%ADD10R,1.700000X1.700000*%
%TD*%
%TA.AperFunction,ComponentPad*%
%ADD11C,1.700000*%
%TD*%
%TA.AperFunction,ComponentPad*%
%ADD12C,2.000000*%
%TD*%
%TA.AperFunction,ComponentPad*%
%ADD13R,2.000000X2.000000*%
%TD*%
%TA.AperFunction,ComponentPad*%
%ADD14RoundRect,0.250000X-0.550000X-0.550000X0.550000X-0.550000X0.550000X0.550000X-0.550000X0.550000X0*%
%TD*%
%TA.AperFunction,ComponentPad*%
%ADD15C,1.600000*%
%TD*%
%TA.AperFunction,ComponentPad*%
%ADD16C,3.200000*%
%TD*%
%TA.AperFunction,ComponentPad*%
%ADD17C,1.400000*%
%TD*%
%TA.AperFunction,ComponentPad*%
%ADD18O,1.400000X1.400000*%
%TD*%
%TA.AperFunction,ComponentPad*%
%ADD19R,1.600000X1.600000*%
%TD*%
%TA.AperFunction,SMDPad,CuDef*%
%ADD20RoundRect,0.250000X-0.550000X-0.250000X0.550000X-0.250000X0.550000X0.250000X-0.550000X0.250000X0*%
%TD*%
%TA.AperFunction,ViaPad*%
%ADD21C,0.600000*%
%TD*%
%TA.AperFunction,Conductor*%
%ADD22C,1.000000*%
%TD*%
%TA.AperFunction,Conductor*%
%ADD23C,0.200000*%
%TD*%
G04 APERTURE END LIST*
D10*
%TO.P,J7,1,Pin_1*%
%TO.N,unconnected-(J7-Pin_1-Pad1)*%
X201650000Y-49940000D03*
D11*
%TO.P,J7,2,Pin_2*%
%TO.N,/GND*%
X201650000Y-52480000D03*
%TO.P,J7,3,Pin_3*%
%TO.N,/RST*%
X201650000Y-55020000D03*
%TO.P,J7,4,Pin_4*%
%TO.N,/VCC*%
X201650000Y-57560000D03*
%TO.P,J7,5,Pin_5*%
%TO.N,/GPIO23*%
X201650000Y-60100000D03*
%TO.P,J7,6,Pin_6*%
%TO.N,/HEAD_A2*%
X201650000Y-62640000D03*
%TO.P,J7,7,Pin_7*%
%TO.N,/HEAD_A1*%
X201650000Y-65180000D03*
%TO.P,J7,8,Pin_8*%
%TO.N,/CAPS_LK_STAT*%
X201650000Y-67720000D03*
%TO.P,J7,9,Pin_9*%
%TO.N,/PROMICRO_SCLK*%
X201650000Y-70260000D03*
%TO.P,J7,10,Pin_10*%
%TO.N,/PROMICRO_MISO*%
X201650000Y-72800000D03*
%TO.P,J7,11,Pin_11*%
%TO.N,/PROMICRO_MOSI*%
X201650000Y-75340000D03*
%TO.P,J7,12,Pin_12*%
%TO.N,/GPIO10*%
X201650000Y-77880000D03*
%TD*%
D12*
%TO.P,SW16,1,1*%
%TO.N,/LAYERLED*%
X193200000Y-96350000D03*
X199700000Y-96350000D03*
%TO.P,SW16,2,2*%
%TO.N,/LAYER_CHANGE_SW_IN*%
X193200000Y-100850001D03*
X199700001Y-100850000D03*
%TD*%
%TO.P,SW0,1,1*%
%TO.N,/LED1*%
X119700000Y-94850000D03*
X119700000Y-88350000D03*
%TO.P,SW0,2,2*%
%TO.N,/SW1*%
X124200001Y-94850000D03*
X124200000Y-88349999D03*
%TD*%
%TO.P,SW1,1,1*%
%TO.N,/LED2*%
X128250000Y-94850000D03*
X128250000Y-88350000D03*
%TO.P,SW1,2,2*%
%TO.N,/SW2*%
X132750001Y-94850000D03*
X132750000Y-88349999D03*
%TD*%
D13*
%TO.P,BZ0,1,+*%
%TO.N,/BUZZ (+)*%
X193160000Y-90490000D03*
D12*
%TO.P,BZ0,2,-*%
%TO.N,Net-(BZ0--)*%
X193160000Y-82890000D03*
%TD*%
D14*
%TO.P,U0,1,GPB0*%
%TO.N,/SW1*%
X172380000Y-57490000D03*
D15*
%TO.P,U0,2,GPB1*%
%TO.N,/SW2*%
X172380000Y-60030000D03*
%TO.P,U0,3,GPB2*%
%TO.N,/SW3*%
X172380000Y-62570000D03*
%TO.P,U0,4,GPB3*%
%TO.N,/SW4*%
X172380000Y-65110000D03*
%TO.P,U0,5,GPB4*%
%TO.N,/SW5*%
X172380000Y-67650000D03*
%TO.P,U0,6,GPB5*%
%TO.N,/SW6*%
X172380000Y-70190000D03*
%TO.P,U0,7,GPB6*%
%TO.N,/SW7*%
X172380000Y-72730000D03*
%TO.P,U0,8,GPB7*%
%TO.N,/SW8*%
X172380000Y-75270000D03*
%TO.P,U0,9,VDD*%
%TO.N,/VCC*%
X172380000Y-77810000D03*
%TO.P,U0,10,VSS*%
%TO.N,/GND*%
X172380000Y-80350000D03*
%TO.P,U0,11,NC*%
%TO.N,unconnected-(U0-NC-Pad11)*%
X172380000Y-82890000D03*
%TO.P,U0,12,SCK*%
%TO.N,/SCL*%
X172380000Y-85430000D03*
%TO.P,U0,13,SDA*%
%TO.N,/SDA*%
X172380000Y-87970000D03*
%TO.P,U0,14,NC*%
%TO.N,unconnected-(U0-NC-Pad14)*%
X172380000Y-90510000D03*
%TO.P,U0,15,A0*%
%TO.N,/GND*%
X180000000Y-90510000D03*
%TO.P,U0,16,A1*%
X180000000Y-87970000D03*
%TO.P,U0,17,A2*%
X180000000Y-85430000D03*
%TO.P,U0,18,~{RESET}*%
%TO.N,/VCC*%
X180000000Y-82890000D03*
%TO.P,U0,19,INTB*%
%TO.N,unconnected-(U0-INTB-Pad19)*%
X180000000Y-80350000D03*
%TO.P,U0,20,INTA*%
%TO.N,/INTA*%
X180000000Y-77810000D03*
%TO.P,U0,21,GPA0*%
%TO.N,/SW9*%
X180000000Y-75270000D03*
%TO.P,U0,22,GPA1*%
%TO.N,/SW10*%
X180000000Y-72730000D03*
%TO.P,U0,23,GPA2*%
%TO.N,/SW11*%
X180000000Y-70190000D03*
%TO.P,U0,24,GPA3*%
%TO.N,/SW12*%
X180000000Y-67650000D03*
%TO.P,U0,25,GPA4*%
%TO.N,/SW13*%
X180000000Y-65110000D03*
%TO.P,U0,26,GPA5*%
%TO.N,/SW14*%
X180000000Y-62570000D03*
%TO.P,U0,27,GPA6*%
%TO.N,/SW15*%
X180000000Y-60030000D03*
%TO.P,U0,28,GPA7*%
%TO.N,/SW16*%
X180000000Y-57490000D03*
%TD*%
D12*
%TO.P,SW15,1,1*%
%TO.N,/LED16*%
X162350000Y-65200000D03*
X162350000Y-58700000D03*
%TO.P,SW15,2,2*%
%TO.N,/SW16*%
X166850001Y-65200000D03*
X166850000Y-58699999D03*
%TD*%
%TO.P,SW2,1,1*%
%TO.N,/LED3*%
X136800000Y-94850000D03*
X136800000Y-88350000D03*
%TO.P,SW2,2,2*%
%TO.N,/SW3*%
X141300001Y-94850000D03*
X141300000Y-88349999D03*
%TD*%
%TO.P,SW5,1,1*%
%TO.N,/LED6*%
X162450001Y-94850000D03*
X162450001Y-88350000D03*
%TO.P,SW5,2,2*%
%TO.N,/SW6*%
X166950002Y-94850000D03*
X166950001Y-88349999D03*
%TD*%
D13*
%TO.P,ENC0,A,A*%
%TO.N,/ENC0_A_IN*%
X100250000Y-60900000D03*
D12*
%TO.P,ENC0,B,B*%
%TO.N,/ENC0_B_IN*%
X100250000Y-65900000D03*
%TO.P,ENC0,C,C*%
%TO.N,unconnected-(ENC0-PadC)*%
X100250000Y-63400000D03*
D16*
%TO.P,ENC0,MP,MP*%
%TO.N,unconnected-(ENC0-PadMP)*%
X107750000Y-57800000D03*
X107750000Y-69000000D03*
D12*
%TO.P,ENC0,S1,S1*%
%TO.N,/ENC0_SW_IN*%
X114750000Y-65900000D03*
%TO.P,ENC0,S2,S2*%
%TO.N,/GND*%
X114750000Y-60900000D03*
%TD*%
D17*
%TO.P,R2,1*%
%TO.N,Net-(BZ0--)*%
X179910000Y-52850000D03*
D18*
%TO.P,R2,2*%
%TO.N,/GND*%
X172290000Y-52850000D03*
%TD*%
D12*
%TO.P,SW7,1,1*%
%TO.N,/LED8*%
X128150000Y-79600000D03*
X128150000Y-73100000D03*
%TO.P,SW7,2,2*%
%TO.N,/SW8*%
X132650001Y-79600000D03*
X132650000Y-73099999D03*
%TD*%
%TO.P,SW13,1,1*%
%TO.N,/LED14*%
X145250000Y-65200000D03*
X145250000Y-58700000D03*
%TO.P,SW13,2,2*%
%TO.N,/SW14*%
X149750001Y-65200000D03*
X149750000Y-58699999D03*
%TD*%
%TO.P,SW11,1,1*%
%TO.N,/LED12*%
X162350000Y-79600000D03*
X162350000Y-73100000D03*
%TO.P,SW11,2,2*%
%TO.N,/SW12*%
X166850001Y-79600000D03*
X166850000Y-73099999D03*
%TD*%
%TO.P,SW17,1,1*%
%TO.N,/PRFLELED*%
X182750000Y-96350000D03*
X189250000Y-96350000D03*
%TO.P,SW17,2,2*%
%TO.N,/PROFILE_CHANGE_SW_IN*%
X182750000Y-100850001D03*
X189250001Y-100850000D03*
%TD*%
D10*
%TO.P,J0,1,Pin_1*%
%TO.N,/OLED_SDA*%
X98400000Y-82190000D03*
D11*
%TO.P,J0,2,Pin_2*%
%TO.N,/OLED_SCL*%
X98400000Y-84730000D03*
%TO.P,J0,3,Pin_3*%
%TO.N,/VCC*%
X98400000Y-87269999D03*
%TO.P,J0,4,Pin_4*%
%TO.N,/GND*%
X98400000Y-89810000D03*
%TD*%
D12*
%TO.P,SW6,1,1*%
%TO.N,/LED7*%
X119600000Y-79600000D03*
X119600000Y-73100000D03*
%TO.P,SW6,2,2*%
%TO.N,/SW7*%
X124100001Y-79600000D03*
X124100000Y-73099999D03*
%TD*%
D17*
%TO.P,R0,1*%
%TO.N,/VCC*%
X172190000Y-97550000D03*
D18*
%TO.P,R0,2*%
%TO.N,/SDA*%
X179810000Y-97550000D03*
%TD*%
D12*
%TO.P,SW14,1,1*%
%TO.N,/LED15*%
X153800000Y-65200000D03*
X153800000Y-58700000D03*
%TO.P,SW14,2,2*%
%TO.N,/SW15*%
X158300001Y-65200000D03*
X158300000Y-58699999D03*
%TD*%
D10*
%TO.P,J9,1,Pin_1*%
%TO.N,/CAPS_LK_STAT_IN*%
X124490000Y-101390000D03*
D11*
%TO.P,J9,2,Pin_2*%
%TO.N,/HEAD_A1*%
X121950000Y-101390000D03*
%TO.P,J9,3,Pin_3*%
%TO.N,/HEAD_A2*%
X119410001Y-101390000D03*
%TO.P,J9,4,Pin_4*%
%TO.N,/HEAD_A3*%
X116870000Y-101390000D03*
%TO.P,J9,5,Pin_5*%
%TO.N,/HEAD_A4*%
X114330000Y-101390000D03*
%TO.P,J9,6,Pin_6*%
%TO.N,/HEAD_A5*%
X111790000Y-101390000D03*
%TD*%
D12*
%TO.P,SW3,1,1*%
%TO.N,/LED4*%
X145350000Y-94850000D03*
X145350000Y-88350000D03*
%TO.P,SW3,2,2*%
%TO.N,/SW4*%
X149850001Y-94850000D03*
X149850000Y-88349999D03*
%TD*%
%TO.P,SW4,1,1*%
%TO.N,/LED5*%
X153900000Y-94850000D03*
X153900000Y-88350000D03*
%TO.P,SW4,2,2*%
%TO.N,/SW5*%
X158400001Y-94850000D03*
X158400000Y-88349999D03*
%TD*%
%TO.P,SW12,1,1*%
%TO.N,/LED13*%
X136700000Y-65200000D03*
X136700000Y-58700000D03*
%TO.P,SW12,2,2*%
%TO.N,/SW13*%
X141200001Y-65200000D03*
X141200000Y-58699999D03*
%TD*%
%TO.P,SW9,1,1*%
%TO.N,/LED10*%
X145250000Y-79600000D03*
X145250000Y-73100000D03*
%TO.P,SW9,2,2*%
%TO.N,/SW10*%
X149750001Y-79600000D03*
X149750000Y-73099999D03*
%TD*%
%TO.P,SW10,1,1*%
%TO.N,/LED11*%
X153800000Y-79600000D03*
X153800000Y-73100000D03*
%TO.P,SW10,2,2*%
%TO.N,/SW11*%
X158300001Y-79600000D03*
X158300000Y-73099999D03*
%TD*%
D10*
%TO.P,J2,1,Pin_1*%
%TO.N,/PRMCO_TX*%
X186400000Y-49940000D03*
D11*
%TO.P,J2,2,Pin_2*%
%TO.N,/PRMCO_RX*%
X186400000Y-52480000D03*
%TO.P,J2,3,Pin_3*%
%TO.N,/GND*%
X186400000Y-55020000D03*
%TO.P,J2,4,Pin_4*%
X186400000Y-57560000D03*
%TO.P,J2,5,Pin_5*%
%TO.N,/OLED_SDA*%
X186400000Y-60100000D03*
%TO.P,J2,6,Pin_6*%
%TO.N,/OLED_SCL*%
X186400000Y-62640000D03*
%TO.P,J2,7,Pin_7*%
%TO.N,/GPIO4*%
X186400000Y-65180000D03*
%TO.P,J2,8,Pin_8*%
%TO.N,/LED_R*%
X186400000Y-67720000D03*
%TO.P,J2,9,Pin_9*%
%TO.N,/LED_G*%
X186400000Y-70260000D03*
%TO.P,J2,10,Pin_10*%
%TO.N,/BUZZ (+)*%
X186400000Y-72800000D03*
%TO.P,J2,11,Pin_11*%
%TO.N,/GPIO8*%
X186400000Y-75340000D03*
%TO.P,J2,12,Pin_12*%
%TO.N,/LED_B*%
X186400000Y-77880000D03*
%TD*%
D13*
%TO.P,ENC1,A,A*%
%TO.N,/ENC1_A_IN*%
X118300000Y-60900000D03*
D12*
%TO.P,ENC1,B,B*%
%TO.N,/ENC1_B_IN*%
X118300000Y-65900000D03*
%TO.P,ENC1,C,C*%
%TO.N,unconnected-(ENC1-PadC)*%
X118300000Y-63400000D03*
D16*
%TO.P,ENC1,MP,MP*%
%TO.N,unconnected-(ENC1-PadMP)*%
X125800000Y-57800000D03*
X125800000Y-69000000D03*
D12*
%TO.P,ENC1,S1,S1*%
%TO.N,/ENC1_SW_IN*%
X132800000Y-65900000D03*
%TO.P,ENC1,S2,S2*%
%TO.N,/GND*%
X132800000Y-60900000D03*
%TD*%
D19*
%TO.P,SW18,1,B*%
%TO.N,/WRT_PRTCT_TGGL*%
X202850001Y-90307500D03*
D15*
%TO.P,SW18,2,C*%
%TO.N,/GND*%
X202850001Y-87807500D03*
%TO.P,SW18,3,A*%
%TO.N,/VCC*%
X202850001Y-85307500D03*
%TO.P,SW18,4*%
%TO.N,N/C*%
X206050001Y-90307500D03*
%TO.P,SW18,5*%
X206050001Y-87807500D03*
%TO.P,SW18,6*%
X206050001Y-85307500D03*
%TD*%
D17*
%TO.P,R1,1*%
%TO.N,/VCC*%
X172200000Y-101300000D03*
D18*
%TO.P,R1,2*%
%TO.N,/SCL*%
X179820000Y-101300000D03*
%TD*%
D12*
%TO.P,SW8,1,1*%
%TO.N,/LED9*%
X136700000Y-79600000D03*
X136700000Y-73100000D03*
%TO.P,SW8,2,2*%
%TO.N,/SW9*%
X141200001Y-79600000D03*
X141200000Y-73099999D03*
%TD*%
D10*
%TO.P,J8,1,Pin_1*%
%TO.N,/HEAD_A2*%
X104540000Y-98725000D03*
D11*
%TO.P,J8,2,Pin_2*%
%TO.N,/CAPS_LK_STAT*%
X104540000Y-101265000D03*
%TO.P,J8,3,Pin_3*%
%TO.N,/HEAD_A4*%
X102000000Y-98725000D03*
%TO.P,J8,4,Pin_4*%
%TO.N,/GND*%
X102000000Y-101265000D03*
%TO.P,J8,5,Pin_5*%
%TO.N,/HEAD_A1*%
X99460001Y-98725000D03*
%TO.P,J8,6,Pin_6*%
%TO.N,/VCC*%
X99460000Y-101265000D03*
%TD*%
D20*
%TO.P,D21,1,A*%
%TO.N,/GND*%
X104940000Y-89650000D03*
%TO.P,D21,2,RK*%
%TO.N,/LED_R*%
X104940000Y-86350000D03*
%TO.P,D21,3,GK*%
%TO.N,/LED_G*%
X109940000Y-89650000D03*
%TO.P,D21,4,BK*%
%TO.N,/LED_B*%
X109940000Y-86350000D03*
%TD*%
%TO.P,D22,1,A*%
%TO.N,/GND*%
X194390000Y-88270000D03*
%TO.P,D22,2,RK*%
%TO.N,/LED_R*%
X194390000Y-84970000D03*
%TO.P,D22,3,GK*%
%TO.N,/LED_G*%
X199390000Y-88270000D03*
%TO.P,D22,4,BK*%
%TO.N,/LED_B*%
X199390000Y-84970000D03*
%TD*%
D10*
%TO.P,J3,1,Pin_1*%
%TO.N,/CAPS_LK_STAT*%
X166450000Y-101350000D03*
D11*
%TO.P,J3,2,Pin_2*%
%TO.N,/HEAD_A1*%
X163910000Y-101350000D03*
%TO.P,J3,3,Pin_3*%
%TO.N,/HEAD_A2*%
X161370001Y-101350000D03*
%TO.P,J3,4,Pin_4*%
%TO.N,/HEAD_A3*%
X158830000Y-101350000D03*
%TO.P,J3,5,Pin_5*%
%TO.N,/HEAD_A4*%
X156290000Y-101350000D03*
%TO.P,J3,6,Pin_6*%
%TO.N,/HEAD_A5*%
X153750000Y-101350000D03*
%TD*%
D20*
%TO.P,D19,1,A*%
%TO.N,/GND*%
X105260000Y-64930000D03*
%TO.P,D19,2,RK*%
%TO.N,/LED_R*%
X105260000Y-61630000D03*
%TO.P,D19,3,GK*%
%TO.N,/LED_G*%
X110260000Y-64930000D03*
%TO.P,D19,4,BK*%
%TO.N,/LED_B*%
X110260000Y-61630000D03*
%TD*%
%TO.P,D20,1,A*%
%TO.N,/GND*%
X190800000Y-71800000D03*
%TO.P,D20,2,RK*%
%TO.N,/LED_R*%
X190800000Y-68500000D03*
%TO.P,D20,3,GK*%
%TO.N,/LED_G*%
X195800000Y-71800000D03*
%TO.P,D20,4,BK*%
%TO.N,/LED_B*%
X195800000Y-68500000D03*
%TD*%
D10*
%TO.P,J4,1,Pin_1*%
%TO.N,unconnected-(J4-Pin_1-Pad1)*%
X130930001Y-101350000D03*
D11*
%TO.P,J4,2,Pin_2*%
%TO.N,/IOREF*%
X133470001Y-101350000D03*
%TO.P,J4,3,Pin_3*%
%TO.N,/RESET*%
X136010000Y-101350000D03*
%TO.P,J4,4,Pin_4*%
%TO.N,/3V3_LOGIC*%
X138550001Y-101350000D03*
%TO.P,J4,5,Pin_5*%
%TO.N,/VCC*%
X141090001Y-101350000D03*
%TO.P,J4,6,Pin_6*%
%TO.N,/GND*%
X143630001Y-101350000D03*
%TO.P,J4,7,Pin_7*%
X146170001Y-101350000D03*
%TO.P,J4,8,Pin_8*%
%TO.N,/VIN*%
X148710002Y-101350000D03*
%TD*%
D10*
%TO.P,J5,1,Pin_1*%
%TO.N,/INTA*%
X148690000Y-53100002D03*
D11*
%TO.P,J5,2,Pin_2*%
%TO.N,/ENC0_B_IN*%
X151230000Y-53100002D03*
%TO.P,J5,3,Pin_3*%
%TO.N,/ENC0_A_IN*%
X153769999Y-53100002D03*
%TO.P,J5,4,Pin_4*%
%TO.N,/ENC0_SW_IN*%
X156310000Y-53100002D03*
%TO.P,J5,5,Pin_5*%
%TO.N,unconnected-(J5-Pin_5-Pad5)*%
X158850000Y-53100002D03*
%TO.P,J5,6,Pin_6*%
%TO.N,unconnected-(J5-Pin_6-Pad6)*%
X161390000Y-53100002D03*
%TO.P,J5,7,Pin_7*%
%TO.N,/UART_TX*%
X163930000Y-53100002D03*
%TO.P,J5,8,Pin_8*%
%TO.N,/UART_RX*%
X166470001Y-53100002D03*
%TD*%
D10*
%TO.P,J1,1,Pin_1*%
%TO.N,/SDA*%
X109630000Y-53200000D03*
D11*
%TO.P,J1,2,Pin_2*%
%TO.N,/SCL*%
X112170000Y-53200000D03*
%TO.P,J1,3,Pin_3*%
%TO.N,/VCC*%
X114709999Y-53200000D03*
%TO.P,J1,4,Pin_4*%
%TO.N,/GND*%
X117250000Y-53200000D03*
%TD*%
D10*
%TO.P,J6,1,Pin_1*%
%TO.N,/SCL*%
X121829999Y-53100000D03*
D11*
%TO.P,J6,2,Pin_2*%
%TO.N,/SDA*%
X124369999Y-53100000D03*
%TO.P,J6,3,Pin_3*%
%TO.N,unconnected-(J6-Pin_3-Pad3)*%
X126909998Y-53100000D03*
%TO.P,J6,4,Pin_4*%
%TO.N,/GND*%
X129449999Y-53100000D03*
%TO.P,J6,5,Pin_5*%
%TO.N,/PROFILE_CHANGE_SW_IN*%
X131989999Y-53100000D03*
%TO.P,J6,6,Pin_6*%
%TO.N,/LAYER_CHANGE_SW_IN*%
X134529999Y-53100000D03*
%TO.P,J6,7,Pin_7*%
%TO.N,/ENC1_B_IN*%
X137069999Y-53100000D03*
%TO.P,J6,8,Pin_8*%
%TO.N,/ENC1_A_IN*%
X139610000Y-53100000D03*
%TO.P,J6,9,Pin_9*%
%TO.N,/ENC1_SW_IN*%
X142149999Y-53100000D03*
%TO.P,J6,10,Pin_10*%
%TO.N,/PWR_LED*%
X144689999Y-53100000D03*
%TD*%
D21*
%TO.N,/VCC*%
X195732814Y-46732814D03*
X180500000Y-94601000D03*
X199500000Y-93500000D03*
%TO.N,/HEAD_A4*%
X115350000Y-97574000D03*
%TO.N,/GND*%
X193199000Y-80260000D03*
X130000000Y-72000000D03*
X193400000Y-93400000D03*
X191500000Y-98750000D03*
%TO.N,/HEAD_A2*%
X114504999Y-98725000D03*
%TO.N,/UART_TX*%
X119500000Y-52750000D03*
X109250000Y-71750000D03*
%TO.N,/SDA*%
X205000000Y-96500000D03*
%TO.N,/PWR_LED*%
X103000000Y-70250000D03*
X119500000Y-53651000D03*
%TO.N,/LED_G*%
X107480000Y-93240000D03*
X112187000Y-65893000D03*
X129000000Y-64750000D03*
X194750000Y-74500000D03*
%TO.N,/LED_B*%
X112550000Y-68480000D03*
X105960000Y-92600000D03*
X130250000Y-62750000D03*
X198250000Y-75500000D03*
%TO.N,/LED_R*%
X130000000Y-64750000D03*
X193250000Y-73500000D03*
%TO.N,/WRT_PRTCT_TGGL*%
X204000000Y-96000000D03*
%TD*%
D22*
%TO.N,/VCC*%
X201200000Y-89751844D02*
X196350844Y-94601000D01*
X97909001Y-99714001D02*
X99460000Y-101265000D01*
X97909001Y-98082554D02*
X97909001Y-99714001D01*
X99951000Y-88820999D02*
X99951000Y-96040555D01*
X201200000Y-86957501D02*
X201200000Y-89751844D01*
X196350844Y-94601000D02*
X180500000Y-94601000D01*
X99951000Y-96040555D02*
X97909001Y-98082554D01*
X175139000Y-94601000D02*
X172190000Y-97550000D01*
X180500000Y-94601000D02*
X175139000Y-94601000D01*
X98400000Y-87269999D02*
X99951000Y-88820999D01*
X202850001Y-85307500D02*
X201200000Y-86957501D01*
D23*
%TO.N,/ENC1_SW_IN*%
X132800000Y-65900000D02*
X132800000Y-65260107D01*
X142149999Y-55910108D02*
X142149999Y-53100000D01*
X132800000Y-65260107D02*
X142149999Y-55910108D01*
%TO.N,/ENC0_SW_IN*%
X135918999Y-54481058D02*
X135918999Y-52623240D01*
X155158998Y-51949000D02*
X156310000Y-53100002D01*
X116051000Y-67201000D02*
X123199057Y-67201000D01*
X123199057Y-67201000D02*
X135918999Y-54481058D01*
X114750000Y-65900000D02*
X116051000Y-67201000D01*
X136593239Y-51949000D02*
X155158998Y-51949000D01*
X135918999Y-52623240D02*
X136593239Y-51949000D01*
%TO.N,/ENC0_B_IN*%
X160001000Y-52623242D02*
X160001000Y-54249000D01*
X107401000Y-51147000D02*
X158524758Y-51147000D01*
X98949000Y-64599000D02*
X98949000Y-59599000D01*
X158524758Y-51147000D02*
X160001000Y-52623242D01*
X159597998Y-54652002D02*
X152782000Y-54652002D01*
X152782000Y-54652002D02*
X151230000Y-53100002D01*
X98949000Y-59599000D02*
X107401000Y-51147000D01*
X100250000Y-65900000D02*
X98949000Y-64599000D01*
X160001000Y-54249000D02*
X159597998Y-54652002D01*
%TO.N,/HEAD_A4*%
X103151000Y-97574000D02*
X115350000Y-97574000D01*
X102000000Y-98725000D02*
X103151000Y-97574000D01*
%TO.N,/ENC0_A_IN*%
X157461000Y-52461000D02*
X157461000Y-53576762D01*
X100250000Y-59250000D02*
X107952000Y-51548000D01*
X156786760Y-54251002D02*
X154920999Y-54251002D01*
X154920999Y-54251002D02*
X153769999Y-53100002D01*
X107952000Y-51548000D02*
X156548000Y-51548000D01*
X100250000Y-60900000D02*
X100250000Y-59250000D01*
X157461000Y-53576762D02*
X156786760Y-54251002D01*
X156548000Y-51548000D02*
X157461000Y-52461000D01*
D22*
%TO.N,/GND*%
X128854578Y-74801000D02*
X127445422Y-74801000D01*
X194861000Y-88741000D02*
X194390000Y-88270000D01*
X129851000Y-73804578D02*
X128854578Y-74801000D01*
X106630794Y-55098000D02*
X103759000Y-57969794D01*
X100760000Y-86590000D02*
X103820000Y-89650000D01*
X103759000Y-57969794D02*
X103759000Y-63429000D01*
X127445422Y-74801000D02*
X127322211Y-74677789D01*
X103759000Y-63429000D02*
X105260000Y-64930000D01*
X103820000Y-89650000D02*
X104940000Y-89650000D01*
X190800000Y-72465628D02*
X190800000Y-71800000D01*
X105260000Y-64930000D02*
X100760000Y-69430000D01*
X194861000Y-91939000D02*
X194861000Y-88741000D01*
X130000000Y-72000000D02*
X129727789Y-72272211D01*
X193199000Y-74864628D02*
X193199000Y-80260000D01*
X193199000Y-74864628D02*
X190800000Y-72465628D01*
X108948000Y-55098000D02*
X106630794Y-55098000D01*
X129851000Y-72395422D02*
X129851000Y-73804578D01*
X129727789Y-72272211D02*
X129851000Y-72395422D01*
X114750000Y-60900000D02*
X108948000Y-55098000D01*
X193400000Y-93400000D02*
X194861000Y-91939000D01*
X100760000Y-69430000D02*
X100760000Y-86590000D01*
D23*
%TO.N,/ENC1_B_IN*%
X116999000Y-64599000D02*
X114211108Y-64599000D01*
X114211108Y-64599000D02*
X113449000Y-65361108D01*
X136319999Y-54647158D02*
X136319999Y-53100000D01*
X113449000Y-65361108D02*
X113449000Y-66438892D01*
X136319999Y-53100000D02*
X137069999Y-53100000D01*
X114211108Y-67201000D02*
X115483900Y-67201000D01*
X118300000Y-65900000D02*
X116999000Y-64599000D01*
X115483900Y-67201000D02*
X115884900Y-67602000D01*
X123365157Y-67602000D02*
X136319999Y-54647158D01*
X115884900Y-67602000D02*
X123365157Y-67602000D01*
X113449000Y-66438892D02*
X114211108Y-67201000D01*
%TO.N,/HEAD_A1*%
X99460001Y-98725000D02*
X100611001Y-99876000D01*
X178729000Y-86531000D02*
X180456050Y-86531000D01*
X189298000Y-66769100D02*
X190887100Y-65180000D01*
X120436000Y-99876000D02*
X121950000Y-101390000D01*
X163910000Y-101350000D02*
X178729000Y-86531000D01*
X189298000Y-77689050D02*
X189298000Y-66769100D01*
X190887100Y-65180000D02*
X201650000Y-65180000D01*
X100611001Y-99876000D02*
X120436000Y-99876000D01*
X180456050Y-86531000D02*
X189298000Y-77689050D01*
%TO.N,/CAPS_LK_STAT*%
X189699000Y-67051000D02*
X190750000Y-66000000D01*
X165249000Y-102551000D02*
X166450000Y-101350000D01*
X181001108Y-89409000D02*
X189699000Y-80711108D01*
X166450000Y-101350000D02*
X178391000Y-89409000D01*
X178391000Y-89409000D02*
X181001108Y-89409000D01*
X189699000Y-80711108D02*
X189699000Y-67051000D01*
X199930000Y-66000000D02*
X190750000Y-66000000D01*
X104540000Y-101265000D02*
X105826000Y-102551000D01*
X199930000Y-66000000D02*
X201650000Y-67720000D01*
X105826000Y-102551000D02*
X165249000Y-102551000D01*
%TO.N,/ENC1_A_IN*%
X113048000Y-66604992D02*
X113048000Y-65195008D01*
X136720999Y-54251000D02*
X136720999Y-54813258D01*
X115950000Y-63250000D02*
X118300000Y-60900000D01*
X113048000Y-65195008D02*
X114993008Y-63250000D01*
X138220999Y-53576760D02*
X137546759Y-54251000D01*
X139610000Y-53100000D02*
X138220999Y-53100000D01*
X114993008Y-63250000D02*
X115950000Y-63250000D01*
X137546759Y-54251000D02*
X136720999Y-54251000D01*
X114045008Y-67602000D02*
X113048000Y-66604992D01*
X115317800Y-67602000D02*
X114045008Y-67602000D01*
X138220999Y-53100000D02*
X138220999Y-53576760D01*
X136720999Y-54813258D02*
X123531257Y-68003000D01*
X123531257Y-68003000D02*
X115718800Y-68003000D01*
X115718800Y-68003000D02*
X115317800Y-67602000D01*
%TO.N,/HEAD_A2*%
X188897000Y-77270760D02*
X188897000Y-66603000D01*
X162521001Y-100199000D02*
X164493900Y-100199000D01*
X179622950Y-84250000D02*
X181917760Y-84250000D01*
X192860000Y-62640000D02*
X201650000Y-62640000D01*
X164493900Y-100199000D02*
X178899000Y-85793900D01*
X114504999Y-98725000D02*
X104540000Y-98725000D01*
X178899000Y-84973950D02*
X179622950Y-84250000D01*
X178899000Y-85793900D02*
X178899000Y-84973950D01*
X188897000Y-66603000D02*
X192860000Y-62640000D01*
X181917760Y-84250000D02*
X188897000Y-77270760D01*
X161370001Y-101350000D02*
X162521001Y-100199000D01*
%TO.N,unconnected-(ENC0-PadMP)*%
X107750000Y-57800000D02*
X107750000Y-69000000D01*
%TO.N,/LED1*%
X119700000Y-88350000D02*
X119700000Y-94850000D01*
%TO.N,/LED2*%
X128250000Y-88350000D02*
X128250000Y-94850000D01*
%TO.N,/LED3*%
X136800000Y-88350000D02*
X136800000Y-94850000D01*
%TO.N,/LED4*%
X145350000Y-88350000D02*
X145350000Y-94850000D01*
%TO.N,/LED5*%
X153900000Y-88350000D02*
X153900000Y-94850000D01*
%TO.N,/LED6*%
X162450001Y-88350000D02*
X162450001Y-94850000D01*
%TO.N,/LED7*%
X119600000Y-73100000D02*
X119600000Y-79600000D01*
%TO.N,/LED8*%
X130738500Y-85637160D02*
X128150000Y-83048660D01*
X130422660Y-87051000D02*
X130738500Y-86735160D01*
X128150000Y-83048660D02*
X128150000Y-79600000D01*
X125648000Y-83846660D02*
X128852340Y-87051000D01*
X126735787Y-73100000D02*
X125648000Y-74187787D01*
X130738500Y-86735160D02*
X130738500Y-85637160D01*
X128852340Y-87051000D02*
X130422660Y-87051000D01*
X128150000Y-73100000D02*
X126735787Y-73100000D01*
X125648000Y-74187787D02*
X125648000Y-83846660D01*
%TO.N,/LED9*%
X136700000Y-73100000D02*
X136700000Y-79600000D01*
%TO.N,/LED10*%
X145250000Y-73100000D02*
X145250000Y-79600000D01*
%TO.N,/LED11*%
X153800000Y-73100000D02*
X153800000Y-79600000D01*
%TO.N,/LED12*%
X162350000Y-73100000D02*
X162350000Y-79600000D01*
%TO.N,/LED16*%
X162350000Y-58700000D02*
X162350000Y-65200000D01*
%TO.N,/LED_G*%
X194750000Y-74500000D02*
X195800000Y-74500000D01*
X113878908Y-68003000D02*
X112647000Y-66771092D01*
X112647000Y-66353000D02*
X112187000Y-65893000D01*
X195760000Y-75510000D02*
X195760000Y-84640000D01*
X129000000Y-64750000D02*
X127351357Y-64750000D01*
X195760000Y-84640000D02*
X199390000Y-88270000D01*
X195800000Y-71800000D02*
X195800000Y-74500000D01*
X111224000Y-64930000D02*
X110260000Y-64930000D01*
X115151700Y-68003000D02*
X113878908Y-68003000D01*
X115552700Y-68404000D02*
X115151700Y-68003000D01*
X112187000Y-65893000D02*
X111224000Y-64930000D01*
X112647000Y-66771092D02*
X112647000Y-66353000D01*
X107480000Y-92110000D02*
X107480000Y-93240000D01*
X127351357Y-64750000D02*
X123697357Y-68404000D01*
X109940000Y-89650000D02*
X107480000Y-92110000D01*
X194750000Y-74500000D02*
X195760000Y-75510000D01*
X123697357Y-68404000D02*
X115552700Y-68404000D01*
%TO.N,/LED_B*%
X126587420Y-70901000D02*
X127701000Y-69787420D01*
X130601000Y-64998943D02*
X130601000Y-63101000D01*
X127701000Y-69787420D02*
X127701000Y-67519000D01*
X130601000Y-63101000D02*
X130250000Y-62750000D01*
X130248943Y-65351000D02*
X130601000Y-64998943D01*
X110260000Y-61630000D02*
X109159000Y-62731000D01*
X198250000Y-75500000D02*
X199000000Y-75500000D01*
X115386600Y-68805000D02*
X123863457Y-68805000D01*
X112550000Y-68480000D02*
X115061600Y-68480000D01*
X123863457Y-68805000D02*
X123863457Y-69751877D01*
X109159000Y-65415160D02*
X112223840Y-68480000D01*
X115061600Y-68480000D02*
X115386600Y-68805000D01*
X105960000Y-92600000D02*
X105960000Y-90330000D01*
X198250000Y-75500000D02*
X198250000Y-83830000D01*
X129869000Y-65351000D02*
X130248943Y-65351000D01*
X127701000Y-67519000D02*
X129869000Y-65351000D01*
X105960000Y-90330000D02*
X109940000Y-86350000D01*
X109159000Y-62731000D02*
X109159000Y-65415160D01*
X112223840Y-68480000D02*
X112550000Y-68480000D01*
X199000000Y-75500000D02*
X199000000Y-71700000D01*
X125012580Y-70901000D02*
X126587420Y-70901000D01*
X198250000Y-83830000D02*
X199390000Y-84970000D01*
X199000000Y-71700000D02*
X195800000Y-68500000D01*
X123863457Y-69751877D02*
X125012580Y-70901000D01*
%TO.N,/LED_R*%
X194000000Y-81890108D02*
X194890000Y-82780108D01*
X104940000Y-86350000D02*
X114478740Y-76811260D01*
X130498943Y-62149000D02*
X131002000Y-62652057D01*
X190800000Y-68500000D02*
X194000000Y-71700000D01*
X114478740Y-71302000D02*
X108151000Y-64974260D01*
X109651000Y-57012580D02*
X108537420Y-55899000D01*
X131002000Y-67053520D02*
X126753520Y-71302000D01*
X194000000Y-73500000D02*
X194000000Y-81890108D01*
X108537420Y-55899000D02*
X106962580Y-55899000D01*
X126753520Y-71302000D02*
X114478740Y-71302000D01*
X194890000Y-84470000D02*
X194390000Y-84970000D01*
X130001057Y-62149000D02*
X130498943Y-62149000D01*
X109651000Y-58587420D02*
X109651000Y-57012580D01*
X106962580Y-55899000D02*
X105260000Y-57601580D01*
X108151000Y-64974260D02*
X108151000Y-60087420D01*
X129649000Y-64399000D02*
X129649000Y-62501057D01*
X193250000Y-73500000D02*
X194000000Y-73500000D01*
X108151000Y-60087420D02*
X109651000Y-58587420D01*
X105260000Y-57601580D02*
X105260000Y-61630000D01*
X129649000Y-62501057D02*
X130001057Y-62149000D01*
X114478740Y-76811260D02*
X114478740Y-71302000D01*
X131002000Y-62652057D02*
X131002000Y-67053520D01*
X194000000Y-71700000D02*
X194000000Y-73500000D01*
X194890000Y-82780108D02*
X194890000Y-84470000D01*
X130000000Y-64750000D02*
X129649000Y-64399000D01*
%TD*%
M02*
