%TF.GenerationSoftware,KiCad,Pcbnew,9.0.1*%
%TF.CreationDate,2025-05-27T17:05:58+05:30*%
%TF.ProjectId,macronardo,6d616372-6f6e-4617-9264-6f2e6b696361,rev?*%
%TF.SameCoordinates,Original*%
%TF.FileFunction,Copper,L3,Inr*%
%TF.FilePolarity,Positive*%
%FSLAX46Y46*%
G04 Gerber Fmt 4.6, Leading zero omitted, Abs format (unit mm)*
G04 Created by KiCad (PCBNEW 9.0.1) date 2025-05-27 17:05:58*
%MOMM*%
%LPD*%
G01*
G04 APERTURE LIST*
G04 Aperture macros list*
%AMRoundRect*
0 Rectangle with rounded corners*
0 $1 Rounding radius*
0 $2 $3 $4 $5 $6 $7 $8 $9 X,Y pos of 4 corners*
0 Add a 4 corners polygon primitive as box body*
4,1,4,$2,$3,$4,$5,$6,$7,$8,$9,$2,$3,0*
0 Add four circle primitives for the rounded corners*
1,1,$1+$1,$2,$3*
1,1,$1+$1,$4,$5*
1,1,$1+$1,$6,$7*
1,1,$1+$1,$8,$9*
0 Add four rect primitives between the rounded corners*
20,1,$1+$1,$2,$3,$4,$5,0*
20,1,$1+$1,$4,$5,$6,$7,0*
20,1,$1+$1,$6,$7,$8,$9,0*
20,1,$1+$1,$8,$9,$2,$3,0*%
G04 Aperture macros list end*
%TA.AperFunction,ComponentPad*%
%ADD10R,1.700000X1.700000*%
%TD*%
%TA.AperFunction,ComponentPad*%
%ADD11C,1.700000*%
%TD*%
%TA.AperFunction,ComponentPad*%
%ADD12C,2.000000*%
%TD*%
%TA.AperFunction,ComponentPad*%
%ADD13R,2.000000X2.000000*%
%TD*%
%TA.AperFunction,ComponentPad*%
%ADD14RoundRect,0.250000X-0.550000X-0.550000X0.550000X-0.550000X0.550000X0.550000X-0.550000X0.550000X0*%
%TD*%
%TA.AperFunction,ComponentPad*%
%ADD15C,1.600000*%
%TD*%
%TA.AperFunction,ComponentPad*%
%ADD16C,3.200000*%
%TD*%
%TA.AperFunction,ComponentPad*%
%ADD17C,1.400000*%
%TD*%
%TA.AperFunction,ComponentPad*%
%ADD18O,1.400000X1.400000*%
%TD*%
%TA.AperFunction,ComponentPad*%
%ADD19R,1.600000X1.600000*%
%TD*%
%TA.AperFunction,ViaPad*%
%ADD20C,0.600000*%
%TD*%
%TA.AperFunction,Conductor*%
%ADD21C,0.200000*%
%TD*%
%TA.AperFunction,Conductor*%
%ADD22C,1.000000*%
%TD*%
G04 APERTURE END LIST*
D10*
%TO.N,unconnected-(J7-Pin_1-Pad1)*%
%TO.C,J7*%
X201650000Y-49940000D03*
D11*
%TO.N,/GND*%
X201650000Y-52480000D03*
%TO.N,/RST*%
X201650000Y-55020000D03*
%TO.N,/VCC*%
X201650000Y-57560000D03*
%TO.N,/GPIO23*%
X201650000Y-60100000D03*
%TO.N,/HEAD_A2*%
X201650000Y-62640000D03*
%TO.N,/HEAD_A1*%
X201650000Y-65180000D03*
%TO.N,/CAPS_LK_STAT*%
X201650000Y-67720000D03*
%TO.N,/PROMICRO_SCLK*%
X201650000Y-70260000D03*
%TO.N,/PROMICRO_MISO*%
X201650000Y-72800000D03*
%TO.N,/PROMICRO_MOSI*%
X201650000Y-75340000D03*
%TO.N,/GPIO10*%
X201650000Y-77880000D03*
%TD*%
D12*
%TO.N,/LAYERLED*%
%TO.C,SW16*%
X193200000Y-96350000D03*
X199700000Y-96350000D03*
%TO.N,/LAYER_CHANGE_SW_IN*%
X193200000Y-100850001D03*
X199700001Y-100850000D03*
%TD*%
%TO.N,/LED1*%
%TO.C,SW0*%
X119700000Y-94850000D03*
X119700000Y-88350000D03*
%TO.N,/SW1*%
X124200001Y-94850000D03*
X124200000Y-88349999D03*
%TD*%
%TO.N,/LED2*%
%TO.C,SW1*%
X128250000Y-94850000D03*
X128250000Y-88350000D03*
%TO.N,/SW2*%
X132750001Y-94850000D03*
X132750000Y-88349999D03*
%TD*%
D13*
%TO.N,/BUZZ (+)*%
%TO.C,BZ0*%
X193160000Y-90490000D03*
D12*
%TO.N,Net-(BZ0--)*%
X193160000Y-82890000D03*
%TD*%
D14*
%TO.N,/SW1*%
%TO.C,U0*%
X172380000Y-57490000D03*
D15*
%TO.N,/SW2*%
X172380000Y-60030000D03*
%TO.N,/SW3*%
X172380000Y-62570000D03*
%TO.N,/SW4*%
X172380000Y-65110000D03*
%TO.N,/SW5*%
X172380000Y-67650000D03*
%TO.N,/SW6*%
X172380000Y-70190000D03*
%TO.N,/SW7*%
X172380000Y-72730000D03*
%TO.N,/SW8*%
X172380000Y-75270000D03*
%TO.N,/VCC*%
X172380000Y-77810000D03*
%TO.N,/GND*%
X172380000Y-80350000D03*
%TO.N,unconnected-(U0-NC-Pad11)*%
X172380000Y-82890000D03*
%TO.N,/SCL*%
X172380000Y-85430000D03*
%TO.N,/SDA*%
X172380000Y-87970000D03*
%TO.N,unconnected-(U0-NC-Pad14)*%
X172380000Y-90510000D03*
%TO.N,/GND*%
X180000000Y-90510000D03*
X180000000Y-87970000D03*
X180000000Y-85430000D03*
%TO.N,/VCC*%
X180000000Y-82890000D03*
%TO.N,unconnected-(U0-INTB-Pad19)*%
X180000000Y-80350000D03*
%TO.N,/INTA*%
X180000000Y-77810000D03*
%TO.N,/SW9*%
X180000000Y-75270000D03*
%TO.N,/SW10*%
X180000000Y-72730000D03*
%TO.N,/SW11*%
X180000000Y-70190000D03*
%TO.N,/SW12*%
X180000000Y-67650000D03*
%TO.N,/SW13*%
X180000000Y-65110000D03*
%TO.N,/SW14*%
X180000000Y-62570000D03*
%TO.N,/SW15*%
X180000000Y-60030000D03*
%TO.N,/SW16*%
X180000000Y-57490000D03*
%TD*%
D12*
%TO.N,/LED16*%
%TO.C,SW15*%
X162350000Y-65200000D03*
X162350000Y-58700000D03*
%TO.N,/SW16*%
X166850001Y-65200000D03*
X166850000Y-58699999D03*
%TD*%
%TO.N,/LED3*%
%TO.C,SW2*%
X136800000Y-94850000D03*
X136800000Y-88350000D03*
%TO.N,/SW3*%
X141300001Y-94850000D03*
X141300000Y-88349999D03*
%TD*%
%TO.N,/LED6*%
%TO.C,SW5*%
X162450001Y-94850000D03*
X162450001Y-88350000D03*
%TO.N,/SW6*%
X166950002Y-94850000D03*
X166950001Y-88349999D03*
%TD*%
D13*
%TO.N,/ENC0_A_IN*%
%TO.C,ENC0*%
X100250000Y-60900000D03*
D12*
%TO.N,/ENC0_B_IN*%
X100250000Y-65900000D03*
%TO.N,unconnected-(ENC0-PadC)*%
X100250000Y-63400000D03*
D16*
%TO.N,unconnected-(ENC0-PadMP)*%
X107750000Y-57800000D03*
X107750000Y-69000000D03*
D12*
%TO.N,/ENC0_SW_IN*%
X114750000Y-65900000D03*
%TO.N,/GND*%
X114750000Y-60900000D03*
%TD*%
D17*
%TO.N,Net-(BZ0--)*%
%TO.C,R2*%
X179910000Y-52850000D03*
D18*
%TO.N,/GND*%
X172290000Y-52850000D03*
%TD*%
D12*
%TO.N,/LED8*%
%TO.C,SW7*%
X128150000Y-79600000D03*
X128150000Y-73100000D03*
%TO.N,/SW8*%
X132650001Y-79600000D03*
X132650000Y-73099999D03*
%TD*%
%TO.N,/LED14*%
%TO.C,SW13*%
X145250000Y-65200000D03*
X145250000Y-58700000D03*
%TO.N,/SW14*%
X149750001Y-65200000D03*
X149750000Y-58699999D03*
%TD*%
%TO.N,/LED12*%
%TO.C,SW11*%
X162350000Y-79600000D03*
X162350000Y-73100000D03*
%TO.N,/SW12*%
X166850001Y-79600000D03*
X166850000Y-73099999D03*
%TD*%
%TO.N,/PRFLELED*%
%TO.C,SW17*%
X182750000Y-96350000D03*
X189250000Y-96350000D03*
%TO.N,/PROFILE_CHANGE_SW_IN*%
X182750000Y-100850001D03*
X189250001Y-100850000D03*
%TD*%
D10*
%TO.N,/OLED_SDA*%
%TO.C,J0*%
X98400000Y-82190000D03*
D11*
%TO.N,/OLED_SCL*%
X98400000Y-84730000D03*
%TO.N,/VCC*%
X98400000Y-87269999D03*
%TO.N,/GND*%
X98400000Y-89810000D03*
%TD*%
D12*
%TO.N,/LED7*%
%TO.C,SW6*%
X119600000Y-79600000D03*
X119600000Y-73100000D03*
%TO.N,/SW7*%
X124100001Y-79600000D03*
X124100000Y-73099999D03*
%TD*%
D17*
%TO.N,/VCC*%
%TO.C,R0*%
X172190000Y-97550000D03*
D18*
%TO.N,/SDA*%
X179810000Y-97550000D03*
%TD*%
D12*
%TO.N,/LED15*%
%TO.C,SW14*%
X153800000Y-65200000D03*
X153800000Y-58700000D03*
%TO.N,/SW15*%
X158300001Y-65200000D03*
X158300000Y-58699999D03*
%TD*%
D10*
%TO.N,/CAPS_LK_STAT_IN*%
%TO.C,J9*%
X124490000Y-101390000D03*
D11*
%TO.N,/HEAD_A1*%
X121950000Y-101390000D03*
%TO.N,/HEAD_A2*%
X119410001Y-101390000D03*
%TO.N,/HEAD_A3*%
X116870000Y-101390000D03*
%TO.N,/HEAD_A4*%
X114330000Y-101390000D03*
%TO.N,/HEAD_A5*%
X111790000Y-101390000D03*
%TD*%
D12*
%TO.N,/LED4*%
%TO.C,SW3*%
X145350000Y-94850000D03*
X145350000Y-88350000D03*
%TO.N,/SW4*%
X149850001Y-94850000D03*
X149850000Y-88349999D03*
%TD*%
%TO.N,/LED5*%
%TO.C,SW4*%
X153900000Y-94850000D03*
X153900000Y-88350000D03*
%TO.N,/SW5*%
X158400001Y-94850000D03*
X158400000Y-88349999D03*
%TD*%
%TO.N,/LED13*%
%TO.C,SW12*%
X136700000Y-65200000D03*
X136700000Y-58700000D03*
%TO.N,/SW13*%
X141200001Y-65200000D03*
X141200000Y-58699999D03*
%TD*%
%TO.N,/LED10*%
%TO.C,SW9*%
X145250000Y-79600000D03*
X145250000Y-73100000D03*
%TO.N,/SW10*%
X149750001Y-79600000D03*
X149750000Y-73099999D03*
%TD*%
%TO.N,/LED11*%
%TO.C,SW10*%
X153800000Y-79600000D03*
X153800000Y-73100000D03*
%TO.N,/SW11*%
X158300001Y-79600000D03*
X158300000Y-73099999D03*
%TD*%
D10*
%TO.N,/PRMCO_TX*%
%TO.C,J2*%
X186400000Y-49940000D03*
D11*
%TO.N,/PRMCO_RX*%
X186400000Y-52480000D03*
%TO.N,/GND*%
X186400000Y-55020000D03*
X186400000Y-57560000D03*
%TO.N,/OLED_SDA*%
X186400000Y-60100000D03*
%TO.N,/OLED_SCL*%
X186400000Y-62640000D03*
%TO.N,/GPIO4*%
X186400000Y-65180000D03*
%TO.N,/LED_R*%
X186400000Y-67720000D03*
%TO.N,/LED_G*%
X186400000Y-70260000D03*
%TO.N,/BUZZ (+)*%
X186400000Y-72800000D03*
%TO.N,/GPIO8*%
X186400000Y-75340000D03*
%TO.N,/LED_B*%
X186400000Y-77880000D03*
%TD*%
D13*
%TO.N,/ENC1_A_IN*%
%TO.C,ENC1*%
X118300000Y-60900000D03*
D12*
%TO.N,/ENC1_B_IN*%
X118300000Y-65900000D03*
%TO.N,unconnected-(ENC1-PadC)*%
X118300000Y-63400000D03*
D16*
%TO.N,unconnected-(ENC1-PadMP)*%
X125800000Y-57800000D03*
X125800000Y-69000000D03*
D12*
%TO.N,/ENC1_SW_IN*%
X132800000Y-65900000D03*
%TO.N,/GND*%
X132800000Y-60900000D03*
%TD*%
D19*
%TO.N,/WRT_PRTCT_TGGL*%
%TO.C,SW18*%
X202850001Y-90307500D03*
D15*
%TO.N,/GND*%
X202850001Y-87807500D03*
%TO.N,/VCC*%
X202850001Y-85307500D03*
%TO.N,N/C*%
X206050001Y-90307500D03*
X206050001Y-87807500D03*
X206050001Y-85307500D03*
%TD*%
D17*
%TO.N,/VCC*%
%TO.C,R1*%
X172200000Y-101300000D03*
D18*
%TO.N,/SCL*%
X179820000Y-101300000D03*
%TD*%
D12*
%TO.N,/LED9*%
%TO.C,SW8*%
X136700000Y-79600000D03*
X136700000Y-73100000D03*
%TO.N,/SW9*%
X141200001Y-79600000D03*
X141200000Y-73099999D03*
%TD*%
D10*
%TO.N,/HEAD_A2*%
%TO.C,J8*%
X104540000Y-98725000D03*
D11*
%TO.N,/CAPS_LK_STAT*%
X104540000Y-101265000D03*
%TO.N,/HEAD_A4*%
X102000000Y-98725000D03*
%TO.N,/GND*%
X102000000Y-101265000D03*
%TO.N,/HEAD_A1*%
X99460001Y-98725000D03*
%TO.N,/VCC*%
X99460000Y-101265000D03*
%TD*%
D10*
%TO.N,/CAPS_LK_STAT*%
%TO.C,J3*%
X166450000Y-101350000D03*
D11*
%TO.N,/HEAD_A1*%
X163910000Y-101350000D03*
%TO.N,/HEAD_A2*%
X161370001Y-101350000D03*
%TO.N,/HEAD_A3*%
X158830000Y-101350000D03*
%TO.N,/HEAD_A4*%
X156290000Y-101350000D03*
%TO.N,/HEAD_A5*%
X153750000Y-101350000D03*
%TD*%
D10*
%TO.N,unconnected-(J4-Pin_1-Pad1)*%
%TO.C,J4*%
X130930001Y-101350000D03*
D11*
%TO.N,/IOREF*%
X133470001Y-101350000D03*
%TO.N,/RESET*%
X136010000Y-101350000D03*
%TO.N,/3V3_LOGIC*%
X138550001Y-101350000D03*
%TO.N,/VCC*%
X141090001Y-101350000D03*
%TO.N,/GND*%
X143630001Y-101350000D03*
X146170001Y-101350000D03*
%TO.N,/VIN*%
X148710002Y-101350000D03*
%TD*%
D10*
%TO.N,/INTA*%
%TO.C,J5*%
X148690000Y-53100002D03*
D11*
%TO.N,/ENC0_B_IN*%
X151230000Y-53100002D03*
%TO.N,/ENC0_A_IN*%
X153769999Y-53100002D03*
%TO.N,/ENC0_SW_IN*%
X156310000Y-53100002D03*
%TO.N,unconnected-(J5-Pin_5-Pad5)*%
X158850000Y-53100002D03*
%TO.N,unconnected-(J5-Pin_6-Pad6)*%
X161390000Y-53100002D03*
%TO.N,/UART_TX*%
X163930000Y-53100002D03*
%TO.N,/UART_RX*%
X166470001Y-53100002D03*
%TD*%
D10*
%TO.N,/SDA*%
%TO.C,J1*%
X109630000Y-53200000D03*
D11*
%TO.N,/SCL*%
X112170000Y-53200000D03*
%TO.N,/VCC*%
X114709999Y-53200000D03*
%TO.N,/GND*%
X117250000Y-53200000D03*
%TD*%
D10*
%TO.N,/SCL*%
%TO.C,J6*%
X121829999Y-53100000D03*
D11*
%TO.N,/SDA*%
X124369999Y-53100000D03*
%TO.N,unconnected-(J6-Pin_3-Pad3)*%
X126909998Y-53100000D03*
%TO.N,/GND*%
X129449999Y-53100000D03*
%TO.N,/PROFILE_CHANGE_SW_IN*%
X131989999Y-53100000D03*
%TO.N,/LAYER_CHANGE_SW_IN*%
X134529999Y-53100000D03*
%TO.N,/ENC1_B_IN*%
X137069999Y-53100000D03*
%TO.N,/ENC1_A_IN*%
X139610000Y-53100000D03*
%TO.N,/ENC1_SW_IN*%
X142149999Y-53100000D03*
%TO.N,/PWR_LED*%
X144689999Y-53100000D03*
%TD*%
D20*
%TO.N,/VCC*%
X195732814Y-46732814D03*
X180500000Y-94601000D03*
X199500000Y-93500000D03*
%TO.N,/HEAD_A4*%
X115350000Y-97574000D03*
%TO.N,/GND*%
X193199000Y-80260000D03*
X130000000Y-72000000D03*
X193400000Y-93400000D03*
X191500000Y-98750000D03*
%TO.N,/HEAD_A2*%
X114504999Y-98725000D03*
%TO.N,/UART_TX*%
X119500000Y-52750000D03*
X109250000Y-71750000D03*
%TO.N,/SDA*%
X205000000Y-96500000D03*
%TO.N,/PWR_LED*%
X103000000Y-70250000D03*
X119500000Y-53651000D03*
%TO.N,/LED_G*%
X107480000Y-93240000D03*
X112187000Y-65893000D03*
X129000000Y-64750000D03*
X194750000Y-74500000D03*
%TO.N,/LED_B*%
X112550000Y-68480000D03*
X105960000Y-92600000D03*
X130250000Y-62750000D03*
X198250000Y-75500000D03*
%TO.N,/LED_R*%
X130000000Y-64750000D03*
X193250000Y-73500000D03*
%TO.N,/WRT_PRTCT_TGGL*%
X204000000Y-96000000D03*
%TD*%
D21*
%TO.N,/LAYER_CHANGE_SW_IN*%
X193200000Y-100850001D02*
X199700001Y-100850000D01*
X135680999Y-54251000D02*
X134529999Y-53100000D01*
X198851000Y-75251057D02*
X187509943Y-63910000D01*
X180456050Y-58929000D02*
X171923950Y-58929000D01*
X187509943Y-63910000D02*
X185437050Y-63910000D01*
X198851000Y-95199001D02*
X198851000Y-75251057D01*
X193200000Y-100850001D02*
X198851000Y-95199001D01*
X185437050Y-63910000D02*
X180456050Y-58929000D01*
X167245950Y-54251000D02*
X135680999Y-54251000D01*
X171923950Y-58929000D02*
X167245950Y-54251000D01*
%TO.N,/HEAD_A5*%
X153750000Y-101350000D02*
X151837000Y-99437000D01*
X115481000Y-100949000D02*
X115481000Y-101866760D01*
X115481000Y-101866760D02*
X114806760Y-102541000D01*
X114806760Y-102541000D02*
X112941000Y-102541000D01*
X116993000Y-99437000D02*
X115481000Y-100949000D01*
X151837000Y-99437000D02*
X116993000Y-99437000D01*
X112941000Y-102541000D02*
X111790000Y-101390000D01*
D22*
%TO.N,/VCC*%
X178499000Y-84391000D02*
X180000000Y-82890000D01*
X180000000Y-82890000D02*
X177460000Y-82890000D01*
X178499000Y-92600000D02*
X178499000Y-84391000D01*
X177460000Y-82890000D02*
X172380000Y-77810000D01*
X180500000Y-94601000D02*
X178499000Y-92600000D01*
D21*
%TO.N,/INTA*%
X169671002Y-51949002D02*
X174111000Y-56389000D01*
X181101000Y-78911000D02*
X180000000Y-77810000D01*
X149841000Y-51949002D02*
X169671002Y-51949002D01*
X199748943Y-92899000D02*
X201001001Y-94151058D01*
X192661108Y-102151001D02*
X181101000Y-90590893D01*
X201001001Y-101388892D02*
X200238892Y-102151001D01*
X174111000Y-56389000D02*
X180456050Y-56389000D01*
X186876760Y-61489000D02*
X199748943Y-74361183D01*
X199748943Y-74361183D02*
X199748943Y-92899000D01*
X148690000Y-53100002D02*
X149841000Y-51949002D01*
X181101000Y-90590893D02*
X181101000Y-78911000D01*
X201001001Y-94151058D02*
X201001001Y-101388892D01*
X185556050Y-61489000D02*
X186876760Y-61489000D01*
X180456050Y-56389000D02*
X185556050Y-61489000D01*
X200238892Y-102151001D02*
X192661108Y-102151001D01*
%TO.N,/HEAD_A4*%
X115350000Y-97574000D02*
X115716000Y-97940000D01*
X114330000Y-101390000D02*
X114330000Y-100150000D01*
X115716000Y-97940000D02*
X116540000Y-97940000D01*
X152880000Y-97940000D02*
X156290000Y-101350000D01*
X114330000Y-100150000D02*
X116540000Y-97940000D01*
X116540000Y-97940000D02*
X152880000Y-97940000D01*
D22*
%TO.N,/GND*%
X194901000Y-97054578D02*
X193205578Y-98750000D01*
X193400000Y-93400000D02*
X194901000Y-94901000D01*
X194901000Y-94901000D02*
X194901000Y-97054578D01*
X193205578Y-98750000D02*
X191500000Y-98750000D01*
D21*
%TO.N,/PROFILE_CHANGE_SW_IN*%
X127774000Y-57315999D02*
X131989999Y-53100000D01*
X183400000Y-100850001D02*
X181162951Y-100850001D01*
X181162951Y-100850001D02*
X168251001Y-87938051D01*
X127774000Y-66013892D02*
X127774000Y-57315999D01*
X183400000Y-100850001D02*
X189900001Y-100850000D01*
X136161107Y-74400999D02*
X127774000Y-66013892D01*
X168251001Y-87340893D02*
X155311108Y-74401000D01*
X155311108Y-74401000D02*
X136161107Y-74400999D01*
X168251001Y-87938051D02*
X168251001Y-87340893D01*
%TO.N,/HEAD_A3*%
X125838000Y-99838000D02*
X128501000Y-102501000D01*
X128501000Y-102501000D02*
X157679000Y-102501000D01*
X118422000Y-99838000D02*
X125838000Y-99838000D01*
X157679000Y-102501000D02*
X158830000Y-101350000D01*
X116870000Y-101390000D02*
X118422000Y-99838000D01*
%TO.N,/HEAD_A1*%
X123959000Y-103399000D02*
X161861000Y-103399000D01*
X161861000Y-103399000D02*
X163910000Y-101350000D01*
X121950000Y-101390000D02*
X123959000Y-103399000D01*
%TO.N,/HEAD_A2*%
X112827240Y-98725000D02*
X110639000Y-100913240D01*
X119410001Y-101390000D02*
X120561001Y-100239000D01*
X120561001Y-100239000D02*
X125641000Y-100239000D01*
X125641000Y-100239000D02*
X128400000Y-102998000D01*
X110639000Y-102199000D02*
X111382000Y-102942000D01*
X111382000Y-102942000D02*
X117858001Y-102942000D01*
X117858001Y-102942000D02*
X119410001Y-101390000D01*
X159722001Y-102998000D02*
X161370001Y-101350000D01*
X110639000Y-100913240D02*
X110639000Y-102199000D01*
X128400000Y-102998000D02*
X159722001Y-102998000D01*
X114504999Y-98725000D02*
X112827240Y-98725000D01*
%TO.N,/UART_TX*%
X119748943Y-54252000D02*
X118998000Y-54252000D01*
X109500000Y-67500000D02*
X109651000Y-67651000D01*
X120101000Y-53899943D02*
X119748943Y-54252000D01*
X120101000Y-53351000D02*
X120101000Y-53899943D01*
X109250000Y-70750000D02*
X109250000Y-71750000D01*
X109500000Y-63750000D02*
X109500000Y-67500000D01*
X119500000Y-52750000D02*
X120101000Y-53351000D01*
X118998000Y-54252000D02*
X109500000Y-63750000D01*
X109651000Y-70349000D02*
X109500000Y-70500000D01*
X109651000Y-67651000D02*
X109651000Y-70349000D01*
X109500000Y-70500000D02*
X109250000Y-70750000D01*
%TO.N,/PWR_LED*%
X118849000Y-53651000D02*
X103000000Y-69500000D01*
X119500000Y-53651000D02*
X118849000Y-53651000D01*
X103000000Y-69500000D02*
X103000000Y-70250000D01*
%TO.N,unconnected-(ENC1-PadMP)*%
X125800000Y-57800000D02*
X125800000Y-69000000D01*
%TO.N,/LED_G*%
X186300000Y-70360000D02*
X186400000Y-70260000D01*
X190180000Y-74500000D02*
X190180000Y-74040000D01*
X185450000Y-71210000D02*
X186400000Y-70260000D01*
X190180000Y-74040000D02*
X186400000Y-70260000D01*
X186300000Y-70620000D02*
X186300000Y-70360000D01*
X190180000Y-74500000D02*
X194750000Y-74500000D01*
X129000000Y-64750000D02*
X135720000Y-71470000D01*
X135720000Y-71470000D02*
X185450000Y-71470000D01*
X185450000Y-71470000D02*
X185450000Y-71210000D01*
%TO.N,/LED_B*%
X197498943Y-74748943D02*
X198250000Y-75500000D01*
X191859943Y-78240000D02*
X186760000Y-78240000D01*
X130750000Y-62250000D02*
X133289892Y-62250000D01*
X185457050Y-66470000D02*
X187569943Y-66470000D01*
X195351000Y-74748943D02*
X191859943Y-78240000D01*
X134070892Y-61469000D02*
X180456050Y-61469000D01*
X186760000Y-78240000D02*
X186400000Y-77880000D01*
X195351000Y-74748943D02*
X197498943Y-74748943D01*
X195351000Y-74251057D02*
X195351000Y-74748943D01*
X187569943Y-66470000D02*
X195351000Y-74251057D01*
X130250000Y-62750000D02*
X130750000Y-62250000D01*
X180456050Y-61469000D02*
X185457050Y-66470000D01*
X133289892Y-62250000D02*
X134070892Y-61469000D01*
%TO.N,/LED_R*%
X181970000Y-63750000D02*
X185940000Y-67720000D01*
X186400000Y-67720000D02*
X186400000Y-68180000D01*
X131000000Y-63750000D02*
X181970000Y-63750000D01*
X186300000Y-68080000D02*
X187150000Y-68930000D01*
X187150000Y-68930000D02*
X191720000Y-73500000D01*
X185940000Y-67720000D02*
X186400000Y-67720000D01*
X186400000Y-68180000D02*
X187150000Y-68930000D01*
X191720000Y-73500000D02*
X193250000Y-73500000D01*
X130000000Y-64750000D02*
X131000000Y-63750000D01*
%TD*%
M02*
