%TF.GenerationSoftware,KiCad,Pcbnew,9.0.1*%
%TF.CreationDate,2025-05-27T17:05:58+05:30*%
%TF.ProjectId,macronardo,6d616372-6f6e-4617-9264-6f2e6b696361,rev?*%
%TF.SameCoordinates,Original*%
%TF.FileFunction,Soldermask,Top*%
%TF.FilePolarity,Negative*%
%FSLAX46Y46*%
G04 Gerber Fmt 4.6, Leading zero omitted, Abs format (unit mm)*
G04 Created by KiCad (PCBNEW 9.0.1) date 2025-05-27 17:05:58*
%MOMM*%
%LPD*%
G01*
G04 APERTURE LIST*
G04 Aperture macros list*
%AMRoundRect*
0 Rectangle with rounded corners*
0 $1 Rounding radius*
0 $2 $3 $4 $5 $6 $7 $8 $9 X,Y pos of 4 corners*
0 Add a 4 corners polygon primitive as box body*
4,1,4,$2,$3,$4,$5,$6,$7,$8,$9,$2,$3,0*
0 Add four circle primitives for the rounded corners*
1,1,$1+$1,$2,$3*
1,1,$1+$1,$4,$5*
1,1,$1+$1,$6,$7*
1,1,$1+$1,$8,$9*
0 Add four rect primitives between the rounded corners*
20,1,$1+$1,$2,$3,$4,$5,0*
20,1,$1+$1,$4,$5,$6,$7,0*
20,1,$1+$1,$6,$7,$8,$9,0*
20,1,$1+$1,$8,$9,$2,$3,0*%
G04 Aperture macros list end*
%ADD10R,1.700000X1.700000*%
%ADD11C,1.700000*%
%ADD12RoundRect,0.250001X-0.462499X-0.624999X0.462499X-0.624999X0.462499X0.624999X-0.462499X0.624999X0*%
%ADD13C,2.000000*%
%ADD14R,2.000000X2.000000*%
%ADD15RoundRect,0.250000X-0.550000X-0.550000X0.550000X-0.550000X0.550000X0.550000X-0.550000X0.550000X0*%
%ADD16C,1.600000*%
%ADD17C,3.200000*%
%ADD18C,1.400000*%
%ADD19O,1.400000X1.400000*%
%ADD20RoundRect,0.150000X0.150000X-0.825000X0.150000X0.825000X-0.150000X0.825000X-0.150000X-0.825000X0*%
%ADD21RoundRect,0.250000X-0.325000X-1.100000X0.325000X-1.100000X0.325000X1.100000X-0.325000X1.100000X0*%
%ADD22R,1.600000X1.600000*%
%ADD23RoundRect,0.250001X0.462499X0.624999X-0.462499X0.624999X-0.462499X-0.624999X0.462499X-0.624999X0*%
G04 APERTURE END LIST*
D10*
%TO.C,J7*%
X201650000Y-49940000D03*
D11*
X201650000Y-52480000D03*
X201650000Y-55020000D03*
X201650000Y-57560000D03*
X201650000Y-60100000D03*
X201650000Y-62640000D03*
X201650000Y-65180000D03*
X201650000Y-67720000D03*
X201650000Y-70260000D03*
X201650000Y-72800000D03*
X201650000Y-75340000D03*
X201650000Y-77880000D03*
%TD*%
D12*
%TO.C,D15*%
X162350000Y-68550000D03*
X165325000Y-68550000D03*
%TD*%
D13*
%TO.C,SW16*%
X193200000Y-96350000D03*
X199700000Y-96350000D03*
X193200000Y-100850001D03*
X199700001Y-100850000D03*
%TD*%
%TO.C,SW0*%
X119700000Y-94850000D03*
X119700000Y-88350000D03*
X124200001Y-94850000D03*
X124200000Y-88349999D03*
%TD*%
%TO.C,SW1*%
X128250000Y-94850000D03*
X128250000Y-88350000D03*
X132750001Y-94850000D03*
X132750000Y-88349999D03*
%TD*%
D12*
%TO.C,D16*%
X99662500Y-73650000D03*
X102637500Y-73650000D03*
%TD*%
%TO.C,D7*%
X128150000Y-82950000D03*
X131125000Y-82950000D03*
%TD*%
%TO.C,D14*%
X153800000Y-68550000D03*
X156775000Y-68550000D03*
%TD*%
%TO.C,D13*%
X145250000Y-68550000D03*
X148225000Y-68550000D03*
%TD*%
%TO.C,D1*%
X128250000Y-98150000D03*
X131225000Y-98150000D03*
%TD*%
D14*
%TO.C,BZ0*%
X193160000Y-90490000D03*
D13*
X193160000Y-82890000D03*
%TD*%
D12*
%TO.C,D23*%
X193000000Y-103500000D03*
X195975000Y-103500000D03*
%TD*%
%TO.C,D8*%
X136700000Y-82950000D03*
X139675000Y-82950000D03*
%TD*%
D15*
%TO.C,U0*%
X172380000Y-57490000D03*
D16*
X172380000Y-60030000D03*
X172380000Y-62570000D03*
X172380000Y-65110000D03*
X172380000Y-67650000D03*
X172380000Y-70190000D03*
X172380000Y-72730000D03*
X172380000Y-75270000D03*
X172380000Y-77810000D03*
X172380000Y-80350000D03*
X172380000Y-82890000D03*
X172380000Y-85430000D03*
X172380000Y-87970000D03*
X172380000Y-90510000D03*
X180000000Y-90510000D03*
X180000000Y-87970000D03*
X180000000Y-85430000D03*
X180000000Y-82890000D03*
X180000000Y-80350000D03*
X180000000Y-77810000D03*
X180000000Y-75270000D03*
X180000000Y-72730000D03*
X180000000Y-70190000D03*
X180000000Y-67650000D03*
X180000000Y-65110000D03*
X180000000Y-62570000D03*
X180000000Y-60030000D03*
X180000000Y-57490000D03*
%TD*%
D13*
%TO.C,SW15*%
X162350000Y-65200000D03*
X162350000Y-58700000D03*
X166850001Y-65200000D03*
X166850000Y-58699999D03*
%TD*%
%TO.C,SW2*%
X136800000Y-94850000D03*
X136800000Y-88350000D03*
X141300001Y-94850000D03*
X141300000Y-88349999D03*
%TD*%
%TO.C,SW5*%
X162450001Y-94850000D03*
X162450001Y-88350000D03*
X166950002Y-94850000D03*
X166950001Y-88349999D03*
%TD*%
D14*
%TO.C,ENC0*%
X100250000Y-60900000D03*
D13*
X100250000Y-65900000D03*
X100250000Y-63400000D03*
D17*
X107750000Y-57800000D03*
X107750000Y-69000000D03*
D13*
X114750000Y-65900000D03*
X114750000Y-60900000D03*
%TD*%
D18*
%TO.C,R2*%
X179910000Y-52850000D03*
D19*
X172290000Y-52850000D03*
%TD*%
D13*
%TO.C,SW7*%
X128150000Y-79600000D03*
X128150000Y-73100000D03*
X132650001Y-79600000D03*
X132650000Y-73099999D03*
%TD*%
D12*
%TO.C,D12*%
X136700000Y-68550000D03*
X139675000Y-68550000D03*
%TD*%
D13*
%TO.C,SW13*%
X145250000Y-65200000D03*
X145250000Y-58700000D03*
X149750001Y-65200000D03*
X149750000Y-58699999D03*
%TD*%
D12*
%TO.C,D11*%
X162350000Y-82950000D03*
X165325000Y-82950000D03*
%TD*%
D13*
%TO.C,SW11*%
X162350000Y-79600000D03*
X162350000Y-73100000D03*
X166850001Y-79600000D03*
X166850000Y-73099999D03*
%TD*%
%TO.C,SW17*%
X182750000Y-96350000D03*
X189250000Y-96350000D03*
X182750000Y-100850001D03*
X189250001Y-100850000D03*
%TD*%
D10*
%TO.C,J0*%
X98400000Y-82190000D03*
D11*
X98400000Y-84730000D03*
X98400000Y-87269999D03*
X98400000Y-89810000D03*
%TD*%
D13*
%TO.C,SW6*%
X119600000Y-79600000D03*
X119600000Y-73100000D03*
X124100001Y-79600000D03*
X124100000Y-73099999D03*
%TD*%
D18*
%TO.C,R0*%
X172190000Y-97550000D03*
D19*
X179810000Y-97550000D03*
%TD*%
D12*
%TO.C,D2*%
X136800000Y-98150000D03*
X139775000Y-98150000D03*
%TD*%
D20*
%TO.C,U1*%
X202495000Y-99025000D03*
X203765000Y-99025000D03*
X205035000Y-99025000D03*
X206305000Y-99025000D03*
X206305000Y-94075000D03*
X205035000Y-94075000D03*
X203765000Y-94075000D03*
X202495000Y-94075000D03*
%TD*%
D12*
%TO.C,D9*%
X145250000Y-82950000D03*
X148225000Y-82950000D03*
%TD*%
%TO.C,D10*%
X153800000Y-82950000D03*
X156775000Y-82950000D03*
%TD*%
%TO.C,D0*%
X119700000Y-98200000D03*
X122675000Y-98200000D03*
%TD*%
D13*
%TO.C,SW14*%
X153800000Y-65200000D03*
X153800000Y-58700000D03*
X158300001Y-65200000D03*
X158300000Y-58699999D03*
%TD*%
D10*
%TO.C,J9*%
X124490000Y-101390000D03*
D11*
X121950000Y-101390000D03*
X119410001Y-101390000D03*
X116870000Y-101390000D03*
X114330000Y-101390000D03*
X111790000Y-101390000D03*
%TD*%
D13*
%TO.C,SW3*%
X145350000Y-94850000D03*
X145350000Y-88350000D03*
X149850001Y-94850000D03*
X149850000Y-88349999D03*
%TD*%
%TO.C,SW4*%
X153900000Y-94850000D03*
X153900000Y-88350000D03*
X158400001Y-94850000D03*
X158400000Y-88349999D03*
%TD*%
D12*
%TO.C,D17*%
X105962500Y-73650000D03*
X108937500Y-73650000D03*
%TD*%
D13*
%TO.C,SW12*%
X136700000Y-65200000D03*
X136700000Y-58700000D03*
X141200001Y-65200000D03*
X141200000Y-58699999D03*
%TD*%
D21*
%TO.C,C0*%
X174774999Y-94150000D03*
X177725001Y-94150000D03*
%TD*%
D13*
%TO.C,SW9*%
X145250000Y-79600000D03*
X145250000Y-73100000D03*
X149750001Y-79600000D03*
X149750000Y-73099999D03*
%TD*%
D12*
%TO.C,D5*%
X162450000Y-98150000D03*
X165425000Y-98150000D03*
%TD*%
D13*
%TO.C,SW10*%
X153800000Y-79600000D03*
X153800000Y-73100000D03*
X158300001Y-79600000D03*
X158300000Y-73099999D03*
%TD*%
D10*
%TO.C,J2*%
X186400000Y-49940000D03*
D11*
X186400000Y-52480000D03*
X186400000Y-55020000D03*
X186400000Y-57560000D03*
X186400000Y-60100000D03*
X186400000Y-62640000D03*
X186400000Y-65180000D03*
X186400000Y-67720000D03*
X186400000Y-70260000D03*
X186400000Y-72800000D03*
X186400000Y-75340000D03*
X186400000Y-77880000D03*
%TD*%
D12*
%TO.C,D6*%
X119600000Y-82950000D03*
X122575000Y-82950000D03*
%TD*%
D14*
%TO.C,ENC1*%
X118300000Y-60900000D03*
D13*
X118300000Y-65900000D03*
X118300000Y-63400000D03*
D17*
X125800000Y-57800000D03*
X125800000Y-69000000D03*
D13*
X132800000Y-65900000D03*
X132800000Y-60900000D03*
%TD*%
D22*
%TO.C,SW18*%
X202850001Y-90307500D03*
D16*
X202850001Y-87807500D03*
X202850001Y-85307500D03*
X206050001Y-90307500D03*
X206050001Y-87807500D03*
X206050001Y-85307500D03*
%TD*%
D18*
%TO.C,R1*%
X172200000Y-101300000D03*
D19*
X179820000Y-101300000D03*
%TD*%
D12*
%TO.C,D3*%
X145350000Y-98150000D03*
X148325000Y-98150000D03*
%TD*%
%TO.C,D18*%
X112312500Y-73650000D03*
X115287500Y-73650000D03*
%TD*%
%TO.C,D4*%
X153900000Y-98150000D03*
X156875000Y-98150000D03*
%TD*%
D13*
%TO.C,SW8*%
X136700000Y-79600000D03*
X136700000Y-73100000D03*
X141200001Y-79600000D03*
X141200000Y-73099999D03*
%TD*%
D23*
%TO.C,D24*%
X186487500Y-103500000D03*
X183512500Y-103500000D03*
%TD*%
D10*
%TO.C,J8*%
X104540000Y-98725000D03*
D11*
X104540000Y-101265000D03*
X102000000Y-98725000D03*
X102000000Y-101265000D03*
X99460001Y-98725000D03*
X99460000Y-101265000D03*
%TD*%
D10*
%TO.C,J3*%
X166450000Y-101350000D03*
D11*
X163910000Y-101350000D03*
X161370001Y-101350000D03*
X158830000Y-101350000D03*
X156290000Y-101350000D03*
X153750000Y-101350000D03*
%TD*%
D10*
%TO.C,J4*%
X130930001Y-101350000D03*
D11*
X133470001Y-101350000D03*
X136010000Y-101350000D03*
X138550001Y-101350000D03*
X141090001Y-101350000D03*
X143630001Y-101350000D03*
X146170001Y-101350000D03*
X148710002Y-101350000D03*
%TD*%
D10*
%TO.C,J5*%
X148690000Y-53100002D03*
D11*
X151230000Y-53100002D03*
X153769999Y-53100002D03*
X156310000Y-53100002D03*
X158850000Y-53100002D03*
X161390000Y-53100002D03*
X163930000Y-53100002D03*
X166470001Y-53100002D03*
%TD*%
D10*
%TO.C,J1*%
X109630000Y-53200000D03*
D11*
X112170000Y-53200000D03*
X114709999Y-53200000D03*
X117250000Y-53200000D03*
%TD*%
D10*
%TO.C,J6*%
X121829999Y-53100000D03*
D11*
X124369999Y-53100000D03*
X126909998Y-53100000D03*
X129449999Y-53100000D03*
X131989999Y-53100000D03*
X134529999Y-53100000D03*
X137069999Y-53100000D03*
X139610000Y-53100000D03*
X142149999Y-53100000D03*
X144689999Y-53100000D03*
%TD*%
M02*
