%TF.GenerationSoftware,KiCad,Pcbnew,9.0.1*%
%TF.CreationDate,2025-05-27T17:05:58+05:30*%
%TF.ProjectId,macronardo,6d616372-6f6e-4617-9264-6f2e6b696361,rev?*%
%TF.SameCoordinates,Original*%
%TF.FileFunction,Legend,Bot*%
%TF.FilePolarity,Positive*%
%FSLAX46Y46*%
G04 Gerber Fmt 4.6, Leading zero omitted, Abs format (unit mm)*
G04 Created by KiCad (PCBNEW 9.0.1) date 2025-05-27 17:05:58*
%MOMM*%
%LPD*%
G01*
G04 APERTURE LIST*
%ADD10C,0.100000*%
%ADD11C,0.200000*%
%ADD12C,0.150000*%
%ADD13C,0.120000*%
G04 APERTURE END LIST*
D10*
X117150000Y-93350000D02*
G75*
G02*
X107150000Y-93350000I-5000000J0D01*
G01*
X107150000Y-73350000D02*
G75*
G02*
X117150000Y-73350000I5000000J0D01*
G01*
X117150000Y-73350000D02*
X117150000Y-93350000D01*
X107150000Y-93350000D02*
X107150000Y-73350000D01*
D11*
G36*
X110045000Y-73940212D02*
G01*
X109541065Y-73923848D01*
X109339931Y-73917681D01*
X109474204Y-73874633D01*
X109779263Y-73775593D01*
X109779263Y-73670385D01*
X109474204Y-73580870D01*
X109339931Y-73543318D01*
X109536974Y-73538555D01*
X110045000Y-73523534D01*
X110045000Y-73380713D01*
X109154002Y-73424433D01*
X109154002Y-73614392D01*
X109408564Y-73692916D01*
X109551995Y-73730469D01*
X109416807Y-73768021D01*
X109154002Y-73850697D01*
X109154002Y-74044077D01*
X110045000Y-74088468D01*
X110045000Y-73940212D01*
G37*
G36*
X109893997Y-74196916D02*
G01*
X109934663Y-74207292D01*
X109971335Y-74224821D01*
X110001707Y-74248630D01*
X110026163Y-74278795D01*
X110045061Y-74316285D01*
X110056529Y-74358583D01*
X110060631Y-74409830D01*
X110058601Y-74449261D01*
X110052815Y-74483958D01*
X110043288Y-74516811D01*
X110030772Y-74546484D01*
X109997128Y-74599057D01*
X109954691Y-74644853D01*
X110045000Y-74648944D01*
X110045000Y-74791765D01*
X109572084Y-74791765D01*
X109515722Y-74787250D01*
X109469563Y-74774668D01*
X109429186Y-74752859D01*
X109396290Y-74721728D01*
X109371240Y-74682227D01*
X109352327Y-74630504D01*
X109341631Y-74572326D01*
X109337672Y-74498002D01*
X109341044Y-74428481D01*
X109350983Y-74362386D01*
X109366505Y-74299400D01*
X109384567Y-74247287D01*
X109517435Y-74247287D01*
X109494375Y-74304252D01*
X109477135Y-74363058D01*
X109466327Y-74423264D01*
X109462725Y-74484324D01*
X109465004Y-74521636D01*
X109471090Y-74549904D01*
X109481449Y-74574674D01*
X109494659Y-74593318D01*
X109511477Y-74607710D01*
X109531723Y-74617559D01*
X109554400Y-74623117D01*
X109580633Y-74625069D01*
X109622948Y-74625069D01*
X109622948Y-74534211D01*
X109623545Y-74523281D01*
X109740184Y-74523281D01*
X109740184Y-74625069D01*
X109831592Y-74625069D01*
X109874310Y-74579906D01*
X109902911Y-74542393D01*
X109921951Y-74504326D01*
X109927763Y-74469975D01*
X109921868Y-74426351D01*
X109905903Y-74395481D01*
X109889570Y-74380600D01*
X109868861Y-74371458D01*
X109842400Y-74368187D01*
X109822063Y-74370338D01*
X109803077Y-74376735D01*
X109785939Y-74387539D01*
X109770471Y-74403724D01*
X109758220Y-74424068D01*
X109748244Y-74451535D01*
X109742379Y-74482594D01*
X109740184Y-74523281D01*
X109623545Y-74523281D01*
X109627492Y-74451074D01*
X109639923Y-74384246D01*
X109660773Y-74324038D01*
X109686634Y-74277634D01*
X109719835Y-74239956D01*
X109757770Y-74214131D01*
X109800680Y-74198582D01*
X109847896Y-74193309D01*
X109893997Y-74196916D01*
G37*
G36*
X110017644Y-75544216D02*
G01*
X110034955Y-75494246D01*
X110047137Y-75442428D01*
X110054284Y-75389130D01*
X110056723Y-75332458D01*
X110050853Y-75252412D01*
X110034253Y-75184202D01*
X110005986Y-75122991D01*
X109967513Y-75072827D01*
X109918578Y-75032860D01*
X109857848Y-75002852D01*
X109789339Y-74984994D01*
X109706662Y-74978611D01*
X109626189Y-74985402D01*
X109556147Y-75004867D01*
X109493141Y-75036877D01*
X109441048Y-75078995D01*
X109399097Y-75131256D01*
X109367470Y-75194094D01*
X109348274Y-75263959D01*
X109341580Y-75344059D01*
X109343710Y-75409049D01*
X109349335Y-75457815D01*
X109368935Y-75540797D01*
X109529159Y-75540797D01*
X109511109Y-75497058D01*
X109497407Y-75448900D01*
X109488886Y-75399866D01*
X109486172Y-75354989D01*
X109490225Y-75310150D01*
X109501803Y-75271641D01*
X109520608Y-75237424D01*
X109545218Y-75209481D01*
X109575528Y-75187452D01*
X109612690Y-75170891D01*
X109653644Y-75161011D01*
X109699823Y-75157580D01*
X109747737Y-75161319D01*
X109788728Y-75171929D01*
X109825485Y-75189496D01*
X109855528Y-75212534D01*
X109879629Y-75241328D01*
X109897538Y-75275732D01*
X109908368Y-75314066D01*
X109912131Y-75357737D01*
X109908956Y-75403838D01*
X109899797Y-75452320D01*
X109886058Y-75500130D01*
X109869145Y-75544216D01*
X110017644Y-75544216D01*
G37*
G36*
X109619040Y-76198360D02*
G01*
X109582760Y-76197997D01*
X109554987Y-76194574D01*
X109530111Y-76187662D01*
X109511390Y-76178210D01*
X109496352Y-76165426D01*
X109486294Y-76150488D01*
X109480415Y-76133282D01*
X109478356Y-76112997D01*
X109485310Y-76076912D01*
X109508398Y-76036793D01*
X109544773Y-75998541D01*
X109607316Y-75950392D01*
X110045000Y-75950392D01*
X110045000Y-75779605D01*
X109349396Y-75779605D01*
X109349396Y-75930547D01*
X109454909Y-75936714D01*
X109406671Y-75975305D01*
X109369729Y-76023115D01*
X109356155Y-76050591D01*
X109345976Y-76081550D01*
X109339823Y-76114569D01*
X109337672Y-76151892D01*
X109342338Y-76202514D01*
X109355563Y-76245132D01*
X109377739Y-76282522D01*
X109408564Y-76313459D01*
X109446981Y-76337008D01*
X109496613Y-76354431D01*
X109551767Y-76363729D01*
X109619040Y-76365727D01*
X109619040Y-76198360D01*
G37*
G36*
X109788942Y-76480693D02*
G01*
X109859314Y-76497252D01*
X109921770Y-76525309D01*
X109971055Y-76562159D01*
X110009904Y-76608801D01*
X110038161Y-76665291D01*
X110054765Y-76728690D01*
X110060631Y-76803288D01*
X110053712Y-76881618D01*
X110034070Y-76948063D01*
X110001806Y-77007027D01*
X109959148Y-77055347D01*
X109906554Y-77093552D01*
X109842950Y-77122269D01*
X109772844Y-77139527D01*
X109693351Y-77145533D01*
X109609196Y-77139661D01*
X109539722Y-77123307D01*
X109477798Y-77095587D01*
X109428347Y-77058766D01*
X109389096Y-77012143D01*
X109360509Y-76955635D01*
X109343644Y-76892136D01*
X109337672Y-76816966D01*
X109338157Y-76811470D01*
X109482264Y-76811470D01*
X109488709Y-76861628D01*
X109506741Y-76900685D01*
X109536242Y-76931332D01*
X109574483Y-76952501D01*
X109626814Y-76966674D01*
X109697442Y-76971999D01*
X109742689Y-76969534D01*
X109783660Y-76962412D01*
X109821767Y-76950194D01*
X109853269Y-76933714D01*
X109879567Y-76911674D01*
X109899431Y-76883827D01*
X109911702Y-76851179D01*
X109916039Y-76811470D01*
X109909700Y-76763538D01*
X109891593Y-76724393D01*
X109861390Y-76691913D01*
X109822471Y-76669045D01*
X109769654Y-76653869D01*
X109698785Y-76648194D01*
X109654845Y-76650557D01*
X109614644Y-76657414D01*
X109577179Y-76669509D01*
X109545767Y-76686418D01*
X109519318Y-76709024D01*
X109499239Y-76736976D01*
X109486746Y-76769959D01*
X109482264Y-76811470D01*
X109338157Y-76811470D01*
X109344484Y-76739788D01*
X109363928Y-76673473D01*
X109395762Y-76614460D01*
X109437873Y-76565884D01*
X109489827Y-76527373D01*
X109553033Y-76498290D01*
X109622863Y-76480825D01*
X109702876Y-76474720D01*
X109788942Y-76480693D01*
G37*
G36*
X110045000Y-77703323D02*
G01*
X109595654Y-77703323D01*
X109550164Y-77698991D01*
X109519267Y-77687755D01*
X109498905Y-77671092D01*
X109486663Y-77648710D01*
X109482264Y-77618632D01*
X109485827Y-77591574D01*
X109496785Y-77564822D01*
X109516214Y-77537665D01*
X109554180Y-77499817D01*
X109608538Y-77456027D01*
X110045000Y-77456027D01*
X110045000Y-77289331D01*
X109349396Y-77289331D01*
X109349396Y-77433496D01*
X109452100Y-77437587D01*
X109404900Y-77481612D01*
X109368630Y-77531132D01*
X109355429Y-77558701D01*
X109345671Y-77588529D01*
X109339767Y-77620352D01*
X109337672Y-77657527D01*
X109342257Y-77708628D01*
X109355075Y-77750401D01*
X109376135Y-77786956D01*
X109404106Y-77816652D01*
X109438482Y-77839703D01*
X109480432Y-77856646D01*
X109526638Y-77866485D01*
X109580266Y-77869958D01*
X110045000Y-77869958D01*
X110045000Y-77703323D01*
G37*
G36*
X109893997Y-78041299D02*
G01*
X109934663Y-78051674D01*
X109971335Y-78069204D01*
X110001707Y-78093012D01*
X110026163Y-78123177D01*
X110045061Y-78160668D01*
X110056529Y-78202966D01*
X110060631Y-78254213D01*
X110058601Y-78293643D01*
X110052815Y-78328340D01*
X110043288Y-78361194D01*
X110030772Y-78390867D01*
X109997128Y-78443440D01*
X109954691Y-78489235D01*
X110045000Y-78493326D01*
X110045000Y-78636147D01*
X109572084Y-78636147D01*
X109515722Y-78631632D01*
X109469563Y-78619050D01*
X109429186Y-78597242D01*
X109396290Y-78566111D01*
X109371240Y-78526609D01*
X109352327Y-78474886D01*
X109341631Y-78416709D01*
X109337672Y-78342384D01*
X109341044Y-78272863D01*
X109350983Y-78206769D01*
X109366505Y-78143783D01*
X109384567Y-78091669D01*
X109517435Y-78091669D01*
X109494375Y-78148635D01*
X109477135Y-78207440D01*
X109466327Y-78267646D01*
X109462725Y-78328707D01*
X109465004Y-78366018D01*
X109471090Y-78394286D01*
X109481449Y-78419056D01*
X109494659Y-78437700D01*
X109511477Y-78452093D01*
X109531723Y-78461941D01*
X109554400Y-78467499D01*
X109580633Y-78469452D01*
X109622948Y-78469452D01*
X109622948Y-78378593D01*
X109623545Y-78367663D01*
X109740184Y-78367663D01*
X109740184Y-78469452D01*
X109831592Y-78469452D01*
X109874310Y-78424289D01*
X109902911Y-78386775D01*
X109921951Y-78348709D01*
X109927763Y-78314357D01*
X109921868Y-78270733D01*
X109905903Y-78239863D01*
X109889570Y-78224983D01*
X109868861Y-78215840D01*
X109842400Y-78212569D01*
X109822063Y-78214721D01*
X109803077Y-78221118D01*
X109785939Y-78231922D01*
X109770471Y-78248107D01*
X109758220Y-78268451D01*
X109748244Y-78295917D01*
X109742379Y-78326977D01*
X109740184Y-78367663D01*
X109623545Y-78367663D01*
X109627492Y-78295456D01*
X109639923Y-78228628D01*
X109660773Y-78168420D01*
X109686634Y-78122016D01*
X109719835Y-78084339D01*
X109757770Y-78058513D01*
X109800680Y-78042964D01*
X109847896Y-78037691D01*
X109893997Y-78041299D01*
G37*
G36*
X109619040Y-79273866D02*
G01*
X109582760Y-79273503D01*
X109554987Y-79270080D01*
X109530111Y-79263168D01*
X109511390Y-79253715D01*
X109496352Y-79240932D01*
X109486294Y-79225994D01*
X109480415Y-79208788D01*
X109478356Y-79188503D01*
X109485310Y-79152418D01*
X109508398Y-79112299D01*
X109544773Y-79074047D01*
X109607316Y-79025898D01*
X110045000Y-79025898D01*
X110045000Y-78855111D01*
X109349396Y-78855111D01*
X109349396Y-79006053D01*
X109454909Y-79012220D01*
X109406671Y-79050811D01*
X109369729Y-79098621D01*
X109356155Y-79126097D01*
X109345976Y-79157056D01*
X109339823Y-79190075D01*
X109337672Y-79227398D01*
X109342338Y-79278020D01*
X109355563Y-79320638D01*
X109377739Y-79358028D01*
X109408564Y-79388965D01*
X109446981Y-79412513D01*
X109496613Y-79429937D01*
X109551767Y-79439235D01*
X109619040Y-79441233D01*
X109619040Y-79273866D01*
G37*
G36*
X109788304Y-79557363D02*
G01*
X109855467Y-79569949D01*
X109916847Y-79591455D01*
X109965926Y-79619469D01*
X110006325Y-79655969D01*
X110036024Y-79699764D01*
X110054274Y-79750137D01*
X110060631Y-79809124D01*
X110058409Y-79845035D01*
X110052083Y-79876352D01*
X110041832Y-79905903D01*
X110028208Y-79933382D01*
X109991022Y-79983269D01*
X109942540Y-80028393D01*
X110045000Y-80032484D01*
X110045000Y-80176587D01*
X109079752Y-80176587D01*
X109079752Y-80009952D01*
X109349945Y-80009952D01*
X109341092Y-79963119D01*
X109337672Y-79910912D01*
X109338297Y-79902669D01*
X109470540Y-79902669D01*
X109475303Y-79961104D01*
X109487515Y-80009952D01*
X109789033Y-80009952D01*
X109844031Y-79966180D01*
X109882090Y-79928620D01*
X109901505Y-79901695D01*
X109912469Y-79875065D01*
X109916039Y-79848019D01*
X109912989Y-79820482D01*
X109904193Y-79796789D01*
X109889196Y-79776439D01*
X109866458Y-79758871D01*
X109838348Y-79745841D01*
X109800268Y-79735607D01*
X109757782Y-79729916D01*
X109702815Y-79727791D01*
X109650675Y-79731002D01*
X109606034Y-79740064D01*
X109565432Y-79755414D01*
X109533066Y-79775235D01*
X109506424Y-79800589D01*
X109486844Y-79830251D01*
X109474730Y-79863912D01*
X109470540Y-79902669D01*
X109338297Y-79902669D01*
X109343379Y-79835627D01*
X109359898Y-79768091D01*
X109388280Y-79706670D01*
X109428286Y-79654701D01*
X109479563Y-79612667D01*
X109544607Y-79579902D01*
X109592089Y-79565394D01*
X109646985Y-79556174D01*
X109710448Y-79552913D01*
X109788304Y-79557363D01*
G37*
G36*
X109788942Y-80325076D02*
G01*
X109859314Y-80341634D01*
X109921770Y-80369692D01*
X109971055Y-80406542D01*
X110009904Y-80453184D01*
X110038161Y-80509673D01*
X110054765Y-80573072D01*
X110060631Y-80647670D01*
X110053712Y-80726001D01*
X110034070Y-80792445D01*
X110001806Y-80851410D01*
X109959148Y-80899729D01*
X109906554Y-80937935D01*
X109842950Y-80966652D01*
X109772844Y-80983909D01*
X109693351Y-80989916D01*
X109609196Y-80984043D01*
X109539722Y-80967690D01*
X109477798Y-80939970D01*
X109428347Y-80903148D01*
X109389096Y-80856526D01*
X109360509Y-80800017D01*
X109343644Y-80736519D01*
X109337672Y-80661348D01*
X109338157Y-80655853D01*
X109482264Y-80655853D01*
X109488709Y-80706011D01*
X109506741Y-80745068D01*
X109536242Y-80775715D01*
X109574483Y-80796883D01*
X109626814Y-80811056D01*
X109697442Y-80816381D01*
X109742689Y-80813916D01*
X109783660Y-80806795D01*
X109821767Y-80794577D01*
X109853269Y-80778096D01*
X109879567Y-80756056D01*
X109899431Y-80728210D01*
X109911702Y-80695562D01*
X109916039Y-80655853D01*
X109909700Y-80607921D01*
X109891593Y-80568775D01*
X109861390Y-80536296D01*
X109822471Y-80513428D01*
X109769654Y-80498251D01*
X109698785Y-80492576D01*
X109654845Y-80494939D01*
X109614644Y-80501796D01*
X109577179Y-80513892D01*
X109545767Y-80530800D01*
X109519318Y-80553406D01*
X109499239Y-80581359D01*
X109486746Y-80614342D01*
X109482264Y-80655853D01*
X109338157Y-80655853D01*
X109344484Y-80584171D01*
X109363928Y-80517855D01*
X109395762Y-80458843D01*
X109437873Y-80410266D01*
X109489827Y-80371756D01*
X109553033Y-80342672D01*
X109622863Y-80325207D01*
X109702876Y-80319103D01*
X109788942Y-80325076D01*
G37*
G36*
X111025488Y-73734621D02*
G01*
X111027919Y-73759888D01*
X111035075Y-73783103D01*
X111046519Y-73804200D01*
X111061392Y-73821999D01*
X111079481Y-73836629D01*
X111100715Y-73847950D01*
X111123893Y-73855122D01*
X111148586Y-73857536D01*
X111173915Y-73855105D01*
X111197191Y-73847950D01*
X111218318Y-73836618D01*
X111236147Y-73821999D01*
X111250728Y-73804226D01*
X111262098Y-73783103D01*
X111269254Y-73759888D01*
X111271685Y-73734621D01*
X111269246Y-73709344D01*
X111262098Y-73686383D01*
X111250768Y-73665503D01*
X111236147Y-73647487D01*
X111218298Y-73632612D01*
X111197191Y-73621170D01*
X111173918Y-73614060D01*
X111148586Y-73611645D01*
X111123890Y-73614044D01*
X111100715Y-73621170D01*
X111079501Y-73632601D01*
X111061392Y-73647487D01*
X111046480Y-73665528D01*
X111035075Y-73686383D01*
X111027927Y-73709344D01*
X111025488Y-73734621D01*
G37*
G36*
X111494434Y-73734621D02*
G01*
X111496865Y-73759888D01*
X111504021Y-73783103D01*
X111515403Y-73804222D01*
X111530033Y-73821999D01*
X111547822Y-73836611D01*
X111568989Y-73847950D01*
X111592123Y-73855120D01*
X111616861Y-73857536D01*
X111642137Y-73855107D01*
X111665404Y-73847950D01*
X111686638Y-73836629D01*
X111704727Y-73821999D01*
X111719600Y-73804200D01*
X111731045Y-73783103D01*
X111738200Y-73759888D01*
X111740631Y-73734621D01*
X111738192Y-73709344D01*
X111731045Y-73686383D01*
X111719639Y-73665528D01*
X111704727Y-73647487D01*
X111686618Y-73632601D01*
X111665404Y-73621170D01*
X111642140Y-73614059D01*
X111616861Y-73611645D01*
X111592121Y-73614046D01*
X111568989Y-73621170D01*
X111547842Y-73632619D01*
X111530033Y-73647487D01*
X111515364Y-73665507D01*
X111504021Y-73686383D01*
X111496873Y-73709344D01*
X111494434Y-73734621D01*
G37*
G36*
X111428000Y-74291006D02*
G01*
X111279501Y-74291006D01*
X111279501Y-74715928D01*
X111428000Y-74715928D01*
X111428000Y-74291006D01*
G37*
G36*
X112010275Y-75405547D02*
G01*
X111935965Y-75325058D01*
X111860998Y-75257440D01*
X111785222Y-75201576D01*
X111708391Y-75156542D01*
X111626341Y-75120269D01*
X111541568Y-75094429D01*
X111453488Y-75078828D01*
X111361444Y-75073560D01*
X111259439Y-75079820D01*
X111165073Y-75098107D01*
X111074997Y-75127884D01*
X110991233Y-75167472D01*
X110912593Y-75216377D01*
X110838581Y-75274023D01*
X110769674Y-75338683D01*
X110705041Y-75409638D01*
X110799991Y-75504588D01*
X110883992Y-75421218D01*
X110969908Y-75355054D01*
X111058155Y-75304431D01*
X111152465Y-75267166D01*
X111249325Y-75244955D01*
X111349781Y-75237508D01*
X111451716Y-75244926D01*
X111550770Y-75267113D01*
X111647941Y-75304431D01*
X111738924Y-75355365D01*
X111825860Y-75421592D01*
X111909220Y-75504588D01*
X112010275Y-75405547D01*
G37*
G36*
X113018571Y-73570618D02*
G01*
X113063121Y-73580198D01*
X113103480Y-73596759D01*
X113135966Y-73619155D01*
X113162136Y-73648037D01*
X113181823Y-73683696D01*
X113193658Y-73724293D01*
X113197882Y-73773517D01*
X113194829Y-73820655D01*
X113184815Y-73868466D01*
X113065013Y-73868466D01*
X113076065Y-73831219D01*
X113080645Y-73795376D01*
X113077015Y-73766345D01*
X113067065Y-73744765D01*
X113051092Y-73728759D01*
X113017041Y-73713826D01*
X112963042Y-73707937D01*
X112908759Y-73712700D01*
X112886097Y-73719442D01*
X112868520Y-73729125D01*
X112854102Y-73742147D01*
X112843424Y-73757763D01*
X112836901Y-73776421D01*
X112834448Y-73802215D01*
X112837405Y-73836326D01*
X112846172Y-73868466D01*
X112729118Y-73868466D01*
X112723247Y-73833651D01*
X112721120Y-73791285D01*
X112726462Y-73734521D01*
X112741331Y-73688825D01*
X112765171Y-73649435D01*
X112795003Y-73619155D01*
X112830947Y-73596231D01*
X112873344Y-73579893D01*
X112918902Y-73570458D01*
X112967377Y-73567254D01*
X113018571Y-73570618D01*
G37*
G36*
X113058727Y-73367267D02*
G01*
X113145736Y-73385476D01*
X113200642Y-73404941D01*
X113248946Y-73429123D01*
X113291366Y-73457894D01*
X113329168Y-73492281D01*
X113360780Y-73531203D01*
X113386559Y-73575069D01*
X113405127Y-73622422D01*
X113416634Y-73675281D01*
X113420631Y-73734621D01*
X113416437Y-73791062D01*
X113404213Y-73842563D01*
X113384178Y-73889959D01*
X113356949Y-73933895D01*
X113324090Y-73973057D01*
X113285259Y-74007807D01*
X113218373Y-74050223D01*
X113138897Y-74082301D01*
X113053016Y-74101630D01*
X112959501Y-74108251D01*
X112865985Y-74101630D01*
X112780104Y-74082301D01*
X112700578Y-74050238D01*
X112633436Y-74007807D01*
X112594406Y-73973020D01*
X112561557Y-73933858D01*
X112534518Y-73889959D01*
X112514656Y-73842579D01*
X112502531Y-73791076D01*
X112498370Y-73734621D01*
X112498425Y-73733888D01*
X112603883Y-73733888D01*
X112607242Y-73775914D01*
X112616922Y-73813083D01*
X112632643Y-73846240D01*
X112666113Y-73890281D01*
X112709884Y-73926840D01*
X112761569Y-73954877D01*
X112823396Y-73975689D01*
X112889585Y-73987929D01*
X112960844Y-73992114D01*
X113032069Y-73987918D01*
X113097681Y-73975689D01*
X113158884Y-73954914D01*
X113210521Y-73926840D01*
X113254152Y-73890250D01*
X113287091Y-73846240D01*
X113302396Y-73813126D01*
X113311838Y-73775953D01*
X113315118Y-73733888D01*
X113311805Y-73692338D01*
X113302253Y-73655506D01*
X113286725Y-73622575D01*
X113253525Y-73578837D01*
X113209788Y-73542280D01*
X113158159Y-73514258D01*
X113096643Y-73493431D01*
X113030722Y-73481241D01*
X112959501Y-73477067D01*
X112887699Y-73481252D01*
X112821748Y-73493431D01*
X112760235Y-73514278D01*
X112708907Y-73542280D01*
X112665421Y-73578815D01*
X112632276Y-73622575D01*
X112616748Y-73655506D01*
X112607196Y-73692338D01*
X112603883Y-73733888D01*
X112498425Y-73733888D01*
X112502571Y-73678142D01*
X112514815Y-73626600D01*
X112534884Y-73579160D01*
X112562095Y-73535286D01*
X112595049Y-73496122D01*
X112634108Y-73461313D01*
X112701297Y-73418948D01*
X112781142Y-73386880D01*
X112867288Y-73367545D01*
X112960844Y-73360929D01*
X113058727Y-73367267D01*
G37*
G36*
X113135478Y-75584516D02*
G01*
X113205255Y-75577440D01*
X113262423Y-75557527D01*
X113311626Y-75525136D01*
X113351388Y-75482056D01*
X113381527Y-75429980D01*
X113403595Y-75366591D01*
X113416223Y-75297848D01*
X113420631Y-75220411D01*
X113418569Y-75150733D01*
X113412510Y-75084490D01*
X113401708Y-75019350D01*
X113385460Y-74954675D01*
X113221329Y-74954675D01*
X113241113Y-75020254D01*
X113257294Y-75088948D01*
X113268162Y-75157580D01*
X113272131Y-75223831D01*
X113269904Y-75269866D01*
X113263949Y-75305163D01*
X113253739Y-75336612D01*
X113241357Y-75359813D01*
X113225322Y-75378378D01*
X113207224Y-75390526D01*
X113186578Y-75397667D01*
X113163443Y-75400113D01*
X113132941Y-75395268D01*
X113108550Y-75381306D01*
X113088143Y-75360152D01*
X113069349Y-75331786D01*
X113038635Y-75261749D01*
X113009265Y-75181821D01*
X112973789Y-75101892D01*
X112951523Y-75064609D01*
X112924696Y-75031856D01*
X112892786Y-75004277D01*
X112854781Y-74982336D01*
X112811551Y-74968577D01*
X112756901Y-74963590D01*
X112705549Y-74968406D01*
X112657311Y-74982702D01*
X112613529Y-75007058D01*
X112575123Y-75042786D01*
X112544346Y-75088127D01*
X112519192Y-75147993D01*
X112503988Y-75215878D01*
X112498370Y-75303087D01*
X112501057Y-75358714D01*
X112507896Y-75416111D01*
X112517848Y-75470760D01*
X112529633Y-75518937D01*
X112682041Y-75518937D01*
X112666409Y-75471127D01*
X112654014Y-75417515D01*
X112645832Y-75361828D01*
X112642962Y-75308583D01*
X112644914Y-75265864D01*
X112650106Y-75233417D01*
X112658942Y-75204455D01*
X112669767Y-75182859D01*
X112684004Y-75165544D01*
X112700603Y-75154160D01*
X112719642Y-75147573D01*
X112741209Y-75145307D01*
X112767270Y-75150012D01*
X112789324Y-75164052D01*
X112807847Y-75185160D01*
X112825472Y-75213939D01*
X112855453Y-75284281D01*
X112885495Y-75364881D01*
X112922009Y-75445481D01*
X112944789Y-75482899D01*
X112971774Y-75515884D01*
X113003604Y-75543783D01*
X113041017Y-75565710D01*
X113083294Y-75579557D01*
X113135478Y-75584516D01*
G37*
G36*
X113253997Y-75734669D02*
G01*
X113294663Y-75745045D01*
X113331335Y-75762574D01*
X113361707Y-75786383D01*
X113386163Y-75816548D01*
X113405061Y-75854038D01*
X113416529Y-75896336D01*
X113420631Y-75947583D01*
X113418601Y-75987014D01*
X113412815Y-76021711D01*
X113403288Y-76054564D01*
X113390772Y-76084237D01*
X113357128Y-76136810D01*
X113314691Y-76182606D01*
X113405000Y-76186697D01*
X113405000Y-76329518D01*
X112932084Y-76329518D01*
X112875722Y-76325003D01*
X112829563Y-76312421D01*
X112789186Y-76290612D01*
X112756290Y-76259481D01*
X112731240Y-76219980D01*
X112712327Y-76168257D01*
X112701631Y-76110079D01*
X112697672Y-76035755D01*
X112701044Y-75966234D01*
X112710983Y-75900139D01*
X112726505Y-75837153D01*
X112744567Y-75785040D01*
X112877435Y-75785040D01*
X112854375Y-75842005D01*
X112837135Y-75900811D01*
X112826327Y-75961017D01*
X112822725Y-76022077D01*
X112825004Y-76059389D01*
X112831090Y-76087657D01*
X112841449Y-76112427D01*
X112854659Y-76131071D01*
X112871477Y-76145463D01*
X112891723Y-76155312D01*
X112914400Y-76160870D01*
X112940633Y-76162822D01*
X112982948Y-76162822D01*
X112982948Y-76071964D01*
X112983545Y-76061034D01*
X113100184Y-76061034D01*
X113100184Y-76162822D01*
X113191592Y-76162822D01*
X113234310Y-76117659D01*
X113262911Y-76080146D01*
X113281951Y-76042079D01*
X113287763Y-76007728D01*
X113281868Y-75964104D01*
X113265903Y-75933234D01*
X113249570Y-75918353D01*
X113228861Y-75909211D01*
X113202400Y-75905940D01*
X113182063Y-75908091D01*
X113163077Y-75914488D01*
X113145939Y-75925292D01*
X113130471Y-75941477D01*
X113118220Y-75961821D01*
X113108244Y-75989288D01*
X113102379Y-76020347D01*
X113100184Y-76061034D01*
X112983545Y-76061034D01*
X112987492Y-75988827D01*
X112999923Y-75921999D01*
X113020773Y-75861791D01*
X113046634Y-75815387D01*
X113079835Y-75777709D01*
X113117770Y-75751884D01*
X113160680Y-75736335D01*
X113207896Y-75731062D01*
X113253997Y-75734669D01*
G37*
G36*
X113201240Y-77092899D02*
G01*
X113257332Y-77086016D01*
X113302418Y-77066582D01*
X113340289Y-77036147D01*
X113370561Y-76996912D01*
X113392937Y-76951279D01*
X113408663Y-76898543D01*
X113417625Y-76843114D01*
X113420631Y-76786191D01*
X113418519Y-76711523D01*
X113412632Y-76648194D01*
X113402686Y-76587766D01*
X113389368Y-76532056D01*
X113240868Y-76532056D01*
X113264095Y-76596733D01*
X113279642Y-76660162D01*
X113288768Y-76723287D01*
X113291671Y-76780696D01*
X113285832Y-76841460D01*
X113271338Y-76878698D01*
X113255739Y-76897302D01*
X113238325Y-76907710D01*
X113218276Y-76911182D01*
X113189638Y-76904344D01*
X113177640Y-76895211D01*
X113164787Y-76878698D01*
X113140301Y-76825758D01*
X113111969Y-76736304D01*
X113096259Y-76686920D01*
X113079607Y-76646484D01*
X113059413Y-76610449D01*
X113037048Y-76582615D01*
X113010499Y-76560463D01*
X112980139Y-76544696D01*
X112946059Y-76535403D01*
X112904118Y-76532056D01*
X112863044Y-76536841D01*
X112824434Y-76551168D01*
X112789716Y-76574608D01*
X112758672Y-76608199D01*
X112734011Y-76649485D01*
X112714036Y-76702843D01*
X112702034Y-76762181D01*
X112697672Y-76835345D01*
X112703778Y-76951482D01*
X112717212Y-77040997D01*
X112853988Y-77040997D01*
X112837236Y-76982152D01*
X112826755Y-76929317D01*
X112820786Y-76877113D01*
X112818817Y-76825819D01*
X112823948Y-76777796D01*
X112837623Y-76743510D01*
X112852186Y-76725893D01*
X112869280Y-76715849D01*
X112889830Y-76712430D01*
X112917796Y-76718536D01*
X112929145Y-76726967D01*
X112941610Y-76742777D01*
X112965851Y-76793335D01*
X112993389Y-76879125D01*
X113011788Y-76936547D01*
X113029842Y-76980181D01*
X113051282Y-77018241D01*
X113073806Y-77046065D01*
X113100232Y-77067647D01*
X113129677Y-77081969D01*
X113162356Y-77090031D01*
X113201240Y-77092899D01*
G37*
G36*
X113405000Y-77703323D02*
G01*
X112955654Y-77703323D01*
X112910164Y-77698991D01*
X112879267Y-77687755D01*
X112858905Y-77671092D01*
X112846663Y-77648710D01*
X112842264Y-77618632D01*
X112845827Y-77591574D01*
X112856785Y-77564822D01*
X112876214Y-77537665D01*
X112914180Y-77499817D01*
X112968538Y-77456027D01*
X113405000Y-77456027D01*
X113405000Y-77289331D01*
X112439752Y-77289331D01*
X112439752Y-77456027D01*
X112678438Y-77456027D01*
X112804651Y-77447845D01*
X112759344Y-77490832D01*
X112725638Y-77537971D01*
X112704816Y-77592620D01*
X112699533Y-77622863D01*
X112697672Y-77657527D01*
X112702257Y-77708628D01*
X112715075Y-77750401D01*
X112736135Y-77786956D01*
X112764106Y-77816652D01*
X112798482Y-77839703D01*
X112840432Y-77856646D01*
X112886638Y-77866485D01*
X112940266Y-77869958D01*
X113405000Y-77869958D01*
X113405000Y-77703323D01*
G37*
G36*
X113253997Y-78041299D02*
G01*
X113294663Y-78051674D01*
X113331335Y-78069204D01*
X113361707Y-78093012D01*
X113386163Y-78123177D01*
X113405061Y-78160668D01*
X113416529Y-78202966D01*
X113420631Y-78254213D01*
X113418601Y-78293643D01*
X113412815Y-78328340D01*
X113403288Y-78361194D01*
X113390772Y-78390867D01*
X113357128Y-78443440D01*
X113314691Y-78489235D01*
X113405000Y-78493326D01*
X113405000Y-78636147D01*
X112932084Y-78636147D01*
X112875722Y-78631632D01*
X112829563Y-78619050D01*
X112789186Y-78597242D01*
X112756290Y-78566111D01*
X112731240Y-78526609D01*
X112712327Y-78474886D01*
X112701631Y-78416709D01*
X112697672Y-78342384D01*
X112701044Y-78272863D01*
X112710983Y-78206769D01*
X112726505Y-78143783D01*
X112744567Y-78091669D01*
X112877435Y-78091669D01*
X112854375Y-78148635D01*
X112837135Y-78207440D01*
X112826327Y-78267646D01*
X112822725Y-78328707D01*
X112825004Y-78366018D01*
X112831090Y-78394286D01*
X112841449Y-78419056D01*
X112854659Y-78437700D01*
X112871477Y-78452093D01*
X112891723Y-78461941D01*
X112914400Y-78467499D01*
X112940633Y-78469452D01*
X112982948Y-78469452D01*
X112982948Y-78378593D01*
X112983545Y-78367663D01*
X113100184Y-78367663D01*
X113100184Y-78469452D01*
X113191592Y-78469452D01*
X113234310Y-78424289D01*
X113262911Y-78386775D01*
X113281951Y-78348709D01*
X113287763Y-78314357D01*
X113281868Y-78270733D01*
X113265903Y-78239863D01*
X113249570Y-78224983D01*
X113228861Y-78215840D01*
X113202400Y-78212569D01*
X113182063Y-78214721D01*
X113163077Y-78221118D01*
X113145939Y-78231922D01*
X113130471Y-78248107D01*
X113118220Y-78268451D01*
X113108244Y-78295917D01*
X113102379Y-78326977D01*
X113100184Y-78367663D01*
X112983545Y-78367663D01*
X112987492Y-78295456D01*
X112999923Y-78228628D01*
X113020773Y-78168420D01*
X113046634Y-78122016D01*
X113079835Y-78084339D01*
X113117770Y-78058513D01*
X113160680Y-78042964D01*
X113207896Y-78037691D01*
X113253997Y-78041299D01*
G37*
G36*
X113405000Y-79241076D02*
G01*
X112955654Y-79241076D01*
X112910164Y-79236744D01*
X112879267Y-79225508D01*
X112858905Y-79208845D01*
X112846663Y-79186463D01*
X112842264Y-79156385D01*
X112845827Y-79129327D01*
X112856785Y-79102575D01*
X112876214Y-79075418D01*
X112914180Y-79037570D01*
X112968538Y-78993780D01*
X113405000Y-78993780D01*
X113405000Y-78827084D01*
X112709396Y-78827084D01*
X112709396Y-78971249D01*
X112812100Y-78975340D01*
X112764900Y-79019364D01*
X112728630Y-79068885D01*
X112715429Y-79096454D01*
X112705671Y-79126282D01*
X112699767Y-79158105D01*
X112697672Y-79195280D01*
X112702257Y-79246381D01*
X112715075Y-79288154D01*
X112736135Y-79324709D01*
X112764106Y-79354405D01*
X112798482Y-79377456D01*
X112840432Y-79394399D01*
X112886638Y-79404238D01*
X112940266Y-79407711D01*
X113405000Y-79407711D01*
X113405000Y-79241076D01*
G37*
G36*
X113397184Y-80168405D02*
G01*
X113414220Y-80077547D01*
X113420631Y-79990779D01*
X113416757Y-79924985D01*
X113406221Y-79872932D01*
X113387595Y-79826845D01*
X113362318Y-79790928D01*
X113329231Y-79763041D01*
X113287213Y-79743117D01*
X113239143Y-79731897D01*
X113178525Y-79727791D01*
X112838356Y-79727791D01*
X112838356Y-79541311D01*
X112709396Y-79541311D01*
X112709396Y-79727791D01*
X112531221Y-79727791D01*
X112486646Y-79898578D01*
X112709396Y-79898578D01*
X112709396Y-80168405D01*
X112838356Y-80168405D01*
X112838356Y-79898578D01*
X113166802Y-79898578D01*
X113205776Y-79902059D01*
X113235162Y-79911460D01*
X113257172Y-79925872D01*
X113273152Y-79946291D01*
X113283745Y-79975749D01*
X113287763Y-80017463D01*
X113280680Y-80097330D01*
X113264316Y-80168405D01*
X113397184Y-80168405D01*
G37*
G36*
X113135478Y-81735528D02*
G01*
X113205255Y-81728452D01*
X113262423Y-81708539D01*
X113311626Y-81676148D01*
X113351388Y-81633068D01*
X113381527Y-81580992D01*
X113403595Y-81517602D01*
X113416223Y-81448860D01*
X113420631Y-81371423D01*
X113418569Y-81301744D01*
X113412510Y-81235502D01*
X113401708Y-81170362D01*
X113385460Y-81105687D01*
X113221329Y-81105687D01*
X113241113Y-81171266D01*
X113257294Y-81239959D01*
X113268162Y-81308592D01*
X113272131Y-81374842D01*
X113269904Y-81420878D01*
X113263949Y-81456175D01*
X113253739Y-81487624D01*
X113241357Y-81510825D01*
X113225322Y-81529390D01*
X113207224Y-81541538D01*
X113186578Y-81548679D01*
X113163443Y-81551125D01*
X113132941Y-81546280D01*
X113108550Y-81532318D01*
X113088143Y-81511164D01*
X113069349Y-81482798D01*
X113038635Y-81412761D01*
X113009265Y-81332833D01*
X112973789Y-81252904D01*
X112951523Y-81215621D01*
X112924696Y-81182868D01*
X112892786Y-81155289D01*
X112854781Y-81133347D01*
X112811551Y-81119589D01*
X112756901Y-81114602D01*
X112705549Y-81119418D01*
X112657311Y-81133714D01*
X112613529Y-81158069D01*
X112575123Y-81193797D01*
X112544346Y-81239139D01*
X112519192Y-81299005D01*
X112503988Y-81366890D01*
X112498370Y-81454099D01*
X112501057Y-81509726D01*
X112507896Y-81567123D01*
X112517848Y-81621772D01*
X112529633Y-81669949D01*
X112682041Y-81669949D01*
X112666409Y-81622138D01*
X112654014Y-81568527D01*
X112645832Y-81512840D01*
X112642962Y-81459595D01*
X112644914Y-81416876D01*
X112650106Y-81384429D01*
X112658942Y-81355467D01*
X112669767Y-81333871D01*
X112684004Y-81316555D01*
X112700603Y-81305172D01*
X112719642Y-81298585D01*
X112741209Y-81296318D01*
X112767270Y-81301024D01*
X112789324Y-81315064D01*
X112807847Y-81336172D01*
X112825472Y-81364951D01*
X112855453Y-81435293D01*
X112885495Y-81515893D01*
X112922009Y-81596493D01*
X112944789Y-81633911D01*
X112971774Y-81666896D01*
X113003604Y-81694795D01*
X113041017Y-81716721D01*
X113083294Y-81730569D01*
X113135478Y-81735528D01*
G37*
G36*
X113253997Y-81885681D02*
G01*
X113294663Y-81896057D01*
X113331335Y-81913586D01*
X113361707Y-81937395D01*
X113386163Y-81967560D01*
X113405061Y-82005050D01*
X113416529Y-82047348D01*
X113420631Y-82098595D01*
X113418601Y-82138025D01*
X113412815Y-82172723D01*
X113403288Y-82205576D01*
X113390772Y-82235249D01*
X113357128Y-82287822D01*
X113314691Y-82333618D01*
X113405000Y-82337709D01*
X113405000Y-82480530D01*
X112932084Y-82480530D01*
X112875722Y-82476015D01*
X112829563Y-82463433D01*
X112789186Y-82441624D01*
X112756290Y-82410493D01*
X112731240Y-82370991D01*
X112712327Y-82319269D01*
X112701631Y-82261091D01*
X112697672Y-82186767D01*
X112701044Y-82117245D01*
X112710983Y-82051151D01*
X112726505Y-81988165D01*
X112744567Y-81936051D01*
X112877435Y-81936051D01*
X112854375Y-81993017D01*
X112837135Y-82051823D01*
X112826327Y-82112029D01*
X112822725Y-82173089D01*
X112825004Y-82210400D01*
X112831090Y-82238668D01*
X112841449Y-82263439D01*
X112854659Y-82282083D01*
X112871477Y-82296475D01*
X112891723Y-82306324D01*
X112914400Y-82311882D01*
X112940633Y-82313834D01*
X112982948Y-82313834D01*
X112982948Y-82222976D01*
X112983545Y-82212046D01*
X113100184Y-82212046D01*
X113100184Y-82313834D01*
X113191592Y-82313834D01*
X113234310Y-82268671D01*
X113262911Y-82231158D01*
X113281951Y-82193091D01*
X113287763Y-82158740D01*
X113281868Y-82115116D01*
X113265903Y-82084246D01*
X113249570Y-82069365D01*
X113228861Y-82060222D01*
X113202400Y-82056952D01*
X113182063Y-82059103D01*
X113163077Y-82065500D01*
X113145939Y-82076304D01*
X113130471Y-82092489D01*
X113118220Y-82112833D01*
X113108244Y-82140300D01*
X113102379Y-82171359D01*
X113100184Y-82212046D01*
X112983545Y-82212046D01*
X112987492Y-82139839D01*
X112999923Y-82073011D01*
X113020773Y-82012803D01*
X113046634Y-81966399D01*
X113079835Y-81928721D01*
X113117770Y-81902896D01*
X113160680Y-81887347D01*
X113207896Y-81882074D01*
X113253997Y-81885681D01*
G37*
G36*
X113405000Y-83085458D02*
G01*
X112955654Y-83085458D01*
X112910164Y-83081126D01*
X112879267Y-83069890D01*
X112858905Y-83053227D01*
X112846663Y-83030845D01*
X112842264Y-83000767D01*
X112845827Y-82973710D01*
X112856785Y-82946958D01*
X112876214Y-82919801D01*
X112914180Y-82881952D01*
X112968538Y-82838162D01*
X113405000Y-82838162D01*
X113405000Y-82671467D01*
X112709396Y-82671467D01*
X112709396Y-82815631D01*
X112812100Y-82819722D01*
X112764900Y-82863747D01*
X112728630Y-82913267D01*
X112715429Y-82940836D01*
X112705671Y-82970664D01*
X112699767Y-83002488D01*
X112697672Y-83039663D01*
X112702257Y-83090763D01*
X112715075Y-83132536D01*
X112736135Y-83169092D01*
X112764106Y-83198787D01*
X112798482Y-83221838D01*
X112840432Y-83238782D01*
X112886638Y-83248621D01*
X112940266Y-83252093D01*
X113405000Y-83252093D01*
X113405000Y-83085458D01*
G37*
G36*
X113405000Y-83870027D02*
G01*
X113057991Y-83613878D01*
X113405000Y-83613878D01*
X113405000Y-83447182D01*
X112439752Y-83447182D01*
X112439752Y-83613878D01*
X113004685Y-83613878D01*
X112709396Y-83856350D01*
X112709396Y-84064689D01*
X113026362Y-83783260D01*
X113405000Y-84087953D01*
X113405000Y-83870027D01*
G37*
G36*
X113253997Y-84192311D02*
G01*
X113294663Y-84202686D01*
X113331335Y-84220215D01*
X113361707Y-84244024D01*
X113386163Y-84274189D01*
X113405061Y-84311680D01*
X113416529Y-84353978D01*
X113420631Y-84405225D01*
X113418601Y-84444655D01*
X113412815Y-84479352D01*
X113403288Y-84512205D01*
X113390772Y-84541878D01*
X113357128Y-84594452D01*
X113314691Y-84640247D01*
X113405000Y-84644338D01*
X113405000Y-84787159D01*
X112932084Y-84787159D01*
X112875722Y-84782644D01*
X112829563Y-84770062D01*
X112789186Y-84748254D01*
X112756290Y-84717123D01*
X112731240Y-84677621D01*
X112712327Y-84625898D01*
X112701631Y-84567721D01*
X112697672Y-84493396D01*
X112701044Y-84423875D01*
X112710983Y-84357780D01*
X112726505Y-84294795D01*
X112744567Y-84242681D01*
X112877435Y-84242681D01*
X112854375Y-84299647D01*
X112837135Y-84358452D01*
X112826327Y-84418658D01*
X112822725Y-84479719D01*
X112825004Y-84517030D01*
X112831090Y-84545298D01*
X112841449Y-84570068D01*
X112854659Y-84588712D01*
X112871477Y-84603105D01*
X112891723Y-84612953D01*
X112914400Y-84618511D01*
X112940633Y-84620464D01*
X112982948Y-84620464D01*
X112982948Y-84529605D01*
X112983545Y-84518675D01*
X113100184Y-84518675D01*
X113100184Y-84620464D01*
X113191592Y-84620464D01*
X113234310Y-84575301D01*
X113262911Y-84537787D01*
X113281951Y-84499721D01*
X113287763Y-84465369D01*
X113281868Y-84421745D01*
X113265903Y-84390875D01*
X113249570Y-84375995D01*
X113228861Y-84366852D01*
X113202400Y-84363581D01*
X113182063Y-84365732D01*
X113163077Y-84372130D01*
X113145939Y-84382934D01*
X113130471Y-84399118D01*
X113118220Y-84419463D01*
X113108244Y-84446929D01*
X113102379Y-84477989D01*
X113100184Y-84518675D01*
X112983545Y-84518675D01*
X112987492Y-84446468D01*
X112999923Y-84379640D01*
X113020773Y-84319432D01*
X113046634Y-84273028D01*
X113079835Y-84235351D01*
X113117770Y-84209525D01*
X113160680Y-84193976D01*
X113207896Y-84188703D01*
X113253997Y-84192311D01*
G37*
G36*
X112979040Y-85424877D02*
G01*
X112942760Y-85424515D01*
X112914987Y-85421092D01*
X112890111Y-85414179D01*
X112871390Y-85404727D01*
X112856352Y-85391944D01*
X112846294Y-85377006D01*
X112840415Y-85359800D01*
X112838356Y-85339515D01*
X112845310Y-85303430D01*
X112868398Y-85263311D01*
X112904773Y-85225059D01*
X112967316Y-85176910D01*
X113405000Y-85176910D01*
X113405000Y-85006123D01*
X112709396Y-85006123D01*
X112709396Y-85157065D01*
X112814909Y-85163232D01*
X112766671Y-85201823D01*
X112729729Y-85249633D01*
X112716155Y-85277108D01*
X112705976Y-85308068D01*
X112699823Y-85341086D01*
X112697672Y-85378410D01*
X112702338Y-85429032D01*
X112715563Y-85471650D01*
X112737739Y-85509040D01*
X112768564Y-85539977D01*
X112806981Y-85563525D01*
X112856613Y-85580949D01*
X112911767Y-85590247D01*
X112979040Y-85592245D01*
X112979040Y-85424877D01*
G37*
G36*
X114698571Y-73570618D02*
G01*
X114743121Y-73580198D01*
X114783480Y-73596759D01*
X114815966Y-73619155D01*
X114842136Y-73648037D01*
X114861823Y-73683696D01*
X114873658Y-73724293D01*
X114877882Y-73773517D01*
X114874829Y-73820655D01*
X114864815Y-73868466D01*
X114745013Y-73868466D01*
X114756065Y-73831219D01*
X114760645Y-73795376D01*
X114757015Y-73766345D01*
X114747065Y-73744765D01*
X114731092Y-73728759D01*
X114697041Y-73713826D01*
X114643042Y-73707937D01*
X114588759Y-73712700D01*
X114566097Y-73719442D01*
X114548520Y-73729125D01*
X114534102Y-73742147D01*
X114523424Y-73757763D01*
X114516901Y-73776421D01*
X114514448Y-73802215D01*
X114517405Y-73836326D01*
X114526172Y-73868466D01*
X114409118Y-73868466D01*
X114403247Y-73833651D01*
X114401120Y-73791285D01*
X114406462Y-73734521D01*
X114421331Y-73688825D01*
X114445171Y-73649435D01*
X114475003Y-73619155D01*
X114510947Y-73596231D01*
X114553344Y-73579893D01*
X114598902Y-73570458D01*
X114647377Y-73567254D01*
X114698571Y-73570618D01*
G37*
G36*
X114738727Y-73367267D02*
G01*
X114825736Y-73385476D01*
X114880642Y-73404941D01*
X114928946Y-73429123D01*
X114971366Y-73457894D01*
X115009168Y-73492281D01*
X115040780Y-73531203D01*
X115066559Y-73575069D01*
X115085127Y-73622422D01*
X115096634Y-73675281D01*
X115100631Y-73734621D01*
X115096437Y-73791062D01*
X115084213Y-73842563D01*
X115064178Y-73889959D01*
X115036949Y-73933895D01*
X115004090Y-73973057D01*
X114965259Y-74007807D01*
X114898373Y-74050223D01*
X114818897Y-74082301D01*
X114733016Y-74101630D01*
X114639501Y-74108251D01*
X114545985Y-74101630D01*
X114460104Y-74082301D01*
X114380578Y-74050238D01*
X114313436Y-74007807D01*
X114274406Y-73973020D01*
X114241557Y-73933858D01*
X114214518Y-73889959D01*
X114194656Y-73842579D01*
X114182531Y-73791076D01*
X114178370Y-73734621D01*
X114178425Y-73733888D01*
X114283883Y-73733888D01*
X114287242Y-73775914D01*
X114296922Y-73813083D01*
X114312643Y-73846240D01*
X114346113Y-73890281D01*
X114389884Y-73926840D01*
X114441569Y-73954877D01*
X114503396Y-73975689D01*
X114569585Y-73987929D01*
X114640844Y-73992114D01*
X114712069Y-73987918D01*
X114777681Y-73975689D01*
X114838884Y-73954914D01*
X114890521Y-73926840D01*
X114934152Y-73890250D01*
X114967091Y-73846240D01*
X114982396Y-73813126D01*
X114991838Y-73775953D01*
X114995118Y-73733888D01*
X114991805Y-73692338D01*
X114982253Y-73655506D01*
X114966725Y-73622575D01*
X114933525Y-73578837D01*
X114889788Y-73542280D01*
X114838159Y-73514258D01*
X114776643Y-73493431D01*
X114710722Y-73481241D01*
X114639501Y-73477067D01*
X114567699Y-73481252D01*
X114501748Y-73493431D01*
X114440235Y-73514278D01*
X114388907Y-73542280D01*
X114345421Y-73578815D01*
X114312276Y-73622575D01*
X114296748Y-73655506D01*
X114287196Y-73692338D01*
X114283883Y-73733888D01*
X114178425Y-73733888D01*
X114182571Y-73678142D01*
X114194815Y-73626600D01*
X114214884Y-73579160D01*
X114242095Y-73535286D01*
X114275049Y-73496122D01*
X114314108Y-73461313D01*
X114381297Y-73418948D01*
X114461142Y-73386880D01*
X114547288Y-73367545D01*
X114640844Y-73360929D01*
X114738727Y-73367267D01*
G37*
G36*
X114854434Y-75036008D02*
G01*
X115085000Y-75012072D01*
X115085000Y-75145978D01*
X114854434Y-75169181D01*
X114854434Y-75327695D01*
X115085000Y-75303759D01*
X115085000Y-75437665D01*
X114854434Y-75460868D01*
X114854434Y-75591355D01*
X114729382Y-75591355D01*
X114729382Y-75473874D01*
X114533988Y-75493658D01*
X114533988Y-75627564D01*
X114408935Y-75627564D01*
X114408935Y-75505992D01*
X114194002Y-75527852D01*
X114194002Y-75393946D01*
X114408935Y-75372086D01*
X114408935Y-75214305D01*
X114194002Y-75236165D01*
X114194002Y-75201971D01*
X114533988Y-75201971D01*
X114533988Y-75359813D01*
X114729382Y-75339968D01*
X114729382Y-75182187D01*
X114533988Y-75201971D01*
X114194002Y-75201971D01*
X114194002Y-75102259D01*
X114408935Y-75080399D01*
X114408935Y-74951988D01*
X114533988Y-74951988D01*
X114533988Y-75068126D01*
X114729382Y-75048281D01*
X114729382Y-74915779D01*
X114854434Y-74915779D01*
X114854434Y-75036008D01*
G37*
G36*
X115045921Y-76342463D02*
G01*
X115068682Y-76283059D01*
X115084206Y-76227363D01*
X115093555Y-76170936D01*
X115096723Y-76111592D01*
X115093351Y-76047818D01*
X115083706Y-75991299D01*
X115068330Y-75941111D01*
X115046086Y-75893844D01*
X115018001Y-75852363D01*
X114983883Y-75816058D01*
X114944447Y-75785490D01*
X114898379Y-75759725D01*
X114844787Y-75738878D01*
X114788791Y-75724754D01*
X114724755Y-75715784D01*
X114651591Y-75712622D01*
X114576714Y-75716036D01*
X114510131Y-75725799D01*
X114450884Y-75741320D01*
X114394080Y-75763775D01*
X114344910Y-75791129D01*
X114302506Y-75823264D01*
X114265387Y-75861267D01*
X114234703Y-75904239D01*
X114210183Y-75952712D01*
X114192816Y-76004411D01*
X114182080Y-76061200D01*
X114178370Y-76123866D01*
X114179713Y-76181568D01*
X114184720Y-76234508D01*
X114194307Y-76287081D01*
X114209633Y-76342463D01*
X114377672Y-76342463D01*
X114353709Y-76284503D01*
X114338532Y-76231760D01*
X114329617Y-76180165D01*
X114326870Y-76136139D01*
X114332929Y-76075669D01*
X114349767Y-76027512D01*
X114377217Y-75986445D01*
X114413881Y-75953384D01*
X114458169Y-75928610D01*
X114512128Y-75910703D01*
X114570697Y-75900623D01*
X114637302Y-75897086D01*
X114707519Y-75900774D01*
X114766568Y-75911069D01*
X114820241Y-75929421D01*
X114863105Y-75954483D01*
X114897913Y-75987854D01*
X114923494Y-76029588D01*
X114938812Y-76078113D01*
X114944316Y-76138215D01*
X114939797Y-76187063D01*
X114927829Y-76240308D01*
X114910305Y-76293614D01*
X114889605Y-76342463D01*
X115045921Y-76342463D01*
G37*
G36*
X114659040Y-76967236D02*
G01*
X114622760Y-76966873D01*
X114594987Y-76963450D01*
X114570111Y-76956538D01*
X114551390Y-76947086D01*
X114536352Y-76934302D01*
X114526294Y-76919364D01*
X114520415Y-76902159D01*
X114518356Y-76881873D01*
X114525310Y-76845789D01*
X114548398Y-76805669D01*
X114584773Y-76767417D01*
X114647316Y-76719269D01*
X115085000Y-76719269D01*
X115085000Y-76548482D01*
X114389396Y-76548482D01*
X114389396Y-76699424D01*
X114494909Y-76705591D01*
X114446671Y-76744181D01*
X114409729Y-76791992D01*
X114396155Y-76819467D01*
X114385976Y-76850427D01*
X114379823Y-76883445D01*
X114377672Y-76920769D01*
X114382338Y-76971390D01*
X114395563Y-77014009D01*
X114417739Y-77051398D01*
X114448564Y-77082336D01*
X114486981Y-77105884D01*
X114536613Y-77123307D01*
X114591767Y-77132605D01*
X114659040Y-77134603D01*
X114659040Y-76967236D01*
G37*
G36*
X114389396Y-77454623D02*
G01*
X114841367Y-77454623D01*
X114893678Y-77460579D01*
X114927035Y-77475811D01*
X114942843Y-77491913D01*
X114952550Y-77512788D01*
X114956039Y-77539986D01*
X114952454Y-77566575D01*
X114941370Y-77593096D01*
X114921601Y-77620280D01*
X114883132Y-77658146D01*
X114828361Y-77701919D01*
X114389396Y-77701919D01*
X114389396Y-77868614D01*
X115085000Y-77868614D01*
X115085000Y-77724450D01*
X114982295Y-77720359D01*
X115030900Y-77675968D01*
X115068147Y-77627119D01*
X115081744Y-77599805D01*
X115092083Y-77569722D01*
X115098411Y-77537684D01*
X115100631Y-77501090D01*
X115096043Y-77449990D01*
X115083168Y-77407850D01*
X115061899Y-77371059D01*
X115033525Y-77341233D01*
X114998721Y-77318216D01*
X114956528Y-77301299D01*
X114910133Y-77291461D01*
X114856266Y-77287988D01*
X114389396Y-77287988D01*
X114389396Y-77454623D01*
G37*
G36*
X115077184Y-78630652D02*
G01*
X115094220Y-78539794D01*
X115100631Y-78453026D01*
X115096757Y-78387232D01*
X115086221Y-78335179D01*
X115067595Y-78289092D01*
X115042318Y-78253175D01*
X115009231Y-78225288D01*
X114967213Y-78205364D01*
X114919143Y-78194144D01*
X114858525Y-78190038D01*
X114518356Y-78190038D01*
X114518356Y-78003558D01*
X114389396Y-78003558D01*
X114389396Y-78190038D01*
X114211221Y-78190038D01*
X114166646Y-78360825D01*
X114389396Y-78360825D01*
X114389396Y-78630652D01*
X114518356Y-78630652D01*
X114518356Y-78360825D01*
X114846802Y-78360825D01*
X114885776Y-78364306D01*
X114915162Y-78373707D01*
X114937172Y-78388119D01*
X114953152Y-78408538D01*
X114963745Y-78437996D01*
X114967763Y-78479710D01*
X114960680Y-78559577D01*
X114944316Y-78630652D01*
X115077184Y-78630652D01*
G37*
G36*
X115057644Y-79388599D02*
G01*
X115074955Y-79338628D01*
X115087137Y-79286810D01*
X115094284Y-79233513D01*
X115096723Y-79176840D01*
X115090853Y-79096795D01*
X115074253Y-79028585D01*
X115045986Y-78967374D01*
X115007513Y-78917210D01*
X114958578Y-78877243D01*
X114897848Y-78847234D01*
X114829339Y-78829377D01*
X114746662Y-78822993D01*
X114666189Y-78829785D01*
X114596147Y-78849249D01*
X114533141Y-78881260D01*
X114481048Y-78923377D01*
X114439097Y-78975638D01*
X114407470Y-79038476D01*
X114388274Y-79108341D01*
X114381580Y-79188442D01*
X114383710Y-79253431D01*
X114389335Y-79302198D01*
X114408935Y-79385179D01*
X114569159Y-79385179D01*
X114551109Y-79341441D01*
X114537407Y-79293283D01*
X114528886Y-79244248D01*
X114526172Y-79199371D01*
X114530225Y-79154533D01*
X114541803Y-79116024D01*
X114560608Y-79081806D01*
X114585218Y-79053864D01*
X114615528Y-79031834D01*
X114652690Y-79015273D01*
X114693644Y-79005394D01*
X114739823Y-79001962D01*
X114787737Y-79005701D01*
X114828728Y-79016311D01*
X114865485Y-79033878D01*
X114895528Y-79056917D01*
X114919629Y-79085710D01*
X114937538Y-79120115D01*
X114948368Y-79158448D01*
X114952131Y-79202119D01*
X114948956Y-79248220D01*
X114939797Y-79296702D01*
X114926058Y-79344513D01*
X114909145Y-79388599D01*
X115057644Y-79388599D01*
G37*
G36*
X115085000Y-80009952D02*
G01*
X114635654Y-80009952D01*
X114590164Y-80005620D01*
X114559267Y-79994384D01*
X114538905Y-79977721D01*
X114526663Y-79955339D01*
X114522264Y-79925261D01*
X114525827Y-79898204D01*
X114536785Y-79871452D01*
X114556214Y-79844295D01*
X114594180Y-79806446D01*
X114648538Y-79762657D01*
X115085000Y-79762657D01*
X115085000Y-79595961D01*
X114119752Y-79595961D01*
X114119752Y-79762657D01*
X114358438Y-79762657D01*
X114484651Y-79754474D01*
X114439344Y-79797461D01*
X114405638Y-79844600D01*
X114384816Y-79899249D01*
X114379533Y-79929492D01*
X114377672Y-79964157D01*
X114382257Y-80015257D01*
X114395075Y-80057030D01*
X114416135Y-80093586D01*
X114444106Y-80123281D01*
X114478482Y-80146332D01*
X114520432Y-80163276D01*
X114566638Y-80173115D01*
X114620266Y-80176587D01*
X115085000Y-80176587D01*
X115085000Y-80009952D01*
G37*
G36*
X114835243Y-80345680D02*
G01*
X114903039Y-80362761D01*
X114963266Y-80391568D01*
X115011727Y-80429745D01*
X115049983Y-80477757D01*
X115078161Y-80536296D01*
X115094768Y-80601700D01*
X115100631Y-80678384D01*
X115098128Y-80743292D01*
X115090739Y-80809542D01*
X115079565Y-80873778D01*
X115065460Y-80931847D01*
X114932592Y-80931847D01*
X114948849Y-80869972D01*
X114959520Y-80811924D01*
X114965778Y-80755001D01*
X114967763Y-80703663D01*
X114964569Y-80661207D01*
X114955429Y-80624101D01*
X114940099Y-80590490D01*
X114919525Y-80562613D01*
X114893349Y-80540103D01*
X114860968Y-80522984D01*
X114824317Y-80512674D01*
X114780184Y-80509002D01*
X114780184Y-80965308D01*
X114729199Y-80968361D01*
X114684991Y-80969399D01*
X114619521Y-80964293D01*
X114561282Y-80949555D01*
X114508323Y-80924906D01*
X114464012Y-80891486D01*
X114428076Y-80849157D01*
X114400448Y-80796536D01*
X114383640Y-80737146D01*
X114377672Y-80666111D01*
X114378001Y-80662691D01*
X114502725Y-80662691D01*
X114505103Y-80690690D01*
X114512067Y-80716303D01*
X114523835Y-80739694D01*
X114540643Y-80760022D01*
X114562037Y-80776565D01*
X114589553Y-80789759D01*
X114620649Y-80797630D01*
X114659040Y-80800017D01*
X114659040Y-80511688D01*
X114611007Y-80520963D01*
X114573214Y-80537089D01*
X114543635Y-80559499D01*
X114521085Y-80588565D01*
X114507468Y-80622480D01*
X114502725Y-80662691D01*
X114378001Y-80662691D01*
X114384602Y-80594143D01*
X114404600Y-80531167D01*
X114437223Y-80475131D01*
X114480926Y-80428340D01*
X114534430Y-80391254D01*
X114599506Y-80362761D01*
X114671061Y-80345574D01*
X114753135Y-80339558D01*
X114835243Y-80345680D01*
G37*
G36*
X114828304Y-81095116D02*
G01*
X114895467Y-81107702D01*
X114956847Y-81129208D01*
X115005926Y-81157222D01*
X115046325Y-81193722D01*
X115076024Y-81237517D01*
X115094274Y-81287890D01*
X115100631Y-81346877D01*
X115098409Y-81382788D01*
X115092083Y-81414105D01*
X115081832Y-81443656D01*
X115068208Y-81471135D01*
X115031022Y-81521022D01*
X114982540Y-81566146D01*
X115085000Y-81570237D01*
X115085000Y-81714340D01*
X114119752Y-81714340D01*
X114119752Y-81547705D01*
X114389945Y-81547705D01*
X114381092Y-81500872D01*
X114377672Y-81448665D01*
X114378297Y-81440422D01*
X114510540Y-81440422D01*
X114515303Y-81498857D01*
X114527515Y-81547705D01*
X114829033Y-81547705D01*
X114884031Y-81503933D01*
X114922090Y-81466372D01*
X114941505Y-81439447D01*
X114952469Y-81412818D01*
X114956039Y-81385772D01*
X114952989Y-81358235D01*
X114944193Y-81334542D01*
X114929196Y-81314191D01*
X114906458Y-81296624D01*
X114878348Y-81283594D01*
X114840268Y-81273360D01*
X114797782Y-81267669D01*
X114742815Y-81265544D01*
X114690675Y-81268755D01*
X114646034Y-81277817D01*
X114605432Y-81293167D01*
X114573066Y-81312988D01*
X114546424Y-81338342D01*
X114526844Y-81368004D01*
X114514730Y-81401665D01*
X114510540Y-81440422D01*
X114378297Y-81440422D01*
X114383379Y-81373380D01*
X114399898Y-81305844D01*
X114428280Y-81244423D01*
X114468286Y-81192454D01*
X114519563Y-81150420D01*
X114584607Y-81117655D01*
X114632089Y-81103147D01*
X114686985Y-81093927D01*
X114750448Y-81090666D01*
X114828304Y-81095116D01*
G37*
G36*
X115366367Y-81807641D02*
G01*
X115233499Y-81807641D01*
X115233499Y-82576823D01*
X115366367Y-82576823D01*
X115366367Y-81807641D01*
G37*
G36*
X115354644Y-82838162D02*
G01*
X115084450Y-82838162D01*
X115093304Y-82885301D01*
X115096723Y-82937203D01*
X115091048Y-83012440D01*
X115074619Y-83079963D01*
X115046350Y-83141453D01*
X115006536Y-83193658D01*
X114955492Y-83236018D01*
X114891132Y-83268824D01*
X114844050Y-83283325D01*
X114789506Y-83292548D01*
X114726329Y-83295812D01*
X114648231Y-83291330D01*
X114581615Y-83278715D01*
X114520809Y-83257261D01*
X114472011Y-83229195D01*
X114431753Y-83192746D01*
X114402219Y-83148961D01*
X114384016Y-83098644D01*
X114377672Y-83039663D01*
X114379767Y-83002488D01*
X114380098Y-83000706D01*
X114522264Y-83000706D01*
X114525309Y-83028194D01*
X114534049Y-83051570D01*
X114548893Y-83071676D01*
X114571479Y-83089183D01*
X114599350Y-83102295D01*
X114636875Y-83112752D01*
X114678736Y-83118705D01*
X114733290Y-83120935D01*
X114785012Y-83117710D01*
X114829338Y-83108600D01*
X114869641Y-83093290D01*
X114901817Y-83073429D01*
X114928207Y-83048075D01*
X114947674Y-83018108D01*
X114959720Y-82984280D01*
X114963855Y-82946057D01*
X114959153Y-82886950D01*
X114947002Y-82838162D01*
X114647683Y-82838162D01*
X114593680Y-82881947D01*
X114555969Y-82919801D01*
X114536686Y-82946941D01*
X114525803Y-82973674D01*
X114522264Y-83000706D01*
X114380098Y-83000706D01*
X114385671Y-82970664D01*
X114395429Y-82940836D01*
X114408630Y-82913267D01*
X114444900Y-82863747D01*
X114492100Y-82819722D01*
X114389396Y-82815631D01*
X114389396Y-82671467D01*
X115354644Y-82671467D01*
X115354644Y-82838162D01*
G37*
G36*
X114659040Y-83887124D02*
G01*
X114622760Y-83886762D01*
X114594987Y-83883339D01*
X114570111Y-83876426D01*
X114551390Y-83866974D01*
X114536352Y-83854191D01*
X114526294Y-83839253D01*
X114520415Y-83822047D01*
X114518356Y-83801762D01*
X114525310Y-83765677D01*
X114548398Y-83725558D01*
X114584773Y-83687306D01*
X114647316Y-83639157D01*
X115085000Y-83639157D01*
X115085000Y-83468370D01*
X114389396Y-83468370D01*
X114389396Y-83619312D01*
X114494909Y-83625479D01*
X114446671Y-83664070D01*
X114409729Y-83711880D01*
X114396155Y-83739355D01*
X114385976Y-83770315D01*
X114379823Y-83803333D01*
X114377672Y-83840657D01*
X114382338Y-83891279D01*
X114395563Y-83933897D01*
X114417739Y-83971287D01*
X114448564Y-84002224D01*
X114486981Y-84025772D01*
X114536613Y-84043196D01*
X114591767Y-84052494D01*
X114659040Y-84054492D01*
X114659040Y-83887124D01*
G37*
G36*
X114828942Y-84169458D02*
G01*
X114899314Y-84186017D01*
X114961770Y-84214074D01*
X115011055Y-84250924D01*
X115049904Y-84297566D01*
X115078161Y-84354056D01*
X115094765Y-84417454D01*
X115100631Y-84492053D01*
X115093712Y-84570383D01*
X115074070Y-84636828D01*
X115041806Y-84695792D01*
X114999148Y-84744112D01*
X114946554Y-84782317D01*
X114882950Y-84811034D01*
X114812844Y-84828292D01*
X114733351Y-84834298D01*
X114649196Y-84828426D01*
X114579722Y-84812072D01*
X114517798Y-84784352D01*
X114468347Y-84747531D01*
X114429096Y-84700908D01*
X114400509Y-84644399D01*
X114383644Y-84580901D01*
X114377672Y-84505730D01*
X114378157Y-84500235D01*
X114522264Y-84500235D01*
X114528709Y-84550393D01*
X114546741Y-84589450D01*
X114576242Y-84620097D01*
X114614483Y-84641266D01*
X114666814Y-84655439D01*
X114737442Y-84660764D01*
X114782689Y-84658298D01*
X114823660Y-84651177D01*
X114861767Y-84638959D01*
X114893269Y-84622479D01*
X114919567Y-84600438D01*
X114939431Y-84572592D01*
X114951702Y-84539944D01*
X114956039Y-84500235D01*
X114949700Y-84452303D01*
X114931593Y-84413158D01*
X114901390Y-84380678D01*
X114862471Y-84357810D01*
X114809654Y-84342633D01*
X114738785Y-84336959D01*
X114694845Y-84339322D01*
X114654644Y-84346179D01*
X114617179Y-84358274D01*
X114585767Y-84375183D01*
X114559318Y-84397789D01*
X114539239Y-84425741D01*
X114526746Y-84458724D01*
X114522264Y-84500235D01*
X114378157Y-84500235D01*
X114384484Y-84428553D01*
X114403928Y-84362238D01*
X114435762Y-84303225D01*
X114477873Y-84254649D01*
X114529827Y-84216138D01*
X114593033Y-84187055D01*
X114662863Y-84169590D01*
X114742876Y-84163485D01*
X114828942Y-84169458D01*
G37*
G36*
X115228897Y-84939707D02*
G01*
X115263236Y-84953489D01*
X115293254Y-84976317D01*
X115319961Y-85010519D01*
X115340374Y-85052566D01*
X115357025Y-85109560D01*
X115366690Y-85173040D01*
X115370275Y-85254091D01*
X115365370Y-85337956D01*
X115351835Y-85406437D01*
X115329396Y-85468219D01*
X115301765Y-85516041D01*
X115266762Y-85555055D01*
X115227210Y-85581987D01*
X115182947Y-85598376D01*
X115135924Y-85603846D01*
X115095402Y-85599346D01*
X115060636Y-85586383D01*
X115030277Y-85565479D01*
X115004460Y-85536863D01*
X114984275Y-85502403D01*
X114968679Y-85460048D01*
X114959005Y-85413761D01*
X114954635Y-85359970D01*
X114948468Y-85195350D01*
X114943813Y-85170071D01*
X115077001Y-85170071D01*
X115079748Y-85316922D01*
X115085427Y-85363023D01*
X115098189Y-85399232D01*
X115119010Y-85423168D01*
X115132533Y-85429479D01*
X115149602Y-85431716D01*
X115169339Y-85429505D01*
X115188558Y-85422801D01*
X115205816Y-85411364D01*
X115221470Y-85393431D01*
X115233778Y-85371012D01*
X115244307Y-85340491D01*
X115250655Y-85306169D01*
X115253039Y-85260929D01*
X115247692Y-85191633D01*
X115234232Y-85146441D01*
X115218766Y-85123245D01*
X115199687Y-85110258D01*
X115175797Y-85105835D01*
X115150212Y-85108217D01*
X115126338Y-85117742D01*
X115102524Y-85137587D01*
X115077001Y-85170071D01*
X114943813Y-85170071D01*
X114942362Y-85162194D01*
X114928501Y-85136915D01*
X114909145Y-85120856D01*
X114887468Y-85115422D01*
X114870588Y-85117514D01*
X114855961Y-85123604D01*
X114830498Y-85143387D01*
X114838889Y-85161202D01*
X114847290Y-85189794D01*
X114852586Y-85221351D01*
X114854434Y-85256777D01*
X114850462Y-85316644D01*
X114839108Y-85369190D01*
X114819726Y-85417146D01*
X114793679Y-85456629D01*
X114760134Y-85488998D01*
X114719185Y-85513354D01*
X114672495Y-85528244D01*
X114616725Y-85533504D01*
X114589038Y-85531536D01*
X114561892Y-85525628D01*
X114535906Y-85515107D01*
X114510540Y-85498639D01*
X114510540Y-85607937D01*
X114389396Y-85607937D01*
X114389396Y-85367480D01*
X114380298Y-85315884D01*
X114377672Y-85256777D01*
X114377767Y-85255434D01*
X114494909Y-85255434D01*
X114498845Y-85292850D01*
X114509780Y-85322428D01*
X114527210Y-85345926D01*
X114550642Y-85363469D01*
X114580102Y-85374458D01*
X114617336Y-85378410D01*
X114664291Y-85370900D01*
X114685452Y-85361457D01*
X114703736Y-85348368D01*
X114718849Y-85331612D01*
X114730908Y-85310450D01*
X114738424Y-85286284D01*
X114741106Y-85256838D01*
X114737171Y-85219421D01*
X114726237Y-85189820D01*
X114708804Y-85166285D01*
X114685434Y-85148652D01*
X114656810Y-85137743D01*
X114621427Y-85133862D01*
X114573128Y-85141372D01*
X114551291Y-85150841D01*
X114532644Y-85163904D01*
X114517239Y-85180688D01*
X114505106Y-85201823D01*
X114497591Y-85225988D01*
X114494909Y-85255434D01*
X114377767Y-85255434D01*
X114381805Y-85198175D01*
X114393731Y-85145769D01*
X114413834Y-85097849D01*
X114440870Y-85057964D01*
X114475372Y-85025223D01*
X114517379Y-85000261D01*
X114564950Y-84984843D01*
X114620816Y-84979439D01*
X114672063Y-84983966D01*
X114710636Y-84996170D01*
X114744219Y-85015347D01*
X114771758Y-85038241D01*
X114805219Y-85010886D01*
X114840757Y-84987988D01*
X114879286Y-84971929D01*
X114922700Y-84965823D01*
X114955743Y-84970155D01*
X114986875Y-84983225D01*
X115013866Y-85004314D01*
X115036029Y-85034089D01*
X115071383Y-84990369D01*
X115107714Y-84959595D01*
X115146732Y-84941154D01*
X115190940Y-84935048D01*
X115228897Y-84939707D01*
G37*
G36*
X114659040Y-86193754D02*
G01*
X114622760Y-86193391D01*
X114594987Y-86189968D01*
X114570111Y-86183056D01*
X114551390Y-86173604D01*
X114536352Y-86160820D01*
X114526294Y-86145882D01*
X114520415Y-86128676D01*
X114518356Y-86108391D01*
X114525310Y-86072306D01*
X114548398Y-86032187D01*
X114584773Y-85993935D01*
X114647316Y-85945786D01*
X115085000Y-85945786D01*
X115085000Y-85775000D01*
X114389396Y-85775000D01*
X114389396Y-85925942D01*
X114494909Y-85932109D01*
X114446671Y-85970699D01*
X114409729Y-86018510D01*
X114396155Y-86045985D01*
X114385976Y-86076945D01*
X114379823Y-86109963D01*
X114377672Y-86147287D01*
X114382338Y-86197908D01*
X114395563Y-86240526D01*
X114417739Y-86277916D01*
X114448564Y-86308853D01*
X114486981Y-86332402D01*
X114536613Y-86349825D01*
X114591767Y-86359123D01*
X114659040Y-86361121D01*
X114659040Y-86193754D01*
G37*
G36*
X114933997Y-86498940D02*
G01*
X114974663Y-86509316D01*
X115011335Y-86526845D01*
X115041707Y-86550654D01*
X115066163Y-86580819D01*
X115085061Y-86618309D01*
X115096529Y-86660607D01*
X115100631Y-86711854D01*
X115098601Y-86751284D01*
X115092815Y-86785982D01*
X115083288Y-86818835D01*
X115070772Y-86848508D01*
X115037128Y-86901081D01*
X114994691Y-86946877D01*
X115085000Y-86950968D01*
X115085000Y-87093789D01*
X114612084Y-87093789D01*
X114555722Y-87089274D01*
X114509563Y-87076692D01*
X114469186Y-87054883D01*
X114436290Y-87023752D01*
X114411240Y-86984250D01*
X114392327Y-86932527D01*
X114381631Y-86874350D01*
X114377672Y-86800026D01*
X114381044Y-86730504D01*
X114390983Y-86664410D01*
X114406505Y-86601424D01*
X114424567Y-86549310D01*
X114557435Y-86549310D01*
X114534375Y-86606276D01*
X114517135Y-86665081D01*
X114506327Y-86725288D01*
X114502725Y-86786348D01*
X114505004Y-86823659D01*
X114511090Y-86851927D01*
X114521449Y-86876698D01*
X114534659Y-86895341D01*
X114551477Y-86909734D01*
X114571723Y-86919583D01*
X114594400Y-86925141D01*
X114620633Y-86927093D01*
X114662948Y-86927093D01*
X114662948Y-86836235D01*
X114663545Y-86825305D01*
X114780184Y-86825305D01*
X114780184Y-86927093D01*
X114871592Y-86927093D01*
X114914310Y-86881930D01*
X114942911Y-86844417D01*
X114961951Y-86806350D01*
X114967763Y-86771999D01*
X114961868Y-86728375D01*
X114945903Y-86697505D01*
X114929570Y-86682624D01*
X114908861Y-86673481D01*
X114882400Y-86670211D01*
X114862063Y-86672362D01*
X114843077Y-86678759D01*
X114825939Y-86689563D01*
X114810471Y-86705748D01*
X114798220Y-86726092D01*
X114788244Y-86753558D01*
X114782379Y-86784618D01*
X114780184Y-86825305D01*
X114663545Y-86825305D01*
X114667492Y-86753098D01*
X114679923Y-86686270D01*
X114700773Y-86626062D01*
X114726634Y-86579658D01*
X114759835Y-86541980D01*
X114797770Y-86516154D01*
X114840680Y-86500605D01*
X114887896Y-86495333D01*
X114933997Y-86498940D01*
G37*
G36*
X115085000Y-87774555D02*
G01*
X114613977Y-87774555D01*
X114568731Y-87773150D01*
X114536430Y-87767716D01*
X114517013Y-87755748D01*
X114512287Y-87746882D01*
X114510540Y-87734255D01*
X114516722Y-87714691D01*
X114539117Y-87692550D01*
X114573269Y-87672838D01*
X114636448Y-87646083D01*
X115085000Y-87646083D01*
X115085000Y-87503323D01*
X114613977Y-87503323D01*
X114568731Y-87501919D01*
X114536430Y-87496484D01*
X114517013Y-87484211D01*
X114512274Y-87475036D01*
X114510540Y-87462351D01*
X114516360Y-87445481D01*
X114539117Y-87422723D01*
X114573346Y-87401892D01*
X114636448Y-87374241D01*
X115085000Y-87374241D01*
X115085000Y-87230076D01*
X114389396Y-87230076D01*
X114389396Y-87353724D01*
X114490696Y-87356472D01*
X114438916Y-87386514D01*
X114403562Y-87418632D01*
X114391608Y-87436481D01*
X114383717Y-87455146D01*
X114377672Y-87499232D01*
X114381413Y-87536803D01*
X114391644Y-87565623D01*
X114407653Y-87587709D01*
X114429344Y-87604573D01*
X114456560Y-87616182D01*
X114490696Y-87622208D01*
X114438916Y-87654631D01*
X114403562Y-87688093D01*
X114391633Y-87706357D01*
X114383717Y-87725706D01*
X114377672Y-87770403D01*
X114384024Y-87818187D01*
X114401697Y-87854596D01*
X114430612Y-87882449D01*
X114467762Y-87901226D01*
X114518654Y-87913888D01*
X114587294Y-87918658D01*
X115085000Y-87918658D01*
X115085000Y-87774555D01*
G37*
G36*
X115085000Y-88543431D02*
G01*
X114613977Y-88543431D01*
X114568731Y-88542027D01*
X114536430Y-88536592D01*
X114517013Y-88524624D01*
X114512287Y-88515758D01*
X114510540Y-88503131D01*
X114516722Y-88483567D01*
X114539117Y-88461427D01*
X114573269Y-88441715D01*
X114636448Y-88414959D01*
X115085000Y-88414959D01*
X115085000Y-88272199D01*
X114613977Y-88272199D01*
X114568731Y-88270795D01*
X114536430Y-88265361D01*
X114517013Y-88253087D01*
X114512274Y-88243913D01*
X114510540Y-88231228D01*
X114516360Y-88214358D01*
X114539117Y-88191599D01*
X114573346Y-88170769D01*
X114636448Y-88143117D01*
X115085000Y-88143117D01*
X115085000Y-87998953D01*
X114389396Y-87998953D01*
X114389396Y-88122601D01*
X114490696Y-88125348D01*
X114438916Y-88155390D01*
X114403562Y-88187508D01*
X114391608Y-88205357D01*
X114383717Y-88224023D01*
X114377672Y-88268108D01*
X114381413Y-88305679D01*
X114391644Y-88334500D01*
X114407653Y-88356585D01*
X114429344Y-88373449D01*
X114456560Y-88385058D01*
X114490696Y-88391085D01*
X114438916Y-88423508D01*
X114403562Y-88456969D01*
X114391633Y-88475233D01*
X114383717Y-88494583D01*
X114377672Y-88539279D01*
X114384024Y-88587064D01*
X114401697Y-88623472D01*
X114430612Y-88651325D01*
X114467762Y-88670102D01*
X114518654Y-88682765D01*
X114587294Y-88687534D01*
X115085000Y-88687534D01*
X115085000Y-88543431D01*
G37*
G36*
X114835243Y-88803321D02*
G01*
X114903039Y-88820403D01*
X114963266Y-88849209D01*
X115011727Y-88887386D01*
X115049983Y-88935398D01*
X115078161Y-88993937D01*
X115094768Y-89059341D01*
X115100631Y-89136025D01*
X115098128Y-89200933D01*
X115090739Y-89267184D01*
X115079565Y-89331420D01*
X115065460Y-89389488D01*
X114932592Y-89389488D01*
X114948849Y-89327614D01*
X114959520Y-89269565D01*
X114965778Y-89212642D01*
X114967763Y-89161304D01*
X114964569Y-89118849D01*
X114955429Y-89081742D01*
X114940099Y-89048131D01*
X114919525Y-89020254D01*
X114893349Y-88997744D01*
X114860968Y-88980626D01*
X114824317Y-88970316D01*
X114780184Y-88966643D01*
X114780184Y-89422950D01*
X114729199Y-89426003D01*
X114684991Y-89427041D01*
X114619521Y-89421934D01*
X114561282Y-89407196D01*
X114508323Y-89382547D01*
X114464012Y-89349127D01*
X114428076Y-89306798D01*
X114400448Y-89254178D01*
X114383640Y-89194788D01*
X114377672Y-89123752D01*
X114378001Y-89120333D01*
X114502725Y-89120333D01*
X114505103Y-89148332D01*
X114512067Y-89173944D01*
X114523835Y-89197335D01*
X114540643Y-89217663D01*
X114562037Y-89234207D01*
X114589553Y-89247400D01*
X114620649Y-89255271D01*
X114659040Y-89257658D01*
X114659040Y-88969330D01*
X114611007Y-88978604D01*
X114573214Y-88994731D01*
X114543635Y-89017140D01*
X114521085Y-89046206D01*
X114507468Y-89080121D01*
X114502725Y-89120333D01*
X114378001Y-89120333D01*
X114384602Y-89051784D01*
X114404600Y-88988808D01*
X114437223Y-88932772D01*
X114480926Y-88885982D01*
X114534430Y-88848896D01*
X114599506Y-88820403D01*
X114671061Y-88803216D01*
X114753135Y-88797199D01*
X114835243Y-88803321D01*
G37*
G36*
X114659040Y-90038136D02*
G01*
X114622760Y-90037773D01*
X114594987Y-90034351D01*
X114570111Y-90027438D01*
X114551390Y-90017986D01*
X114536352Y-90005203D01*
X114526294Y-89990265D01*
X114520415Y-89973059D01*
X114518356Y-89952773D01*
X114525310Y-89916689D01*
X114548398Y-89876570D01*
X114584773Y-89838317D01*
X114647316Y-89790169D01*
X115085000Y-89790169D01*
X115085000Y-89619382D01*
X114389396Y-89619382D01*
X114389396Y-89770324D01*
X114494909Y-89776491D01*
X114446671Y-89815081D01*
X114409729Y-89862892D01*
X114396155Y-89890367D01*
X114385976Y-89921327D01*
X114379823Y-89954345D01*
X114377672Y-89991669D01*
X114382338Y-90042291D01*
X114395563Y-90084909D01*
X114417739Y-90122298D01*
X114448564Y-90153236D01*
X114486981Y-90176784D01*
X114536613Y-90194207D01*
X114591767Y-90203506D01*
X114659040Y-90205504D01*
X114659040Y-90038136D01*
G37*
D10*
X221657419Y-74714285D02*
X221657419Y-74523809D01*
X221657419Y-74523809D02*
X221705038Y-74428571D01*
X221705038Y-74428571D02*
X221752657Y-74380952D01*
X221752657Y-74380952D02*
X221895514Y-74285714D01*
X221895514Y-74285714D02*
X222085990Y-74238095D01*
X222085990Y-74238095D02*
X222466942Y-74238095D01*
X222466942Y-74238095D02*
X222562180Y-74285714D01*
X222562180Y-74285714D02*
X222609800Y-74333333D01*
X222609800Y-74333333D02*
X222657419Y-74428571D01*
X222657419Y-74428571D02*
X222657419Y-74619047D01*
X222657419Y-74619047D02*
X222609800Y-74714285D01*
X222609800Y-74714285D02*
X222562180Y-74761904D01*
X222562180Y-74761904D02*
X222466942Y-74809523D01*
X222466942Y-74809523D02*
X222228847Y-74809523D01*
X222228847Y-74809523D02*
X222133609Y-74761904D01*
X222133609Y-74761904D02*
X222085990Y-74714285D01*
X222085990Y-74714285D02*
X222038371Y-74619047D01*
X222038371Y-74619047D02*
X222038371Y-74428571D01*
X222038371Y-74428571D02*
X222085990Y-74333333D01*
X222085990Y-74333333D02*
X222133609Y-74285714D01*
X222133609Y-74285714D02*
X222228847Y-74238095D01*
X221657419Y-75428571D02*
X221657419Y-75523809D01*
X221657419Y-75523809D02*
X221705038Y-75619047D01*
X221705038Y-75619047D02*
X221752657Y-75666666D01*
X221752657Y-75666666D02*
X221847895Y-75714285D01*
X221847895Y-75714285D02*
X222038371Y-75761904D01*
X222038371Y-75761904D02*
X222276466Y-75761904D01*
X222276466Y-75761904D02*
X222466942Y-75714285D01*
X222466942Y-75714285D02*
X222562180Y-75666666D01*
X222562180Y-75666666D02*
X222609800Y-75619047D01*
X222609800Y-75619047D02*
X222657419Y-75523809D01*
X222657419Y-75523809D02*
X222657419Y-75428571D01*
X222657419Y-75428571D02*
X222609800Y-75333333D01*
X222609800Y-75333333D02*
X222562180Y-75285714D01*
X222562180Y-75285714D02*
X222466942Y-75238095D01*
X222466942Y-75238095D02*
X222276466Y-75190476D01*
X222276466Y-75190476D02*
X222038371Y-75190476D01*
X222038371Y-75190476D02*
X221847895Y-75238095D01*
X221847895Y-75238095D02*
X221752657Y-75285714D01*
X221752657Y-75285714D02*
X221705038Y-75333333D01*
X221705038Y-75333333D02*
X221657419Y-75428571D01*
X191700000Y-45000000D02*
X223886420Y-45000000D01*
X223886420Y-105000000D02*
X191700000Y-105000000D01*
X223300000Y-45000000D02*
X223300000Y-105000000D01*
X223300000Y-45000000D02*
X223886421Y-46126504D01*
X223300000Y-45000000D02*
X222713579Y-46126504D01*
X223300000Y-105000000D02*
X222713579Y-103873496D01*
X223300000Y-105000000D02*
X223886421Y-103873496D01*
X154632142Y-125557419D02*
X155203570Y-125557419D01*
X154917856Y-125557419D02*
X154917856Y-124557419D01*
X154917856Y-124557419D02*
X155013094Y-124700276D01*
X155013094Y-124700276D02*
X155108332Y-124795514D01*
X155108332Y-124795514D02*
X155203570Y-124843133D01*
X153679761Y-125557419D02*
X154251189Y-125557419D01*
X153965475Y-125557419D02*
X153965475Y-124557419D01*
X153965475Y-124557419D02*
X154060713Y-124700276D01*
X154060713Y-124700276D02*
X154155951Y-124795514D01*
X154155951Y-124795514D02*
X154251189Y-124843133D01*
X152822618Y-124890752D02*
X152822618Y-125557419D01*
X153060713Y-124509800D02*
X153298808Y-125224085D01*
X153298808Y-125224085D02*
X152679761Y-125224085D01*
X152298808Y-125462180D02*
X152251189Y-125509800D01*
X152251189Y-125509800D02*
X152298808Y-125557419D01*
X152298808Y-125557419D02*
X152346427Y-125509800D01*
X152346427Y-125509800D02*
X152298808Y-125462180D01*
X152298808Y-125462180D02*
X152298808Y-125557419D01*
X151346428Y-124557419D02*
X151822618Y-124557419D01*
X151822618Y-124557419D02*
X151870237Y-125033609D01*
X151870237Y-125033609D02*
X151822618Y-124985990D01*
X151822618Y-124985990D02*
X151727380Y-124938371D01*
X151727380Y-124938371D02*
X151489285Y-124938371D01*
X151489285Y-124938371D02*
X151394047Y-124985990D01*
X151394047Y-124985990D02*
X151346428Y-125033609D01*
X151346428Y-125033609D02*
X151298809Y-125128847D01*
X151298809Y-125128847D02*
X151298809Y-125366942D01*
X151298809Y-125366942D02*
X151346428Y-125462180D01*
X151346428Y-125462180D02*
X151394047Y-125509800D01*
X151394047Y-125509800D02*
X151489285Y-125557419D01*
X151489285Y-125557419D02*
X151727380Y-125557419D01*
X151727380Y-125557419D02*
X151822618Y-125509800D01*
X151822618Y-125509800D02*
X151870237Y-125462180D01*
X150394047Y-124557419D02*
X150870237Y-124557419D01*
X150870237Y-124557419D02*
X150917856Y-125033609D01*
X150917856Y-125033609D02*
X150870237Y-124985990D01*
X150870237Y-124985990D02*
X150774999Y-124938371D01*
X150774999Y-124938371D02*
X150536904Y-124938371D01*
X150536904Y-124938371D02*
X150441666Y-124985990D01*
X150441666Y-124985990D02*
X150394047Y-125033609D01*
X150394047Y-125033609D02*
X150346428Y-125128847D01*
X150346428Y-125128847D02*
X150346428Y-125366942D01*
X150346428Y-125366942D02*
X150394047Y-125462180D01*
X150394047Y-125462180D02*
X150441666Y-125509800D01*
X150441666Y-125509800D02*
X150536904Y-125557419D01*
X150536904Y-125557419D02*
X150774999Y-125557419D01*
X150774999Y-125557419D02*
X150870237Y-125509800D01*
X150870237Y-125509800D02*
X150917856Y-125462180D01*
X95500000Y-40500000D02*
X95500000Y-126786420D01*
X210050000Y-126786420D02*
X210050000Y-40500000D01*
X95500000Y-126200000D02*
X210050000Y-126200000D01*
X95500000Y-126200000D02*
X96626504Y-125613579D01*
X95500000Y-126200000D02*
X96626504Y-126786421D01*
X210050000Y-126200000D02*
X208923496Y-126786421D01*
X210050000Y-126200000D02*
X208923496Y-125613579D01*
D12*
X108654285Y-91954819D02*
X108654285Y-90954819D01*
X108654285Y-90954819D02*
X108416190Y-90954819D01*
X108416190Y-90954819D02*
X108273333Y-91002438D01*
X108273333Y-91002438D02*
X108178095Y-91097676D01*
X108178095Y-91097676D02*
X108130476Y-91192914D01*
X108130476Y-91192914D02*
X108082857Y-91383390D01*
X108082857Y-91383390D02*
X108082857Y-91526247D01*
X108082857Y-91526247D02*
X108130476Y-91716723D01*
X108130476Y-91716723D02*
X108178095Y-91811961D01*
X108178095Y-91811961D02*
X108273333Y-91907200D01*
X108273333Y-91907200D02*
X108416190Y-91954819D01*
X108416190Y-91954819D02*
X108654285Y-91954819D01*
X107701904Y-91050057D02*
X107654285Y-91002438D01*
X107654285Y-91002438D02*
X107559047Y-90954819D01*
X107559047Y-90954819D02*
X107320952Y-90954819D01*
X107320952Y-90954819D02*
X107225714Y-91002438D01*
X107225714Y-91002438D02*
X107178095Y-91050057D01*
X107178095Y-91050057D02*
X107130476Y-91145295D01*
X107130476Y-91145295D02*
X107130476Y-91240533D01*
X107130476Y-91240533D02*
X107178095Y-91383390D01*
X107178095Y-91383390D02*
X107749523Y-91954819D01*
X107749523Y-91954819D02*
X107130476Y-91954819D01*
X106178095Y-91954819D02*
X106749523Y-91954819D01*
X106463809Y-91954819D02*
X106463809Y-90954819D01*
X106463809Y-90954819D02*
X106559047Y-91097676D01*
X106559047Y-91097676D02*
X106654285Y-91192914D01*
X106654285Y-91192914D02*
X106749523Y-91240533D01*
X198104285Y-90574819D02*
X198104285Y-89574819D01*
X198104285Y-89574819D02*
X197866190Y-89574819D01*
X197866190Y-89574819D02*
X197723333Y-89622438D01*
X197723333Y-89622438D02*
X197628095Y-89717676D01*
X197628095Y-89717676D02*
X197580476Y-89812914D01*
X197580476Y-89812914D02*
X197532857Y-90003390D01*
X197532857Y-90003390D02*
X197532857Y-90146247D01*
X197532857Y-90146247D02*
X197580476Y-90336723D01*
X197580476Y-90336723D02*
X197628095Y-90431961D01*
X197628095Y-90431961D02*
X197723333Y-90527200D01*
X197723333Y-90527200D02*
X197866190Y-90574819D01*
X197866190Y-90574819D02*
X198104285Y-90574819D01*
X197151904Y-89670057D02*
X197104285Y-89622438D01*
X197104285Y-89622438D02*
X197009047Y-89574819D01*
X197009047Y-89574819D02*
X196770952Y-89574819D01*
X196770952Y-89574819D02*
X196675714Y-89622438D01*
X196675714Y-89622438D02*
X196628095Y-89670057D01*
X196628095Y-89670057D02*
X196580476Y-89765295D01*
X196580476Y-89765295D02*
X196580476Y-89860533D01*
X196580476Y-89860533D02*
X196628095Y-90003390D01*
X196628095Y-90003390D02*
X197199523Y-90574819D01*
X197199523Y-90574819D02*
X196580476Y-90574819D01*
X196199523Y-89670057D02*
X196151904Y-89622438D01*
X196151904Y-89622438D02*
X196056666Y-89574819D01*
X196056666Y-89574819D02*
X195818571Y-89574819D01*
X195818571Y-89574819D02*
X195723333Y-89622438D01*
X195723333Y-89622438D02*
X195675714Y-89670057D01*
X195675714Y-89670057D02*
X195628095Y-89765295D01*
X195628095Y-89765295D02*
X195628095Y-89860533D01*
X195628095Y-89860533D02*
X195675714Y-90003390D01*
X195675714Y-90003390D02*
X196247142Y-90574819D01*
X196247142Y-90574819D02*
X195628095Y-90574819D01*
X168284819Y-101016666D02*
X168999104Y-101016666D01*
X168999104Y-101016666D02*
X169141961Y-100969047D01*
X169141961Y-100969047D02*
X169237200Y-100873809D01*
X169237200Y-100873809D02*
X169284819Y-100730952D01*
X169284819Y-100730952D02*
X169284819Y-100635714D01*
X168284819Y-101397619D02*
X168284819Y-102016666D01*
X168284819Y-102016666D02*
X168665771Y-101683333D01*
X168665771Y-101683333D02*
X168665771Y-101826190D01*
X168665771Y-101826190D02*
X168713390Y-101921428D01*
X168713390Y-101921428D02*
X168761009Y-101969047D01*
X168761009Y-101969047D02*
X168856247Y-102016666D01*
X168856247Y-102016666D02*
X169094342Y-102016666D01*
X169094342Y-102016666D02*
X169189580Y-101969047D01*
X169189580Y-101969047D02*
X169237200Y-101921428D01*
X169237200Y-101921428D02*
X169284819Y-101826190D01*
X169284819Y-101826190D02*
X169284819Y-101540476D01*
X169284819Y-101540476D02*
X169237200Y-101445238D01*
X169237200Y-101445238D02*
X169189580Y-101397619D01*
X194514285Y-74104819D02*
X194514285Y-73104819D01*
X194514285Y-73104819D02*
X194276190Y-73104819D01*
X194276190Y-73104819D02*
X194133333Y-73152438D01*
X194133333Y-73152438D02*
X194038095Y-73247676D01*
X194038095Y-73247676D02*
X193990476Y-73342914D01*
X193990476Y-73342914D02*
X193942857Y-73533390D01*
X193942857Y-73533390D02*
X193942857Y-73676247D01*
X193942857Y-73676247D02*
X193990476Y-73866723D01*
X193990476Y-73866723D02*
X194038095Y-73961961D01*
X194038095Y-73961961D02*
X194133333Y-74057200D01*
X194133333Y-74057200D02*
X194276190Y-74104819D01*
X194276190Y-74104819D02*
X194514285Y-74104819D01*
X193561904Y-73200057D02*
X193514285Y-73152438D01*
X193514285Y-73152438D02*
X193419047Y-73104819D01*
X193419047Y-73104819D02*
X193180952Y-73104819D01*
X193180952Y-73104819D02*
X193085714Y-73152438D01*
X193085714Y-73152438D02*
X193038095Y-73200057D01*
X193038095Y-73200057D02*
X192990476Y-73295295D01*
X192990476Y-73295295D02*
X192990476Y-73390533D01*
X192990476Y-73390533D02*
X193038095Y-73533390D01*
X193038095Y-73533390D02*
X193609523Y-74104819D01*
X193609523Y-74104819D02*
X192990476Y-74104819D01*
X192371428Y-73104819D02*
X192276190Y-73104819D01*
X192276190Y-73104819D02*
X192180952Y-73152438D01*
X192180952Y-73152438D02*
X192133333Y-73200057D01*
X192133333Y-73200057D02*
X192085714Y-73295295D01*
X192085714Y-73295295D02*
X192038095Y-73485771D01*
X192038095Y-73485771D02*
X192038095Y-73723866D01*
X192038095Y-73723866D02*
X192085714Y-73914342D01*
X192085714Y-73914342D02*
X192133333Y-74009580D01*
X192133333Y-74009580D02*
X192180952Y-74057200D01*
X192180952Y-74057200D02*
X192276190Y-74104819D01*
X192276190Y-74104819D02*
X192371428Y-74104819D01*
X192371428Y-74104819D02*
X192466666Y-74057200D01*
X192466666Y-74057200D02*
X192514285Y-74009580D01*
X192514285Y-74009580D02*
X192561904Y-73914342D01*
X192561904Y-73914342D02*
X192609523Y-73723866D01*
X192609523Y-73723866D02*
X192609523Y-73485771D01*
X192609523Y-73485771D02*
X192561904Y-73295295D01*
X192561904Y-73295295D02*
X192514285Y-73200057D01*
X192514285Y-73200057D02*
X192466666Y-73152438D01*
X192466666Y-73152438D02*
X192371428Y-73104819D01*
X128004820Y-101016666D02*
X128719105Y-101016666D01*
X128719105Y-101016666D02*
X128861962Y-100969047D01*
X128861962Y-100969047D02*
X128957201Y-100873809D01*
X128957201Y-100873809D02*
X129004820Y-100730952D01*
X129004820Y-100730952D02*
X129004820Y-100635714D01*
X128338153Y-101921428D02*
X129004820Y-101921428D01*
X127957201Y-101683333D02*
X128671486Y-101445238D01*
X128671486Y-101445238D02*
X128671486Y-102064285D01*
X145764819Y-52766668D02*
X146479104Y-52766668D01*
X146479104Y-52766668D02*
X146621961Y-52719049D01*
X146621961Y-52719049D02*
X146717200Y-52623811D01*
X146717200Y-52623811D02*
X146764819Y-52480954D01*
X146764819Y-52480954D02*
X146764819Y-52385716D01*
X145764819Y-53719049D02*
X145764819Y-53242859D01*
X145764819Y-53242859D02*
X146241009Y-53195240D01*
X146241009Y-53195240D02*
X146193390Y-53242859D01*
X146193390Y-53242859D02*
X146145771Y-53338097D01*
X146145771Y-53338097D02*
X146145771Y-53576192D01*
X146145771Y-53576192D02*
X146193390Y-53671430D01*
X146193390Y-53671430D02*
X146241009Y-53719049D01*
X146241009Y-53719049D02*
X146336247Y-53766668D01*
X146336247Y-53766668D02*
X146574342Y-53766668D01*
X146574342Y-53766668D02*
X146669580Y-53719049D01*
X146669580Y-53719049D02*
X146717200Y-53671430D01*
X146717200Y-53671430D02*
X146764819Y-53576192D01*
X146764819Y-53576192D02*
X146764819Y-53338097D01*
X146764819Y-53338097D02*
X146717200Y-53242859D01*
X146717200Y-53242859D02*
X146669580Y-53195240D01*
X106704819Y-52866666D02*
X107419104Y-52866666D01*
X107419104Y-52866666D02*
X107561961Y-52819047D01*
X107561961Y-52819047D02*
X107657200Y-52723809D01*
X107657200Y-52723809D02*
X107704819Y-52580952D01*
X107704819Y-52580952D02*
X107704819Y-52485714D01*
X107704819Y-53866666D02*
X107704819Y-53295238D01*
X107704819Y-53580952D02*
X106704819Y-53580952D01*
X106704819Y-53580952D02*
X106847676Y-53485714D01*
X106847676Y-53485714D02*
X106942914Y-53390476D01*
X106942914Y-53390476D02*
X106990533Y-53295238D01*
X118904818Y-52766666D02*
X119619103Y-52766666D01*
X119619103Y-52766666D02*
X119761960Y-52719047D01*
X119761960Y-52719047D02*
X119857199Y-52623809D01*
X119857199Y-52623809D02*
X119904818Y-52480952D01*
X119904818Y-52480952D02*
X119904818Y-52385714D01*
X118904818Y-53671428D02*
X118904818Y-53480952D01*
X118904818Y-53480952D02*
X118952437Y-53385714D01*
X118952437Y-53385714D02*
X119000056Y-53338095D01*
X119000056Y-53338095D02*
X119142913Y-53242857D01*
X119142913Y-53242857D02*
X119333389Y-53195238D01*
X119333389Y-53195238D02*
X119714341Y-53195238D01*
X119714341Y-53195238D02*
X119809579Y-53242857D01*
X119809579Y-53242857D02*
X119857199Y-53290476D01*
X119857199Y-53290476D02*
X119904818Y-53385714D01*
X119904818Y-53385714D02*
X119904818Y-53576190D01*
X119904818Y-53576190D02*
X119857199Y-53671428D01*
X119857199Y-53671428D02*
X119809579Y-53719047D01*
X119809579Y-53719047D02*
X119714341Y-53766666D01*
X119714341Y-53766666D02*
X119476246Y-53766666D01*
X119476246Y-53766666D02*
X119381008Y-53719047D01*
X119381008Y-53719047D02*
X119333389Y-53671428D01*
X119333389Y-53671428D02*
X119285770Y-53576190D01*
X119285770Y-53576190D02*
X119285770Y-53385714D01*
X119285770Y-53385714D02*
X119333389Y-53290476D01*
X119333389Y-53290476D02*
X119381008Y-53242857D01*
X119381008Y-53242857D02*
X119476246Y-53195238D01*
D13*
%TO.C,D21*%
X103940000Y-90300000D02*
X103940000Y-85250000D01*
X104390000Y-90750000D02*
X103940000Y-90300000D01*
X104740000Y-88900000D02*
X104740000Y-87100000D01*
X110140000Y-88900000D02*
X110140000Y-87100000D01*
X110940000Y-85250000D02*
X103940000Y-85250000D01*
X110940000Y-85250000D02*
X110940000Y-90750000D01*
X110940000Y-90750000D02*
X104390000Y-90750000D01*
%TO.C,D22*%
X193390000Y-88920000D02*
X193390000Y-83870000D01*
X193840000Y-89370000D02*
X193390000Y-88920000D01*
X194190000Y-87520000D02*
X194190000Y-85720000D01*
X199590000Y-87520000D02*
X199590000Y-85720000D01*
X200390000Y-83870000D02*
X193390000Y-83870000D01*
X200390000Y-83870000D02*
X200390000Y-89370000D01*
X200390000Y-89370000D02*
X193840000Y-89370000D01*
%TO.C,J3*%
X152370000Y-102730000D02*
X152370000Y-99970000D01*
X165180000Y-99970000D02*
X152370000Y-99970000D01*
X165180000Y-102730000D02*
X152370000Y-102730000D01*
X165180000Y-102730000D02*
X165180000Y-99970000D01*
X166450000Y-102729999D02*
X167830000Y-102730000D01*
X167830000Y-102730000D02*
X167829999Y-101350000D01*
%TO.C,D19*%
X104260000Y-65580000D02*
X104260000Y-60530000D01*
X104710000Y-66030000D02*
X104260000Y-65580000D01*
X105060000Y-64180000D02*
X105060000Y-62380000D01*
X110460000Y-64180000D02*
X110460000Y-62380000D01*
X111260000Y-60530000D02*
X104260000Y-60530000D01*
X111260000Y-60530000D02*
X111260000Y-66030000D01*
X111260000Y-66030000D02*
X104710000Y-66030000D01*
%TO.C,D20*%
X189800000Y-72450000D02*
X189800000Y-67400000D01*
X190250000Y-72900000D02*
X189800000Y-72450000D01*
X190600000Y-71050000D02*
X190600000Y-69250000D01*
X196000000Y-71050000D02*
X196000000Y-69250000D01*
X196800000Y-67400000D02*
X189800000Y-67400000D01*
X196800000Y-67400000D02*
X196800000Y-72900000D01*
X196800000Y-72900000D02*
X190250000Y-72900000D01*
%TO.C,J4*%
X129550001Y-99970000D02*
X129550002Y-101350000D01*
X130930001Y-99970001D02*
X129550001Y-99970000D01*
X132200001Y-99970000D02*
X132200001Y-102730000D01*
X132200001Y-99970000D02*
X150090001Y-99970001D01*
X132200001Y-102730000D02*
X150090001Y-102729999D01*
X150090001Y-99970001D02*
X150090001Y-102729999D01*
%TO.C,J5*%
X147310000Y-51720002D02*
X147310001Y-53100002D01*
X148690000Y-51720003D02*
X147310000Y-51720002D01*
X149960000Y-51720002D02*
X149960000Y-54480002D01*
X149960000Y-51720002D02*
X167850000Y-51720003D01*
X149960000Y-54480002D02*
X167850000Y-54480001D01*
X167850000Y-51720003D02*
X167850000Y-54480001D01*
%TO.C,J1*%
X108250000Y-51820000D02*
X108250001Y-53200000D01*
X109630000Y-51820001D02*
X108250000Y-51820000D01*
X110900000Y-51820000D02*
X110900000Y-54580000D01*
X110900000Y-51820000D02*
X118630000Y-51820001D01*
X110900000Y-54580000D02*
X118630000Y-54579999D01*
X118630000Y-51820001D02*
X118630000Y-54579999D01*
%TO.C,J6*%
X120449999Y-51720000D02*
X120450000Y-53100000D01*
X121829999Y-51720001D02*
X120449999Y-51720000D01*
X123099999Y-51720000D02*
X123099999Y-54480000D01*
X123099999Y-51720000D02*
X146069999Y-51720000D01*
X123099999Y-54480000D02*
X146069999Y-54480000D01*
X146069999Y-51720000D02*
X146069999Y-54480000D01*
%TD*%
M02*
