M48
; DRILL file {KiCad 9.0.1} date 2025-05-27T17:06:06+0530
; FORMAT={-:-/ absolute / inch / decimal}
; #@! TF.CreationDate,2025-05-27T17:06:06+05:30
; #@! TF.GenerationSoftware,Kicad,Pcbnew,9.0.1
; #@! TF.FileFunction,Plated,1,4,PTH
FMAT,2
INCH
; #@! TA.AperFunction,Plated,PTH,ViaDrill
T1C0.0118
; #@! TA.AperFunction,Plated,PTH,ComponentDrill
T2C0.0276
; #@! TA.AperFunction,Plated,PTH,ComponentDrill
T3C0.0315
; #@! TA.AperFunction,Plated,PTH,ComponentDrill
T4C0.0394
; #@! TA.AperFunction,Plated,PTH,ComponentDrill
T5C0.0433
; #@! TA.AperFunction,Plated,PTH,ComponentDrill
T6C0.1024
%
G90
G05
T1
X4.0551Y-2.7657
X4.1717Y-3.6457
X4.2315Y-3.6709
X4.3012Y-2.8248
X4.4168Y-2.5942
X4.4311Y-2.6961
X4.5081Y-3.8868
X4.5413Y-3.8415
X4.7047Y-2.0768
X4.7047Y-2.1122
X5.0787Y-2.5492
X5.1181Y-2.5492
X5.1181Y-2.8346
X5.128Y-2.4705
X7.1063Y-3.7244
X7.5394Y-3.8878
X7.6063Y-3.1598
X7.6083Y-2.8937
X7.6142Y-3.6772
X7.6673Y-2.9331
X7.706Y-1.8399
X7.8051Y-2.9724
X7.8543Y-3.6811
X8.0315Y-3.7795
X8.0709Y-3.7992
T2
X6.7791Y-3.8406
X6.7795Y-3.9882
X6.7831Y-2.0807
X7.0791Y-3.8406
X7.0795Y-3.9882
X7.0831Y-2.0807
T3
X6.7866Y-2.2634
X6.7866Y-2.3634
X6.7866Y-2.4634
X6.7866Y-2.5634
X6.7866Y-2.6634
X6.7866Y-2.7634
X6.7866Y-2.8634
X6.7866Y-2.9634
X6.7866Y-3.0634
X6.7866Y-3.1634
X6.7866Y-3.2634
X6.7866Y-3.3634
X6.7866Y-3.4634
X6.7866Y-3.5634
X7.0866Y-2.2634
X7.0866Y-2.3634
X7.0866Y-2.4634
X7.0866Y-2.5634
X7.0866Y-2.6634
X7.0866Y-2.7634
X7.0866Y-2.8634
X7.0866Y-2.9634
X7.0866Y-3.0634
X7.0866Y-3.1634
X7.0866Y-3.2634
X7.0866Y-3.3634
X7.0866Y-3.4634
X7.0866Y-3.5634
X7.9862Y-3.3586
X7.9862Y-3.457
X7.9862Y-3.5554
X8.1122Y-3.3586
X8.1122Y-3.457
X8.1122Y-3.5554
T4
X3.874Y-3.2358
X3.874Y-3.3358
X3.874Y-3.4358
X3.874Y-3.5358
X3.9157Y-3.9868
X3.9157Y-3.8868
X3.9469Y-2.3976
X3.9469Y-2.4961
X3.9469Y-2.5945
X4.0157Y-3.8868
X4.0157Y-3.9868
X4.1157Y-3.8868
X4.1157Y-3.9868
X4.3161Y-2.0945
X4.4012Y-3.9917
X4.4161Y-2.0945
X4.5012Y-3.9917
X4.5161Y-2.0945
X4.5177Y-2.3976
X4.5177Y-2.5945
X4.6012Y-3.9917
X4.6161Y-2.0945
X4.6575Y-2.3976
X4.6575Y-2.4961
X4.6575Y-2.5945
X4.7012Y-3.9917
X4.7965Y-2.0906
X4.8012Y-3.9917
X4.8965Y-2.0906
X4.9012Y-3.9917
X4.9965Y-2.0906
X5.0965Y-2.0906
X5.1547Y-3.9902
X5.1965Y-2.0906
X5.2283Y-2.3976
X5.2283Y-2.5945
X5.2547Y-3.9902
X5.2965Y-2.0906
X5.3547Y-3.9902
X5.3965Y-2.0906
X5.4547Y-3.9902
X5.4965Y-2.0906
X5.5547Y-3.9902
X5.5965Y-2.0906
X5.6547Y-3.9902
X5.6965Y-2.0906
X5.7547Y-3.9902
X5.8539Y-2.0906
X5.8547Y-3.9902
X5.9539Y-2.0906
X6.0531Y-3.9902
X6.0539Y-2.0906
X6.1531Y-3.9902
X6.1539Y-2.0906
X6.2531Y-3.9902
X6.2539Y-2.0906
X6.3531Y-3.9902
X6.3539Y-2.0906
X6.4531Y-3.9902
X6.4539Y-2.0906
X6.5531Y-3.9902
X6.5539Y-2.0906
X7.3386Y-1.9661
X7.3386Y-2.0661
X7.3386Y-2.1661
X7.3386Y-2.2661
X7.3386Y-2.3661
X7.3386Y-2.4661
X7.3386Y-2.5661
X7.3386Y-2.6661
X7.3386Y-2.7661
X7.3386Y-2.8661
X7.3386Y-2.9661
X7.3386Y-3.0661
X7.6047Y-3.2634
X7.6047Y-3.5626
X7.939Y-1.9661
X7.939Y-2.0661
X7.939Y-2.1661
X7.939Y-2.2661
X7.939Y-2.3661
X7.939Y-2.4661
X7.939Y-2.5661
X7.939Y-2.6661
X7.939Y-2.7661
X7.939Y-2.8661
X7.939Y-2.9661
X7.939Y-3.0661
T5
X4.7087Y-2.878
X4.7087Y-3.1339
X4.7126Y-3.4783
X4.7126Y-3.7343
X4.8858Y-2.878
X4.8858Y-3.1339
X4.8898Y-3.4783
X4.8898Y-3.7343
X5.0453Y-2.878
X5.0453Y-3.1339
X5.0492Y-3.4783
X5.0492Y-3.7343
X5.2224Y-2.878
X5.2224Y-3.1339
X5.2264Y-3.4783
X5.2264Y-3.7343
X5.3819Y-2.311
X5.3819Y-2.5669
X5.3819Y-2.878
X5.3819Y-3.1339
X5.3858Y-3.4783
X5.3858Y-3.7343
X5.5591Y-2.311
X5.5591Y-2.878
X5.5591Y-2.5669
X5.5591Y-3.1339
X5.563Y-3.4783
X5.563Y-3.7343
X5.7185Y-2.311
X5.7185Y-2.5669
X5.7185Y-2.878
X5.7185Y-3.1339
X5.7224Y-3.4783
X5.7224Y-3.7343
X5.8957Y-2.311
X5.8957Y-2.878
X5.8957Y-2.5669
X5.8957Y-3.1339
X5.8996Y-3.4783
X5.8996Y-3.7343
X6.0551Y-2.311
X6.0551Y-2.5669
X6.0551Y-2.878
X6.0551Y-3.1339
X6.0591Y-3.4783
X6.0591Y-3.7343
X6.2323Y-2.311
X6.2323Y-2.878
X6.2323Y-2.5669
X6.2323Y-3.1339
X6.2362Y-3.4783
X6.2362Y-3.7343
X6.3917Y-2.311
X6.3917Y-2.5669
X6.3917Y-2.878
X6.3917Y-3.1339
X6.3957Y-3.4783
X6.3957Y-3.7343
X6.5689Y-2.311
X6.5689Y-2.878
X6.5689Y-2.5669
X6.5689Y-3.1339
X6.5728Y-3.4783
X6.5728Y-3.7343
X7.1949Y-3.7933
X7.1949Y-3.9705
X7.4508Y-3.7933
X7.4508Y-3.9705
X7.6063Y-3.7933
X7.6063Y-3.9705
X7.8622Y-3.7933
X7.8622Y-3.9705
T6
X4.2421Y-2.2756
X4.2421Y-2.7165
X4.9528Y-2.2756
X4.9528Y-2.7165
M30
